<svg width="36" height="66" viewBox="0 0 36 66" fill="none" xmlns="http://www.w3.org/2000/svg">
<path d="M6.43985 55.323C3.19175 52.3497 2.24355 46.1023 3.59685 41.5762C5.94325 44.4298 9.19445 45.3337 12.5622 45.844C17.761 46.6314 22.8667 46.3369 27.6962 43.9573C28.2487 43.6849 28.7593 43.3227 29.363 42.9557C29.8161 44.2723 29.9341 45.6015 29.7758 46.9543C29.3909 50.2488 27.7537 52.7938 25.1496 54.723C24.1083 55.4946 23.0064 56.1844 21.9309 56.912C18.627 59.1483 17.7331 61.7704 18.9746 65.5847C19.0041 65.6776 19.0304 65.7705 19.0972 65.9973C17.4103 65.2414 16.1781 64.1406 15.2392 62.6933C14.2475 61.1657 13.7757 59.4759 13.7509 57.6475C13.7385 56.7577 13.7385 55.86 13.619 54.9828C13.3272 52.8442 12.3247 51.8867 10.4361 51.8316C8.49765 51.7749 6.96445 52.9749 6.55785 54.8647C6.52675 55.0096 6.48175 55.1529 6.43675 55.3214L6.43985 55.323Z" fill="white"/>
<path d="M13.5542 8.16016V18.7085C13.5542 20.0073 13.7305 20.8516 14.083 21.2412C14.4355 21.6123 15.2983 21.7979 16.6714 21.7979H17.9795C20.4287 21.7979 22.4048 21.0464 23.9077 19.5435C25.4292 18.022 26.1899 15.9438 26.1899 13.3091V12.3906C26.1899 9.7002 25.3828 7.61279 23.7686 6.12842C22.1543 4.64404 19.9463 3.90186 17.1445 3.90186H16.894C15.2983 3.90186 14.3428 4.11523 14.0273 4.54199C13.7119 4.96875 13.5542 6.1748 13.5542 8.16016ZM16.3374 0.95166H19.3154C25.8838 0.95166 30.1328 2.92773 32.0625 6.87988C32.7861 8.36426 33.1479 10.0063 33.1479 11.8062V12.5854C33.1479 12.5854 33.1479 12.604 33.1479 12.6411C33.1479 16.1665 31.5986 19.0146 28.5 21.1855C26.292 22.7256 22.8779 23.6719 18.2578 24.0244C16.291 24.1729 15.1035 24.479 14.6953 24.9429C14.0459 25.6665 13.7212 27.4106 13.7212 30.1753C13.7212 32.9214 14.0088 34.7026 14.584 35.519C14.8623 35.9087 15.4839 36.4004 16.4487 36.9941C17.4321 37.5693 17.9238 38.0146 17.9238 38.3301C17.9238 39.3135 16.7271 39.8052 14.3335 39.8052H7.29199C4.60156 39.8052 3.25635 39.3599 3.25635 38.4692C3.25635 37.9126 3.74805 37.3374 4.73145 36.7437C5.71484 36.1499 6.3457 35.5283 6.62402 34.8789C6.90234 34.2109 7.0415 32.5039 7.0415 29.7578L7.06934 29.062C7.08789 28.5796 7.09717 28.0972 7.09717 27.6147C7.09717 27.1323 7.09717 26.6499 7.09717 26.1675L7.125 24.7202V21.1021L7.09717 19.6548C7.09717 12.5854 6.94873 8.35498 6.65186 6.96338C6.37354 5.55322 5.76123 4.5791 4.81494 4.04102C3.88721 3.50293 3.42334 3.00195 3.42334 2.53809C3.42334 2.05566 3.68311 1.70312 4.20264 1.48047C4.72217 1.25781 6.29932 1.14648 8.93408 1.14648L11.8843 1.09082L14.083 1.00732C15.0664 0.970215 15.8179 0.95166 16.3374 0.95166Z" fill="white"/>
</svg>
