<svg width="221" height="211" viewBox="0 0 221 211" fill="none" xmlns="http://www.w3.org/2000/svg">
<path d="M25.5 100C22.2517 97.0266 9.68469 88.0383 11.0381 83.512C26.0384 81.0122 75.1706 72.0091 78.5384 72.5194C83.7375 73.3068 105.049 6.1185 110.814 10.9998C125.038 36 135.038 57 143.538 72.5194C143.992 73.8361 211.197 82.1592 211.038 83.512C210.653 86.8066 164.643 130.571 162.038 132.5C160.997 133.272 173.614 201.272 172.538 202C169.234 204.236 118.538 173.5 110.038 170C96.2776 179.5 93.5384 182 48.5384 201.5C46.8514 200.744 59.9773 134.947 59.0384 133.5C58.0467 131.972 53.5632 128.828 53.5384 127C53.526 126.11 46.1579 123.377 46.0384 122.5C45.7466 120.361 41.9271 116.055 40.0384 116C38.5384 113 40.5384 114.5 38.5384 111.5C38.5073 111.645 35.0384 109.5 32.5384 105L25.5 100Z" fill="#17191E"/>
<path d="M110.667 4L143.627 70.7733L217.333 81.5467L164 133.493L176.587 206.88L110.667 172.213L44.7467 206.88L57.3333 133.493L4 81.5467L77.7067 70.7733L110.667 4Z" stroke="url(#paint0_linear_7033_5519)" stroke-width="7" stroke-linecap="round" stroke-linejoin="round"/>
<path d="M94 121.5C94 125.876 95.7384 130.073 98.8327 133.167C101.927 136.262 106.124 138 110.5 138C114.876 138 119.073 136.262 122.167 133.167C125.262 130.073 127 125.876 127 121.5L122.923 121.5C122.923 124.795 121.615 127.955 119.285 130.285C116.955 132.615 113.795 133.923 110.5 133.923C107.205 133.923 104.045 132.615 101.715 130.285C99.3855 127.955 98.0766 124.795 98.0766 121.5H94Z" fill="white"/>
<path d="M92 97C92 94.8783 91.1571 92.8434 89.6569 91.3431C88.1566 89.8429 86.1217 89 84 89C81.8783 89 79.8434 89.8429 78.3431 91.3431C76.8429 92.8434 76 94.8783 76 97L84 97H92Z" fill="white"/>
<circle cx="138" cy="97" r="8" fill="white"/>
<defs>
<linearGradient id="paint0_linear_7033_5519" x1="4" y1="4" x2="217.333" y2="206.667" gradientUnits="userSpaceOnUse">
<stop stop-color="#3245FF"/>
<stop offset="1" stop-color="#B845ED"/>
</linearGradient>
</defs>
</svg>
