<svg width="197" height="30" viewBox="0 0 197 30" fill="none" xmlns="http://www.w3.org/2000/svg">
<path d="M18.0842 25.9392H7.96033L6.9806 29.4613H0L9.67487 0.4558H16.3289L26.0446 29.4613H19.064L18.0842 25.9392ZM16.6146 20.6768L13.0223 7.79006L9.42993 20.6768H16.6146Z" fill="#F2F6FA"/>
<path d="M27.6041 0.4558H34.2173V29.4613H27.6041V0.4558Z" fill="#F2F6FA"/>
<path d="M37.0688 29.4613C37.0688 26.0635 37.6267 23.3287 38.7425 21.2569C39.8583 19.1575 41.6953 17.4309 44.2535 16.0773L48.7031 13.7155C50.7443 12.6381 51.7648 11.1464 51.7648 9.24033C51.7648 8.21823 51.4518 7.40331 50.8259 6.79558C50.2272 6.16022 49.4243 5.84254 48.4174 5.84254C47.1383 5.84254 46.1449 6.27072 45.4374 7.12707C44.757 7.9558 44.4168 9.15746 44.4168 10.732H37.6811C37.6811 8.71547 38.1166 6.94751 38.9875 5.42818C39.8855 3.90884 41.1374 2.73481 42.7431 1.90608C44.376 1.07735 46.2538 0.662982 48.3766 0.662982C51.5607 0.662982 54.0509 1.40884 55.847 2.90055C57.6432 4.36464 58.5413 6.39503 58.5413 8.99171C58.5413 10.8149 58.065 12.4724 57.1125 13.9641C56.1872 15.4282 54.8265 16.6298 53.0303 17.5691L48.9073 19.8066C47.7098 20.4696 46.8525 21.0912 46.3355 21.6713C45.8456 22.2514 45.4646 23.0249 45.1924 23.9917H58.2964V29.4613H37.0688Z" fill="#F2F6FA"/>
<path d="M66.0213 11.6436H60.1429V6.38121C61.9391 6.38121 63.3271 6.20166 64.3068 5.84254C65.2865 5.48342 65.9533 4.94475 66.3071 4.22652C66.6881 3.50829 66.8786 2.52762 66.8786 1.28453H72.5937V29.4613H66.0213V11.6436Z" fill="#F2F6FA"/>
<path d="M90.3026 30C88.452 30 86.8191 29.7238 85.4039 29.1713C84.016 28.6188 82.9274 27.8591 82.1381 26.8923C81.3761 25.8978 80.9951 24.7514 80.9951 23.453H87.2001C87.2001 24.1436 87.4995 24.7099 88.0982 25.1519C88.6969 25.5663 89.4725 25.7735 90.425 25.7735C91.1054 25.7735 91.6497 25.6215 92.0579 25.3177C92.4934 24.9862 92.7111 24.5304 92.7111 23.9503C92.7111 23.4807 92.5614 23.1077 92.262 22.8315C91.9627 22.5276 91.4048 22.279 90.5883 22.0856L86.4653 21.0497C84.8868 20.663 83.6622 19.9724 82.7913 18.9779C81.9476 17.9558 81.5258 16.6989 81.5258 15.2072C81.5258 13.3287 82.2878 11.8232 83.8118 10.6906C85.3631 9.53039 87.4042 8.95028 89.9352 8.95028C92.7111 8.95028 94.8611 9.48895 96.3851 10.5663C97.9363 11.616 98.712 13.1354 98.712 15.1243H92.5478C92.5478 14.4337 92.3029 13.9088 91.813 13.5497C91.3504 13.163 90.6972 12.9696 89.8535 12.9696C89.1732 12.9696 88.6289 13.1215 88.2206 13.4254C87.8124 13.7293 87.6083 14.116 87.6083 14.5856C87.6083 15.0552 87.7716 15.442 88.0982 15.7459C88.4248 16.0497 88.9827 16.2983 89.7719 16.4917L93.9358 17.6519C95.5142 18.0663 96.7389 18.7569 97.6098 19.7238C98.4806 20.6906 98.9161 21.9199 98.9161 23.4116C98.9161 25.4558 98.1405 27.0718 96.5892 28.2597C95.038 29.4199 92.9424 30 90.3026 30Z" fill="#F2F6FA"/>
<path d="M112.307 24.5304C113.178 24.5304 113.899 24.4889 114.47 24.4061V29.4613C113.273 29.6823 111.885 29.7928 110.306 29.7928C108.32 29.7928 106.66 29.3094 105.326 28.3425C103.993 27.3757 103.326 25.4144 103.326 22.4586V14.5028H100.223V9.48895H103.326V3.56354H109.572V9.48895H114.021V14.5028H109.572V21.1326C109.572 22.4862 109.803 23.3978 110.266 23.8674C110.728 24.3094 111.409 24.5304 112.307 24.5304Z" fill="#F2F6FA"/>
<path d="M124.29 30C121.95 30 120.154 29.2956 118.902 27.8867C117.65 26.4503 117.024 24.4337 117.024 21.837V9.48895H123.351V20.4282C123.351 21.837 123.61 22.9006 124.127 23.6188C124.644 24.3094 125.474 24.6547 126.617 24.6547C127.896 24.6547 128.849 24.268 129.475 23.4945C130.101 22.721 130.414 21.6298 130.414 20.221V9.48895H136.619V29.4613H130.414V26.6022C129.842 27.6796 129.039 28.5221 128.005 29.1298C126.998 29.7099 125.76 30 124.29 30Z" fill="#F2F6FA"/>
<path d="M161.257 0.4558V29.4613H155.052V26.6436C154.508 27.6381 153.664 28.453 152.521 29.0884C151.406 29.6961 150.167 30 148.807 30C146.902 30 145.241 29.5442 143.826 28.6326C142.438 27.721 141.377 26.4779 140.642 24.9033C139.907 23.3011 139.54 21.4917 139.54 19.4751C139.54 17.4862 139.921 15.6906 140.683 14.0884C141.445 12.4862 142.534 11.2293 143.949 10.3177C145.391 9.40608 147.038 8.95028 148.888 8.95028C150.276 8.95028 151.514 9.25414 152.603 9.86188C153.692 10.4696 154.508 11.2983 155.052 12.3481V0.4558H161.257ZM150.603 24.7376C152.1 24.7376 153.256 24.2403 154.073 23.2459C154.889 22.2514 155.297 20.9945 155.297 19.4751C155.297 17.9834 154.889 16.7403 154.073 15.7459C153.256 14.7514 152.1 14.2541 150.603 14.2541C149.188 14.2541 148.045 14.7376 147.174 15.7044C146.33 16.6713 145.908 17.9282 145.908 19.4751C145.908 21.0221 146.33 22.2928 147.174 23.2873C148.045 24.2541 149.188 24.7376 150.603 24.7376Z" fill="#F2F6FA"/>
<path d="M168.729 7.74862C167.613 7.74862 166.688 7.37569 165.953 6.62984C165.245 5.88398 164.891 4.97238 164.891 3.89503C164.891 2.79006 165.245 1.86464 165.953 1.11878C166.688 0.372928 167.613 0 168.729 0C169.845 0 170.77 0.38674 171.505 1.16022C172.239 1.90608 172.607 2.81768 172.607 3.89503C172.607 4.97238 172.239 5.88398 171.505 6.62984C170.77 7.37569 169.845 7.74862 168.729 7.74862ZM165.626 9.48895H171.831V29.4613H165.626V9.48895Z" fill="#F2F6FA"/>
<path d="M185.6 30C183.396 30 181.464 29.558 179.804 28.674C178.144 27.7624 176.865 26.5055 175.966 24.9033C175.096 23.3011 174.66 21.4917 174.66 19.4751C174.66 17.4586 175.096 15.6492 175.966 14.047C176.865 12.4448 178.144 11.2017 179.804 10.3177C181.464 9.40608 183.396 8.95028 185.6 8.95028C187.805 8.95028 189.724 9.40608 191.356 10.3177C193.016 11.2017 194.282 12.4448 195.153 14.047C196.051 15.6492 196.5 17.4586 196.5 19.4751C196.5 21.4917 196.051 23.3011 195.153 24.9033C194.282 26.5055 193.016 27.7624 191.356 28.674C189.724 29.558 187.805 30 185.6 30ZM185.6 24.6547C187.043 24.6547 188.186 24.1851 189.03 23.2459C189.873 22.279 190.295 21.0221 190.295 19.4751C190.295 17.9282 189.873 16.6851 189.03 15.7459C188.186 14.779 187.043 14.2956 185.6 14.2956C184.131 14.2956 182.974 14.779 182.131 15.7459C181.314 16.6851 180.906 17.9282 180.906 19.4751C180.906 21.0221 181.314 22.279 182.131 23.2459C182.974 24.1851 184.131 24.6547 185.6 24.6547Z" fill="#F2F6FA"/>
</svg>
