<svg width="135" height="28" viewBox="0 0 135 28" fill="none" xmlns="http://www.w3.org/2000/svg">
<g clip-path="url(#clip0_7013_5617)">
<mask id="mask0_7013_5617" style="mask-type:luminance" maskUnits="userSpaceOnUse" x="0" y="0" width="135" height="28">
<path d="M135 0.400391H0V27.4004H135V0.400391Z" fill="white"/>
</mask>
<g mask="url(#mask0_7013_5617)">
<path d="M18.6985 26.7644L17.7085 23.6461H8.57362L7.58317 26.7644H1.23926L10.4099 1.08789H15.8757L25.1564 26.7644H18.6985ZM13.1613 8.42303L10.0064 18.9876H16.2426L13.1613 8.42303Z" fill="#F2F6FA"/>
<path d="M25.8633 1.08789H31.8792V26.7644H25.8633V1.08789Z" fill="#F2F6FA"/>
<path d="M33.5009 21.5173C33.771 20.2496 34.2481 19.035 34.9131 17.9225C35.4915 16.9822 36.216 16.1403 37.0593 15.428C37.9208 14.7134 38.8342 14.0637 39.7919 13.4845C40.5497 13.0439 41.2527 12.6219 41.9012 12.2187C42.4991 11.8517 43.0693 11.441 43.6069 10.99C44.0712 10.6042 44.4626 10.1382 44.7625 9.6143C45.0489 9.09202 45.1943 8.50414 45.1843 7.90859C45.1843 6.88159 44.9031 6.14186 44.3407 5.68939C43.7444 5.22593 43.0047 4.98581 42.2498 5.01068C41.3908 4.9847 40.5553 5.2939 39.9203 5.87287C39.2967 6.44765 38.9849 7.40754 38.9849 8.75251H33.0788C33.0682 7.63522 33.2739 6.52645 33.6844 5.48725C34.078 4.4986 34.6855 3.60923 35.4631 2.88283C36.2914 2.12167 37.2646 1.53532 38.3246 1.15886C39.5732 0.722718 40.8894 0.511481 42.2117 0.534967C43.3466 0.529728 44.4765 0.684136 45.5683 0.993656C46.5839 1.27552 47.5363 1.74863 48.3745 2.38761C49.198 3.03168 49.8579 3.86118 50.3002 4.80855C50.7999 5.90733 51.0445 7.10498 51.0155 8.3117C51.0286 9.33247 50.7892 10.3407 50.3184 11.2466C49.8676 12.1082 49.293 12.899 48.6128 13.5941C47.9486 14.2716 47.2175 14.8802 46.4305 15.4101C45.6471 15.9362 44.9378 16.3825 44.3026 16.7489C43.4216 17.3359 42.694 17.8434 42.12 18.2715C41.6275 18.6276 41.1672 19.0265 40.7447 19.4633C40.4286 19.7876 40.1846 20.1753 40.0291 20.6007C39.8874 21.0389 39.8193 21.4974 39.8274 21.9578H50.8323V26.7631H33.0057C32.9743 25.0014 33.1403 23.2419 33.5009 21.5173Z" fill="#F2F6FA"/>
<path d="M51.9688 5.59585C52.9967 5.6168 54.0238 5.5245 55.0316 5.32064C55.7046 5.19284 56.3389 4.91032 56.8842 4.49539C57.3217 4.13235 57.641 3.64699 57.8012 3.10143C57.9845 2.44504 58.071 1.76537 58.0577 1.08398H63.3054V26.7633H57.2531V9.77887H51.9688V5.59585Z" fill="#F2F6FA"/>
<path d="M70.1123 1.08789H75.7239V26.7644H70.1123V1.08789Z" fill="#F2F6FA"/>
<path d="M96.4453 9.06797V26.7493H90.833V24.2541C90.6027 24.6835 90.3055 25.0736 89.9525 25.4094C89.5751 25.772 89.1493 26.0806 88.6872 26.3264C88.1917 26.5898 87.6688 26.7983 87.128 26.9484C86.5793 27.1051 86.0114 27.1853 85.4406 27.1867C84.2353 27.2004 83.041 26.9565 81.9375 26.4714C80.9037 26.0163 79.9739 25.3549 79.2048 24.5277C78.4275 23.677 77.8288 22.6791 77.4439 21.5929C76.6125 19.2055 76.6125 16.6072 77.4439 14.2197C77.8288 13.1335 78.4275 12.1356 79.2048 11.2849C79.9739 10.4577 80.9037 9.79631 81.9375 9.34123C83.0414 8.85653 84.236 8.6132 85.4414 8.62755C86.0122 8.62887 86.5801 8.70905 87.1288 8.86583C87.6722 9.01727 88.1957 9.23284 88.688 9.508C89.1512 9.76668 89.5769 10.0875 89.9532 10.4616C90.2972 10.7987 90.5934 11.1813 90.8337 11.5986V9.06797H96.4453ZM86.6146 22.4205C87.2095 22.4296 87.7988 22.3043 88.3385 22.054C88.8386 21.82 89.2877 21.4897 89.6602 21.0822C90.0358 20.6642 90.3284 20.1787 90.5224 19.6513C90.7311 19.0943 90.8365 18.5039 90.8333 17.909C90.8419 16.7491 90.4241 15.6264 89.6594 14.7542C89.291 14.3375 88.8412 14.0004 88.3378 13.7637C87.7952 13.5221 87.2078 13.3972 86.6138 13.3972C86.0198 13.3972 85.4324 13.5221 84.8898 13.7637C84.3865 14.0005 83.9367 14.3376 83.5682 14.7542C82.8039 15.6266 82.3863 16.7492 82.3946 17.909C82.3911 18.5039 82.4965 19.0944 82.7057 19.6513C82.8995 20.1786 83.1919 20.6642 83.5674 21.0822C83.94 21.4895 84.3891 21.8197 84.8891 22.054C85.4293 22.3046 86.0191 22.4299 86.6146 22.4205Z" fill="#F2F6FA"/>
<path d="M103.265 26.7644H97.6523V1.08789H103.265V11.614C103.506 11.1967 103.802 10.8142 104.146 10.477C104.526 10.0998 104.958 9.77879 105.428 9.5235C105.923 9.25242 106.446 9.03704 106.988 8.88134C107.542 8.72201 108.116 8.64179 108.693 8.64305C109.899 8.62934 111.093 8.87319 112.196 9.35829C113.23 9.81346 114.16 10.4748 114.929 11.3019C115.706 12.1528 116.305 13.1506 116.691 14.2367C117.521 16.6242 117.521 19.2225 116.691 21.61C116.305 22.6959 115.706 23.6939 114.929 24.5447C114.16 25.3718 113.23 26.0332 112.196 26.4884C111.093 26.9735 109.899 27.2173 108.693 27.2036C108.116 27.2049 107.542 27.1247 106.988 26.9653C106.448 26.8112 105.926 26.6028 105.428 26.3434C104.959 26.1008 104.527 25.792 104.146 25.4264C103.793 25.0905 103.495 24.7006 103.265 24.2711V26.7644ZM107.521 22.4356C108.103 22.442 108.68 22.3168 109.208 22.0691C109.708 21.835 110.157 21.5048 110.53 21.0972C110.905 20.6794 111.198 20.1937 111.392 19.6663C111.601 19.1093 111.706 18.5189 111.703 17.9241C111.711 16.7641 111.294 15.6415 110.529 14.7693C110.16 14.3526 109.711 14.0155 109.207 13.7788C108.68 13.5309 108.103 13.4049 107.521 13.4103C106.92 13.4029 106.325 13.5281 105.778 13.7768C105.268 14.01 104.812 14.3474 104.44 14.7673C103.675 15.6396 103.257 16.7622 103.266 17.9221C103.262 18.517 103.368 19.1074 103.577 19.6644C103.77 20.1919 104.063 20.6776 104.439 21.0953C104.815 21.5059 105.271 21.8364 105.778 22.067C106.324 22.317 106.919 22.4429 107.521 22.4356Z" fill="#F2F6FA"/>
<path d="M127.86 16.3444C128.641 16.5645 129.375 16.8029 130.06 17.0597C130.7 17.2929 131.305 17.614 131.858 18.0136C132.366 18.3879 132.786 18.8702 133.086 19.4258C133.414 20.0857 133.571 20.817 133.545 21.5533C133.576 22.4794 133.36 23.397 132.921 24.2129C132.504 24.936 131.911 25.5417 131.197 25.9739C130.412 26.4464 129.548 26.7754 128.648 26.9457C127.627 27.1461 126.588 27.2443 125.548 27.2387C123.029 27.2387 121.042 26.6886 119.587 25.5882C118.132 24.4878 117.699 22.9104 117.699 20.8559H122.907C122.907 21.7858 123.171 22.4522 123.696 22.8552C124.288 23.2793 125.004 23.4924 125.732 23.4604C126.313 23.4854 126.89 23.3524 127.401 23.0755C127.614 22.944 127.786 22.7564 127.9 22.5331C128.013 22.3098 128.062 22.0594 128.043 21.8099C128.058 21.5101 127.96 21.2158 127.767 20.9846C127.528 20.7361 127.241 20.5368 126.924 20.3977C126.449 20.178 125.958 19.9941 125.457 19.8472C124.857 19.6638 124.141 19.4376 123.311 19.1689C122.578 18.9486 121.88 18.7102 121.22 18.4537C120.601 18.2191 120.015 17.9046 119.477 17.518C118.977 17.1525 118.569 16.6752 118.286 16.1241C117.97 15.4604 117.819 14.7306 117.845 13.9962C117.845 12.1623 118.548 10.8051 119.954 9.92476C121.36 9.04445 123.262 8.6039 125.658 8.60312C126.794 8.58412 127.926 8.73881 129.015 9.06181C129.887 9.31745 130.698 9.74795 131.399 10.3271C132.01 10.8471 132.492 11.4996 132.812 12.2349C133.13 12.9761 133.293 13.7754 133.289 14.5825H127.749C127.789 13.9617 127.584 13.35 127.181 12.8767C126.948 12.6603 126.674 12.4946 126.373 12.3904C126.073 12.2862 125.755 12.2457 125.439 12.2715C124.922 12.2589 124.414 12.3924 123.972 12.6567C123.768 12.7798 123.604 12.9558 123.493 13.166C123.383 13.376 123.333 13.6122 123.347 13.8489C123.337 14.1402 123.443 14.4238 123.641 14.6376C123.888 14.881 124.182 15.0742 124.503 15.2063C124.963 15.4071 125.434 15.5785 125.916 15.7198C126.477 15.8922 127.125 16.1003 127.86 16.3444Z" fill="#F2F6FA"/>
</g>
</g>
<defs>
<clipPath id="clip0_7013_5617">
<rect width="135" height="28" fill="white"/>
</clipPath>
</defs>
</svg>
