<svg width="119" height="28" viewBox="0 0 119 28" fill="none" xmlns="http://www.w3.org/2000/svg">
<g clip-path="url(#clip0_7019_5513)">
<mask id="mask0_7019_5513" style="mask-type:luminance" maskUnits="userSpaceOnUse" x="0" y="0" width="119" height="28">
<path d="M118.125 0.400391H0V27.4004H118.125V0.400391Z" fill="white"/>
</mask>
<g mask="url(#mask0_7019_5513)">
<path d="M16.3609 26.7644L15.4946 23.6461H7.50155L6.63491 26.7644H1.08398L9.10834 1.08789H13.8909L22.0115 26.7644H16.3609ZM11.5158 8.42303L8.75528 18.9876H14.212L11.5158 8.42303Z" fill="#F2F6FA"/>
<path d="M22.6299 1.08789H27.8938V26.7644H22.6299V1.08789Z" fill="#F2F6FA"/>
<path d="M29.3126 21.5173C29.5489 20.2496 29.9664 19.035 30.5482 17.9225C31.0543 16.9822 31.6883 16.1403 32.4262 15.428C33.18 14.7134 33.9792 14.0637 34.8172 13.4845C35.4803 13.0439 36.0954 12.6219 36.6628 12.2187C37.186 11.8517 37.6849 11.441 38.1553 10.99C38.5616 10.6042 38.904 10.1382 39.1665 9.6143C39.4171 9.09202 39.5443 8.50414 39.5355 7.90859C39.5355 6.88159 39.2895 6.14186 38.7974 5.68939C38.2756 5.22593 37.6284 4.9858 36.9678 5.01068C36.2162 4.9847 35.4852 5.2939 34.9295 5.87287C34.3839 6.44765 34.1111 7.40754 34.1111 8.75251H28.9432C28.9339 7.63522 29.1139 6.52645 29.4731 5.48725C29.8175 4.4986 30.3491 3.60923 31.0295 2.88283C31.7542 2.12167 32.6058 1.53532 33.5333 1.15886C34.6258 0.722718 35.7775 0.511481 36.9345 0.534967C37.9275 0.529728 38.9162 0.684136 39.8715 0.993656C40.7602 1.27552 41.5935 1.74863 42.327 2.38761C43.0475 3.03168 43.6249 3.86118 44.0119 4.80855C44.4492 5.90733 44.6632 7.10498 44.6378 8.3117C44.6493 9.33248 44.4398 10.3407 44.0279 11.2466C43.6334 12.1082 43.1306 12.899 42.5355 13.5941C41.9543 14.2716 41.3146 14.8802 40.626 15.4101C39.9405 15.9362 39.3198 16.3825 38.764 16.7489C37.9932 17.3359 37.3565 17.8434 36.8543 18.2715C36.4233 18.6276 36.0206 19.0265 35.6509 19.4633C35.3743 19.7876 35.1608 20.1753 35.0247 20.6007C34.9007 21.0389 34.8412 21.4974 34.8482 21.9578H44.4775V26.7631H28.8793C28.8518 25.0014 28.997 23.2419 29.3126 21.5173Z" fill="#F2F6FA"/>
<path d="M45.4717 5.59585C46.3712 5.6168 47.2699 5.5245 48.1517 5.32064C48.7406 5.19284 49.2956 4.91032 49.7727 4.49539C50.1556 4.13235 50.4349 3.64699 50.5751 3.10143C50.7355 2.44504 50.8112 1.76537 50.7996 1.08398H55.3913V26.7633H50.0955V9.77887H45.4717V5.59585Z" fill="#F2F6FA"/>
<path d="M61.3477 1.08789H66.2578V26.7644H61.3477V1.08789Z" fill="#F2F6FA"/>
<path d="M84.3896 9.06797V26.7493H79.4788V24.2541C79.2773 24.6835 79.0173 25.0736 78.7084 25.4094C78.3782 25.772 78.0056 26.0806 77.6013 26.3264C77.1677 26.5898 76.7102 26.7983 76.237 26.9484C75.7569 27.1051 75.2599 27.1853 74.7605 27.1867C73.7059 27.2004 72.6608 26.9565 71.6953 26.4714C70.7907 26.0163 69.9771 25.3549 69.3042 24.5277C68.624 23.677 68.1002 22.6791 67.7634 21.5929C67.0359 19.2055 67.0359 16.6072 67.7634 14.2197C68.1002 13.1335 68.624 12.1356 69.3042 11.2849C69.9771 10.4577 70.7907 9.79631 71.6953 9.34123C72.6612 8.85653 73.7065 8.6132 74.7612 8.62755C75.2606 8.62887 75.7576 8.70905 76.2377 8.86583C76.7131 9.01727 77.1712 9.23284 77.602 9.508C78.0073 9.76668 78.3798 10.0875 78.709 10.4616C79.01 10.7987 79.2692 11.1813 79.4795 11.5986V9.06797H84.3896ZM75.7877 22.4205C76.3083 22.4296 76.8239 22.3043 77.2962 22.054C77.7337 21.82 78.1267 21.4897 78.4526 21.0822C78.7813 20.6642 79.0373 20.1787 79.2071 19.6513C79.3897 19.0943 79.4819 18.5039 79.4791 17.909C79.4866 16.7491 79.1211 15.6264 78.4519 14.7542C78.1296 14.3375 77.736 14.0004 77.2955 13.7637C76.8208 13.5221 76.3068 13.3972 75.787 13.3972C75.2673 13.3972 74.7533 13.5221 74.2785 13.7637C73.8382 14.0005 73.4446 14.3376 73.1221 14.7542C72.4534 15.6266 72.088 16.7492 72.0952 17.909C72.0922 18.5039 72.1844 19.0944 72.3675 19.6513C72.537 20.1786 72.7929 20.6642 73.1214 21.0822C73.4475 21.4895 73.8404 21.8197 74.2779 22.054C74.7506 22.3046 75.2667 22.4299 75.7877 22.4205Z" fill="#F2F6FA"/>
<path d="M90.3563 26.7644H85.4453V1.08789H90.3563V11.614C90.5671 11.1967 90.8261 10.8142 91.1271 10.477C91.4596 10.0998 91.8376 9.77879 92.2489 9.5235C92.682 9.25242 93.1396 9.03704 93.6139 8.88134C94.0986 8.72201 94.6009 8.64179 95.1058 8.64305C96.161 8.62934 97.2058 8.87319 98.1709 9.35829C99.0756 9.81346 99.8894 10.4748 100.562 11.3019C101.242 12.1528 101.766 13.1506 102.104 14.2367C102.83 16.6242 102.83 19.2225 102.104 21.61C101.766 22.6959 101.242 23.6939 100.562 24.5447C99.8894 25.3718 99.0756 26.0332 98.1709 26.4884C97.2058 26.9735 96.161 27.2173 95.1058 27.2036C94.6009 27.2049 94.0986 27.1247 93.6139 26.9653C93.1414 26.8112 92.6846 26.6028 92.2489 26.3434C91.8385 26.1008 91.4605 25.792 91.1271 25.4264C90.8183 25.0905 90.5575 24.7006 90.3563 24.2711V26.7644ZM94.0803 22.4356C94.5895 22.442 95.0944 22.3168 95.5564 22.0691C95.9939 21.835 96.3868 21.5048 96.7131 21.0972C97.0413 20.6794 97.2976 20.1937 97.4674 19.6663C97.6503 19.1093 97.7421 18.5189 97.7395 17.9241C97.7465 16.7641 97.3816 15.6415 96.7123 14.7693C96.3894 14.3526 95.9965 14.0155 95.5555 13.7788C95.0944 13.5309 94.5895 13.4049 94.0803 13.4103C93.5544 13.4029 93.0338 13.5281 92.5551 13.7768C92.1089 14.01 91.7099 14.3474 91.3844 14.7673C90.715 15.6396 90.3493 16.7622 90.3571 17.9221C90.3536 18.517 90.4464 19.1074 90.6293 19.6644C90.7981 20.1919 91.0545 20.6776 91.3835 21.0953C91.7125 21.5059 92.1115 21.8364 92.5551 22.067C93.0329 22.317 93.5535 22.4429 94.0803 22.4356Z" fill="#F2F6FA"/>
<path d="M111.877 16.3444C112.561 16.5645 113.203 16.8029 113.802 17.0597C114.362 17.2929 114.892 17.614 115.375 18.0136C115.82 18.3879 116.187 18.8702 116.45 19.4258C116.737 20.0857 116.874 20.817 116.852 21.5533C116.879 22.4794 116.69 23.397 116.306 24.2129C115.941 24.936 115.422 25.5417 114.797 25.9739C114.11 26.4464 113.354 26.7754 112.567 26.9457C111.673 27.1461 110.764 27.2443 109.854 27.2387C107.65 27.2387 105.911 26.6886 104.638 25.5882C103.365 24.4878 102.986 22.9104 102.986 20.8559H107.543C107.543 21.7858 107.774 22.4522 108.234 22.8552C108.752 23.2793 109.378 23.4924 110.015 23.4604C110.524 23.4854 111.028 23.3524 111.476 23.0755C111.662 22.944 111.812 22.7564 111.912 22.5331C112.011 22.3098 112.054 22.0594 112.037 21.8099C112.05 21.5101 111.965 21.2158 111.796 20.9846C111.587 20.7361 111.336 20.5368 111.058 20.3977C110.643 20.178 110.213 19.9941 109.775 19.8472C109.25 19.6638 108.623 19.4376 107.897 19.1689C107.255 18.9486 106.645 18.7102 106.067 18.4537C105.526 18.2191 105.013 17.9046 104.542 17.518C104.105 17.1525 103.748 16.6752 103.5 16.1241C103.223 15.4604 103.091 14.7306 103.114 13.9962C103.114 12.1623 103.729 10.8051 104.959 9.92476C106.19 9.04445 107.854 8.6039 109.95 8.60312C110.944 8.58412 111.935 8.73881 112.888 9.06181C113.651 9.31745 114.36 9.74795 114.974 10.3271C115.508 10.8471 115.93 11.4996 116.21 12.2349C116.488 12.9761 116.631 13.7754 116.628 14.5825H111.78C111.815 13.9617 111.636 13.35 111.283 12.8767C111.079 12.6603 110.839 12.4946 110.576 12.3904C110.314 12.2862 110.035 12.2457 109.759 12.2715C109.306 12.2589 108.862 12.3924 108.475 12.6567C108.297 12.7798 108.153 12.9558 108.056 13.166C107.96 13.376 107.916 13.6122 107.928 13.8489C107.92 14.1402 108.012 14.4238 108.186 14.6376C108.402 14.881 108.659 15.0742 108.94 15.2063C109.342 15.4071 109.754 15.5785 110.176 15.7198C110.667 15.8922 111.234 16.1003 111.877 16.3444Z" fill="#F2F6FA"/>
</g>
</g>
<defs>
<clipPath id="clip0_7019_5513">
<rect width="118.125" height="28" fill="white"/>
</clipPath>
</defs>
</svg>
