<svg width="203" height="29" viewBox="0 0 203 29" fill="none" xmlns="http://www.w3.org/2000/svg">
<mask id="mask0_7013_5630" style="mask-type:luminance" maskUnits="userSpaceOnUse" x="0" y="0" width="203" height="29">
<path d="M203 0.339844H0V28.0216H203V0.339844Z" fill="white"/>
</mask>
<g mask="url(#mask0_7013_5630)">
<path d="M20.369 21.0397H8.39808L6.11439 26.5648H0L11.4921 0.78125H17.3856L28.9144 26.5648H22.6528L20.369 21.0397ZM18.4905 16.5092L14.402 6.63781L10.3134 16.5092H18.4905Z" fill="#F2F6FA"/>
<path d="M55.237 0.78125V26.5648H50.3381L37.4831 10.9105V26.5648H31.5898V0.78125H36.5255L49.3435 16.4356V0.78125H55.237Z" fill="#F2F6FA"/>
<path d="M84.1064 0.78125H90.0735V26.5648H84.1064V0.78125Z" fill="#F2F6FA"/>
<path d="M96.1924 0.78125H107.905C110.705 0.78125 113.173 1.32147 115.309 2.40192C117.47 3.45783 119.14 4.95573 120.318 6.89564C121.522 8.83556 122.123 11.0946 122.123 13.673C122.123 16.2513 121.522 18.5105 120.318 20.4504C119.14 22.3902 117.47 23.9004 115.309 24.981C113.173 26.0369 110.705 26.5648 107.905 26.5648H96.1924V0.78125ZM107.611 21.6659C110.189 21.6659 112.24 20.9539 113.762 19.5296C115.309 18.0808 116.082 16.1286 116.082 13.673C116.082 11.2174 115.309 9.27756 113.762 7.85333C112.24 6.40454 110.189 5.68014 107.611 5.68014H102.159V21.6659H107.611Z" fill="#F2F6FA"/>
<path d="M139.11 27.0074C136.433 27.0074 134.015 26.4304 131.854 25.2762C129.717 24.122 128.035 22.5383 126.808 20.5246C125.604 18.4865 125.003 16.2029 125.003 13.6736C125.003 11.1444 125.604 8.87298 126.808 6.8594C128.035 4.82127 129.717 3.22515 131.854 2.07103C134.015 0.916906 136.433 0.339844 139.11 0.339844C141.787 0.339844 144.193 0.916906 146.329 2.07103C148.466 3.22515 150.148 4.82127 151.376 6.8594C152.603 8.87298 153.217 11.1444 153.217 13.6736C153.217 16.2029 152.603 18.4865 151.376 20.5246C150.148 22.5383 148.466 24.122 146.329 25.2762C144.193 26.4304 141.787 27.0074 139.11 27.0074ZM139.11 21.9244C140.632 21.9244 142.008 21.5805 143.235 20.893C144.463 20.1809 145.421 19.1987 146.108 17.9464C146.821 16.6939 147.177 15.2697 147.177 13.6736C147.177 12.0775 146.821 10.6533 146.108 9.40093C145.421 8.14859 144.463 7.17863 143.235 6.49106C142.008 5.77895 140.632 5.42288 139.11 5.42288C137.588 5.42288 136.212 5.77895 134.985 6.49106C133.757 7.17863 132.787 8.14859 132.075 9.40093C131.387 10.6533 131.043 12.0775 131.043 13.6736C131.043 15.2697 131.387 16.6939 132.075 17.9464C132.787 19.1987 133.757 20.1809 134.985 20.893C136.212 21.5805 137.588 21.9244 139.11 21.9244Z" fill="#F2F6FA"/>
<path d="M201.74 21.7765V26.5648H181.776V0.78125H201.262V5.56964H187.707V11.1683H199.678V15.8094H187.707V21.7765H201.74Z" fill="#F2F6FA"/>
<path d="M80.865 0.822268L58.5479 0.822266V6.0095H66.6302V27.2409H72.7826V6.0095H80.865V0.822268Z" fill="#F2F6FA"/>
<path fill-rule="evenodd" clip-rule="evenodd" d="M170.399 10.5499V0.894531H164.293V10.5499H155.41V16.7973H164.293V26.4523H170.399V16.7973H179.277V10.5499H170.399Z" fill="#F2F6FA"/>
</g>
</svg>
