<svg width="146" height="23" viewBox="0 0 146 23" fill="none" xmlns="http://www.w3.org/2000/svg">
<g clip-path="url(#clip0_7019_5526)">
<mask id="mask0_7019_5526" style="mask-type:luminance" maskUnits="userSpaceOnUse" x="0" y="0" width="146" height="23">
<path d="M145.906 0.269531H0V22.2241H145.906V0.269531Z" fill="white"/>
</mask>
<g mask="url(#mask0_7019_5526)">
<path d="M14.6402 16.6862H6.03612L4.39472 21.0682H0L8.25995 0.619141H12.4959L20.7822 21.0682H16.2817L14.6402 16.6862ZM13.29 13.0931L10.3514 5.264L7.41276 13.0931H13.29Z" fill="#F2F6FA"/>
<path d="M39.7015 0.619141V21.0682H36.1804L26.9409 8.65271V21.0682H22.7051V0.619141H26.2526L35.4655 13.0347V0.619141H39.7015Z" fill="#F2F6FA"/>
<path d="M60.4512 0.619141H64.74V21.0682H60.4512V0.619141Z" fill="#F2F6FA"/>
<path d="M69.1387 0.619141H77.5572C79.5697 0.619141 81.3435 1.04759 82.8788 1.9045C84.432 2.74195 85.6323 3.92993 86.479 5.46848C87.3444 7.00704 87.7764 8.79872 87.7764 10.8437C87.7764 12.8885 87.3444 14.6803 86.479 16.2188C85.6323 17.7573 84.432 18.955 82.8788 19.8121C81.3435 20.6495 79.5697 21.0682 77.5572 21.0682H69.1387V0.619141ZM77.3459 17.1829C79.1988 17.1829 80.673 16.6182 81.7669 15.4885C82.8788 14.3395 83.4344 12.7912 83.4344 10.8437C83.4344 8.89611 82.8788 7.35759 81.7669 6.22803C80.673 5.07899 79.1988 4.50446 77.3459 4.50446H73.4272V17.1829H77.3459Z" fill="#F2F6FA"/>
<path d="M99.9851 21.4197C98.061 21.4197 96.3231 20.9621 94.7699 20.0467C93.2339 19.1313 92.025 17.8752 91.143 16.2782C90.2777 14.6617 89.8457 12.8506 89.8457 10.8446C89.8457 8.83868 90.2777 7.0372 91.143 5.44022C92.025 3.82377 93.2339 2.55788 94.7699 1.64254C96.3231 0.727201 98.061 0.269531 99.9851 0.269531C101.909 0.269531 103.639 0.727201 105.174 1.64254C106.71 2.55788 107.919 3.82377 108.801 5.44022C109.683 7.0372 110.125 8.83868 110.125 10.8446C110.125 12.8506 109.683 14.6617 108.801 16.2782C107.919 17.8752 106.71 19.1313 105.174 20.0467C103.639 20.9621 101.909 21.4197 99.9851 21.4197ZM99.9851 17.3883C101.079 17.3883 102.068 17.1156 102.95 16.5703C103.833 16.0056 104.521 15.2266 105.015 14.2334C105.527 13.24 105.783 12.1105 105.783 10.8446C105.783 9.57873 105.527 8.44919 105.015 7.45591C104.521 6.46268 103.833 5.6934 102.95 5.14809C102.068 4.58331 101.079 4.30091 99.9851 4.30091C98.8912 4.30091 97.9022 4.58331 97.0203 5.14809C96.1376 5.6934 95.4405 6.46268 94.9287 7.45591C94.4342 8.44919 94.187 9.57873 94.187 10.8446C94.187 12.1105 94.4342 13.24 94.9287 14.2334C95.4405 15.2266 96.1376 16.0056 97.0203 16.5703C97.9022 17.1156 98.8912 17.3883 99.9851 17.3883Z" fill="#F2F6FA"/>
<path d="M145.001 17.2706V21.0682H130.652V0.619141H144.658V4.41682H134.915V8.85717H143.519V12.538H134.915V17.2706H145.001Z" fill="#F2F6FA"/>
<path d="M58.1225 0.652345L42.082 0.652344V4.76636H47.8913V21.6051H52.3133V4.76636H58.1225V0.652345Z" fill="#F2F6FA"/>
<path fill-rule="evenodd" clip-rule="evenodd" d="M122.475 8.36672V0.708984H118.086V8.36672H111.701V13.3216H118.086V20.979H122.475V13.3216H128.856V8.36672H122.475Z" fill="#F2F6FA"/>
</g>
</g>
<defs>
<clipPath id="clip0_7019_5526">
<rect width="145.906" height="23" fill="white"/>
</clipPath>
</defs>
</svg>
