<svg width="141" height="40" viewBox="0 0 141 40" fill="none" xmlns="http://www.w3.org/2000/svg">
<mask id="mask0_7013_5643" style="mask-type:luminance" maskUnits="userSpaceOnUse" x="0" y="0" width="141" height="40">
<path d="M140.541 0H0V40H140.541V0Z" fill="white"/>
</mask>
<g mask="url(#mask0_7013_5643)">
<path d="M51.4043 24.2853V14.7754H54.4314V30.2738H51.4043V26.8937" fill="#F2F6FA"/>
<path d="M79.7725 21.0718V16.5312H82.7591V21.0718H87.446V23.5338H82.7591V34.1283C82.7247 34.4591 82.7559 34.7934 82.8512 35.112C82.9464 35.4306 83.1037 35.7274 83.3141 35.985C83.8689 36.4023 84.5607 36.5948 85.2514 36.5248H87.446V39.0473H84.7569C83.0971 39.0473 81.851 38.6689 81.0185 37.9021C80.1861 37.1351 79.7725 35.884 79.7725 34.1283V21.0718Z" fill="#F2F6FA"/>
<path d="M96.2843 21.5954C97.3653 21.0039 98.5839 20.7096 99.8158 20.7428V23.8253H99.0287C95.6856 23.8253 94.0123 25.6399 94.009 29.2689V39.0412H91.0273V21.0707H94.009V23.9918C94.5159 22.9872 95.3071 22.1538 96.2843 21.5954Z" fill="#F2F6FA"/>
<path d="M119.583 31.1721H105.219C105.217 31.9311 105.368 32.6829 105.662 33.3824C105.957 34.0819 106.39 34.7148 106.935 35.2432C107.48 35.7717 108.125 36.1847 108.833 36.4578C109.542 36.7309 110.298 36.8585 111.056 36.8326C112.2 36.8732 113.328 36.5596 114.285 35.9346C115.137 35.349 115.776 34.5028 116.107 33.5231H119.32C118.858 35.2084 117.837 36.6867 116.425 37.7156C114.865 38.8399 112.977 39.4164 111.056 39.3551C109.456 39.3816 107.878 38.9847 106.481 38.2048C105.132 37.4384 104.031 36.3024 103.307 34.9307C102.517 33.4192 102.121 31.7323 102.157 30.0269C102.132 28.3274 102.527 26.648 103.307 25.1383C104.016 23.7807 105.105 22.6588 106.44 21.9094C107.864 21.1373 109.463 20.7479 111.082 20.7793C112.667 20.7461 114.232 21.1307 115.623 21.8943C116.903 22.6082 117.952 23.6722 118.65 24.9616C119.373 26.3171 119.739 27.8346 119.713 29.371C119.702 29.9733 119.657 30.5744 119.583 31.1721ZM115.844 25.8143C115.355 25.0069 114.644 24.3572 113.796 23.9426C112.902 23.5107 111.919 23.2913 110.925 23.3018C109.506 23.2655 108.126 23.7747 107.071 24.7245C105.963 25.7826 105.31 27.2298 105.25 28.7605H116.596C116.629 27.7272 116.368 26.7057 115.844 25.8143Z" fill="#F2F6FA"/>
<path d="M139.915 31.1721H125.551C125.548 31.9311 125.7 32.6829 125.994 33.3824C126.289 34.0819 126.721 34.7148 127.266 35.2432C127.811 35.7717 128.457 36.1847 129.165 36.4578C129.874 36.7309 130.629 36.8585 131.388 36.8326C132.531 36.8732 133.66 36.5596 134.617 35.9346C135.469 35.349 136.108 34.5028 136.438 33.5231H139.631C139.174 35.2133 138.157 36.6984 136.746 37.7357C135.187 38.8508 133.304 39.4201 131.388 39.3551C129.788 39.3816 128.21 38.9847 126.812 38.2048C125.469 37.4424 124.371 36.3116 123.649 34.9458C122.849 33.4317 122.447 31.7391 122.479 30.0269C122.442 28.3304 122.825 26.6511 123.594 25.1383C124.303 23.7807 125.391 22.6588 126.727 21.9094C128.15 21.1373 129.749 20.7479 131.368 20.7793C132.954 20.7461 134.519 21.1307 135.908 21.8943C137.188 22.6082 138.239 23.6722 138.935 24.9616C139.66 26.3171 140.026 27.8346 140 29.371C140.002 29.9724 139.974 30.5736 139.915 31.1721ZM136.176 25.8143C135.687 25.0069 134.976 24.3572 134.128 23.9426C133.232 23.5107 132.251 23.2913 131.257 23.3018C129.838 23.2655 128.458 23.7747 127.402 24.7245C126.295 25.7826 125.642 27.2298 125.582 28.7605H136.928C136.958 27.7274 136.697 26.7066 136.176 25.8143Z" fill="#F2F6FA"/>
<path d="M72.8154 21.0723V23.3223C73.7319 24.189 74.462 25.2336 74.9609 26.3921C75.4599 27.5505 75.7172 28.7987 75.7172 30.0601C75.7172 31.3215 75.4599 32.5696 74.9609 33.7281C74.462 34.8865 73.7319 35.9311 72.8154 36.7977V39.0428H75.8424V21.0723H72.8154Z" fill="#F2F6FA"/>
<path d="M72.8148 24.3502V23.3413C71.091 21.7142 68.8082 20.8112 66.4378 20.8188H66.2764C67.6587 20.8044 69.0206 21.1523 70.2267 21.8277C71.2997 22.4218 72.1934 23.2929 72.8148 24.3502Z" fill="#F2F6FA"/>
<path d="M57.5992 29.9913C57.5629 28.3126 57.9462 26.6513 58.7142 25.1581C59.0216 24.5812 59.3941 24.0412 59.8241 23.5488C58.9343 24.4515 58.2389 25.5272 57.7812 26.7093C57.3234 27.8913 57.1128 29.1547 57.1624 30.4214C57.2121 31.688 57.5209 32.931 58.0698 34.0736C58.6187 35.2162 59.3961 36.2341 60.3538 37.0645C59.6902 36.4187 59.1363 35.6688 58.7142 34.8446C57.952 33.3421 57.5693 31.6759 57.5992 29.9913Z" fill="#F2F6FA"/>
<path d="M70.1759 38.3055C68.9801 38.979 67.6284 39.3269 66.2559 39.3146H66.4376C68.8079 39.322 71.0908 38.4191 72.8145 36.792V35.6973C72.1853 36.788 71.2739 37.6889 70.1759 38.3055Z" fill="#F2F6FA"/>
<path d="M75.7157 30.0572C75.7173 28.796 75.4607 27.5479 74.9618 26.3895C74.463 25.2312 73.7323 24.1873 72.8148 23.3221V24.331C72.1984 23.2606 71.3042 22.3769 70.2267 21.7732C69.0206 21.0977 67.6587 20.7498 66.2764 20.7641C63.8455 20.8002 61.5268 21.7936 59.8238 23.5289C59.3937 24.0213 59.0214 24.5612 58.7139 25.1382C57.9459 26.6313 57.5627 28.2926 57.599 29.9713C57.5689 31.6559 57.9517 33.3222 58.7139 34.8246C59.1361 35.6489 59.6899 36.3987 60.3536 37.0445C61.9931 38.4715 64.083 39.2752 66.2563 39.3148C67.6287 39.3271 68.9804 38.9792 70.1763 38.3058C71.2741 37.6892 72.1856 36.7882 72.8148 35.6975V36.7973C73.7326 35.9312 74.4635 34.8865 74.9624 33.7272C75.4613 32.5681 75.7177 31.3191 75.7157 30.0572ZM71.9975 33.5886C71.4944 34.5593 70.7266 35.3676 69.7828 35.9195C68.8497 36.4546 67.7909 36.7315 66.7153 36.7216C65.6527 36.7299 64.6074 36.4529 63.6883 35.9195C62.7501 35.3653 61.9876 34.5574 61.4887 33.5886C60.9216 32.4779 60.6406 31.2433 60.6714 29.9965C60.6443 28.7696 60.9254 27.5555 61.4887 26.4651C61.9901 25.5072 62.7528 24.7113 63.6883 24.1696C64.6226 23.6468 65.6751 23.3723 66.7456 23.3723C67.8162 23.3723 68.8687 23.6468 69.8029 24.1696C70.7426 24.7177 71.5098 25.5182 72.0177 26.4802C72.5821 27.5702 72.8632 28.7846 72.835 30.0118C72.8598 31.2537 72.5718 32.4821 71.9975 33.5836V33.5886Z" fill="#F2F6FA"/>
<path d="M51.4043 23.2103V24.2849C50.7315 23.2102 49.7794 22.3383 48.6497 21.7624C47.5055 21.1478 46.2303 20.8173 44.9316 20.7988C43.4824 20.8314 42.0611 21.2035 40.7818 21.8852C39.5026 22.5669 38.4011 23.5391 37.5657 24.7238C37.4749 24.8751 37.3892 25.0265 37.3035 25.1829C36.5465 26.6704 36.1703 28.3223 36.2087 29.9908C36.1786 31.6754 36.5614 33.3416 37.3236 34.8442C37.5508 35.2808 37.8141 35.6975 38.1106 36.0903C38.953 37.081 39.9941 37.8835 41.1666 38.4457C42.339 39.0081 43.6166 39.3176 44.9164 39.3545C46.2707 39.3627 47.6035 39.0148 48.7809 38.3454C49.8786 37.7202 50.7854 36.8081 51.4043 35.7069V36.948C52.3548 36.0783 53.114 35.0201 53.6333 33.8411C54.1525 32.662 54.4208 31.3877 54.4208 30.0994C54.4208 28.8109 54.1525 27.5367 53.6333 26.3575C53.114 25.1785 52.3548 24.1204 51.4043 23.2507V23.2103ZM50.587 33.5829C50.084 34.5536 49.316 35.3618 48.3722 35.9137C47.4348 36.4515 46.3704 36.7284 45.2897 36.7159C44.2271 36.7242 43.1817 36.4471 42.2627 35.9137C41.3246 35.3596 40.562 34.5516 40.063 33.5829C39.4924 32.4732 39.208 31.2384 39.2357 29.9908C39.2087 28.7639 39.4896 27.5496 40.053 26.4594C40.5556 25.4964 41.3221 24.6967 42.2627 24.1537C43.1969 23.631 44.2495 23.3565 45.32 23.3565C46.3905 23.3565 47.4431 23.631 48.3773 24.1537C49.317 24.7018 50.0842 25.5024 50.5921 26.4643C51.1564 27.5543 51.4375 28.7688 51.4094 29.9959C51.4414 31.2417 51.1586 32.4755 50.587 33.5829Z" fill="#F2F6FA"/>
<path d="M51.4043 24.2856V23.211C49.6957 21.6448 47.4613 20.777 45.1434 20.7793H44.9316C46.2303 20.7978 47.5055 21.1283 48.6497 21.7429C49.7819 22.3244 50.7343 23.2034 51.4043 24.2856Z" fill="#F2F6FA"/>
<path d="M36.2086 29.9914C36.1724 28.3127 36.5557 26.6514 37.3237 25.1582C37.4094 25.0019 37.4951 24.8506 37.5859 24.6992C36.3892 26.3829 35.7889 28.418 35.8802 30.4818C35.9717 32.5455 36.7495 34.5195 38.0905 36.0909C37.7939 35.6981 37.5307 35.2813 37.3034 34.8447C36.5483 33.3404 36.1724 31.6742 36.2086 29.9914Z" fill="#F2F6FA"/>
<path d="M48.7805 38.3066C47.6031 38.9759 46.2703 39.3239 44.916 39.3156H45.1431C47.4609 39.3178 49.6952 38.45 51.4039 36.8839V35.668C50.785 36.7693 49.8782 37.6814 48.7805 38.3066Z" fill="#F2F6FA"/>
<path fill-rule="evenodd" clip-rule="evenodd" d="M24.3269 17.3027L19.1961 22.4386C18.8767 22.7519 18.594 23.1006 18.3536 23.4779C18.1068 23.8537 17.9005 24.2544 17.7381 24.6735C17.5769 25.0914 17.4569 25.5239 17.3798 25.9651C17.2982 26.4264 17.2577 26.8941 17.2588 27.3626V39.0419H20.0133V27.3626C20.0041 27.0657 20.0209 26.7686 20.0638 26.4746C20.111 26.199 20.1854 25.9286 20.2858 25.6675C20.3775 25.4304 20.4941 25.2037 20.6339 24.9914C20.7818 24.7751 20.9508 24.574 21.1384 24.3911L26.2793 19.2552L24.3269 17.3027Z" fill="#F2F6FA"/>
<path fill-rule="evenodd" clip-rule="evenodd" d="M31.4913 10.5426C31.2891 10.0581 30.9943 9.6177 30.6235 9.24605L22.5515 1.17398C21.7993 0.422272 20.7795 0 19.7162 0C18.6528 0 17.6329 0.422272 16.8808 1.17398L15.9778 2.11236L4.12695 13.9582L6.07939 15.9106L17.9302 4.06479L18.8484 3.14155C19.0837 2.90946 19.4008 2.77903 19.7313 2.7783C19.8956 2.78042 20.0581 2.81292 20.2105 2.87416C20.3606 2.93737 20.4975 3.02805 20.6142 3.14155L28.6862 11.2136C28.7997 11.3304 28.8904 11.4672 28.9537 11.6172C29.0134 11.7699 29.0442 11.9325 29.0445 12.0965C29.0464 12.2601 29.0157 12.4224 28.9542 12.5741C28.8927 12.7256 28.8016 12.8635 28.6862 12.9794L27.763 13.8976L27.6873 13.9733L25.7349 15.9257L27.6873 17.8782L30.6387 14.9318C31.0051 14.5559 31.2948 14.112 31.4913 13.6252C31.6863 13.1441 31.789 12.6307 31.794 12.1117V12.0612C31.7897 11.5404 31.687 11.0252 31.4913 10.5426Z" fill="#F2F6FA"/>
<path fill-rule="evenodd" clip-rule="evenodd" d="M2.86559 20.2188C2.80151 20.0689 2.76889 19.9075 2.76973 19.7446V19.6386C2.78009 19.5302 2.80381 19.4234 2.84036 19.3208L0.822343 17.3027C0.307227 17.9725 0.0191503 18.7889 0 19.6335V19.7395C0.00259514 20.2588 0.105375 20.7727 0.302703 21.253C0.500028 21.7374 0.793506 22.1768 1.16541 22.5446L9.86306 31.2826V27.3525L3.13802 20.6224C3.02145 20.5072 2.92885 20.37 2.86559 20.2188Z" fill="#F2F6FA"/>
<path fill-rule="evenodd" clip-rule="evenodd" d="M29.6497 15.9098L29.7254 15.9855L30.6486 16.9086C31.0205 17.2794 31.3154 17.7201 31.5164 18.2052C31.7022 18.6609 31.8046 19.1462 31.8191 19.638V19.7439C31.8165 20.2633 31.7137 20.7771 31.5164 21.2575C31.319 21.7419 31.0256 22.1812 30.6537 22.549L21.9409 31.282V27.3518L28.671 20.6218C28.7876 20.5065 28.8801 20.3694 28.9435 20.2182C29.0052 20.0676 29.0377 19.9067 29.0392 19.7439V19.638C29.0301 19.5094 28.9993 19.3832 28.9484 19.2647C28.8865 19.114 28.7957 18.9769 28.6811 18.8611L27.7578 17.9379L25.6541 15.8341L17.2792 7.4593L19.2317 5.50686L27.6065 13.8817L27.6822 13.9574L29.6497 15.9098ZM0.0353157 12.0553V12.1109C0.0377422 13.1656 0.458711 14.1763 1.20576 14.9209L10.6551 24.3904C11.0159 24.7554 11.299 25.1896 11.4876 25.6669C11.5857 25.9287 11.66 26.1989 11.7095 26.4741C11.7566 26.7677 11.7802 27.0646 11.7802 27.362V39.0412H14.5348V27.362C14.5375 26.8937 14.4987 26.426 14.4187 25.9645C14.34 25.5232 14.2183 25.0907 14.0555 24.673C13.733 23.8345 13.2379 23.0731 12.6025 22.438L6.15495 15.9855L6.07928 15.9098L4.12684 13.9574L4.05117 13.8817L3.13297 12.9634C2.90067 12.7283 2.7704 12.4111 2.7704 12.0806C2.7704 11.75 2.90067 11.4328 3.13297 11.1977L11.2051 3.1256C11.32 3.00999 11.4574 2.91902 11.6086 2.85821C11.7597 2.79507 11.9217 2.76257 12.0854 2.76257C12.2491 2.76257 12.4111 2.79507 12.5622 2.85821C12.7134 2.91902 12.8508 3.00999 12.9657 3.1256L13.889 4.04885L13.9646 4.12452L15.9827 2.1065L15.907 2.18218L15.8314 2.1065L14.9081 1.18326C14.5373 0.81142 14.0966 0.516521 13.6116 0.315514C12.6275 -0.0895462 11.5232 -0.0895462 10.5391 0.315514C10.054 0.516521 9.61333 0.81142 9.24252 1.18326L1.17045 9.25533C0.423397 10 0.00242654 11.0107 0 12.0655L0.0353157 12.0553Z" fill="#F2F6FA"/>
<path fill-rule="evenodd" clip-rule="evenodd" d="M29.6498 15.9107L29.7255 15.9863L30.6487 16.9096C31.0205 17.2804 31.3154 17.721 31.5164 18.2062C31.7021 18.6619 31.8047 19.1472 31.8191 19.639V19.7449C31.8165 20.2642 31.7138 20.7781 31.5164 21.2584C31.3191 21.7429 31.0256 22.1822 30.6537 22.55L21.9409 31.283V27.3528L28.671 20.6228C28.7876 20.5075 28.8802 20.3703 28.9434 20.2192C29.0052 20.0686 29.0378 19.9076 29.0393 19.7449V19.639C29.0301 19.5103 28.9994 19.3842 28.9485 19.2657C28.8865 19.115 28.7956 18.9779 28.6811 18.862L27.7579 17.9388L25.6541 15.835L17.2793 7.46025L19.2317 5.50781L27.6065 13.8825L27.6822 13.9582L29.6498 15.9107Z" fill="#F2F6FA"/>
</g>
</svg>
