<svg width="113" height="32" viewBox="0 0 113 32" fill="none" xmlns="http://www.w3.org/2000/svg">
<mask id="mask0_7019_5634" style="mask-type:luminance" maskUnits="userSpaceOnUse" x="0" y="0" width="113" height="32">
<path d="M112.433 0H0V32H112.433V0Z" fill="white"/>
</mask>
<g mask="url(#mask0_7019_5634)">
<path d="M41.123 19.4282V11.8203H43.5447V24.219H41.123V21.515" fill="#F2F6FA"/>
<path d="M63.8184 16.8571V13.2246H66.2076V16.8571H69.9572V18.8266H66.2076V27.3023C66.1801 27.5669 66.2051 27.8344 66.2813 28.0892C66.3575 28.3441 66.4833 28.5815 66.6516 28.7876C67.0955 29.1214 67.6489 29.2755 68.2015 29.2195H69.9572V31.2375H67.8059C66.478 31.2375 65.4812 30.9348 64.8152 30.3213C64.1492 29.7077 63.8184 28.7068 63.8184 27.3023V16.8571Z" fill="#F2F6FA"/>
<path d="M77.0279 17.2779C77.8927 16.8047 78.8675 16.5692 79.8531 16.5958V19.0618H79.2234C76.5489 19.0618 75.2103 20.5135 75.2076 23.4167V31.2345H72.8223V16.8581H75.2076V19.195C75.6131 18.3913 76.2461 17.7246 77.0279 17.2779Z" fill="#F2F6FA"/>
<path d="M95.6672 24.9369H84.176C84.1744 25.5441 84.2952 26.1456 84.5304 26.7052C84.7664 27.2648 85.1128 27.7711 85.5488 28.1938C85.9848 28.6166 86.5008 28.947 87.0672 29.1655C87.6344 29.384 88.2392 29.486 88.8456 29.4653C89.7608 29.4978 90.6632 29.2469 91.4288 28.7469C92.1104 28.2784 92.6216 27.6015 92.8864 26.8177H95.4568C95.0872 28.166 94.2704 29.3486 93.1408 30.1717C91.8928 31.0712 90.3824 31.5324 88.8456 31.4833C87.5656 31.5045 86.3032 31.187 85.1856 30.5631C84.1064 29.95 83.2256 29.0412 82.6464 27.9438C82.0144 26.7346 81.6976 25.3851 81.7264 24.0208C81.7064 22.6612 82.0224 21.3176 82.6464 20.1099C83.2136 19.0238 84.0848 18.1263 85.1528 17.5268C86.292 16.9091 87.5712 16.5976 88.8664 16.6227C90.1344 16.5961 91.3864 16.9038 92.4992 17.5147C93.5232 18.0858 94.3624 18.937 94.9208 19.9685C95.4992 21.0529 95.792 22.2669 95.7712 23.496C95.7624 23.9779 95.7264 24.4588 95.6672 24.9369ZM92.676 20.6507C92.2848 20.0048 91.716 19.485 91.0376 19.1533C90.3224 18.8078 89.536 18.6323 88.7408 18.6407C87.6056 18.6116 86.5016 19.019 85.6576 19.7788C84.7712 20.6253 84.2488 21.7831 84.2008 23.0076H93.2776C93.304 22.181 93.0952 21.3638 92.676 20.6507Z" fill="#F2F6FA"/>
<path d="M111.931 24.9369H100.44C100.438 25.5441 100.559 26.1456 100.794 26.7052C101.03 27.2648 101.376 27.7711 101.812 28.1938C102.248 28.6166 102.765 28.947 103.331 29.1655C103.898 29.384 104.502 29.486 105.11 29.4653C106.024 29.4978 106.927 29.2469 107.693 28.7469C108.374 28.2784 108.886 27.6015 109.15 26.8177H111.704C111.338 28.1699 110.525 29.358 109.396 30.1878C108.149 31.0799 106.642 31.5353 105.11 31.4833C103.83 31.5045 102.567 31.187 101.449 30.5631C100.374 29.9532 99.496 29.0485 98.9184 27.9559C98.2784 26.7446 97.9568 25.3905 97.9824 24.0208C97.9528 22.6636 98.2592 21.3201 98.8744 20.1099C99.4416 19.0238 100.312 18.1263 101.381 17.5268C102.519 16.9091 103.798 16.5976 105.094 16.6227C106.362 16.5961 107.614 16.9038 108.726 17.5147C109.75 18.0858 110.59 18.937 111.147 19.9685C111.727 21.0529 112.02 22.2669 111.999 23.496C112.001 23.9772 111.978 24.4581 111.931 24.9369ZM108.94 20.6507C108.549 20.0048 107.98 19.485 107.302 19.1533C106.585 18.8078 105.8 18.6323 105.005 18.6407C103.87 18.6116 102.766 19.019 101.921 19.7788C101.035 20.6253 100.513 21.7831 100.465 23.0076H109.542C109.566 22.1812 109.357 21.3645 108.94 20.6507Z" fill="#F2F6FA"/>
<path d="M58.252 16.8574V18.6574C58.9852 19.3508 59.5692 20.1865 59.9684 21.1133C60.3676 22.04 60.5734 23.0385 60.5734 24.0477C60.5734 25.0568 60.3676 26.0553 59.9684 26.9821C59.5692 27.9088 58.9852 28.7445 58.252 29.4377V31.2338H60.6736V16.8574H58.252Z" fill="#F2F6FA"/>
<path d="M58.2522 19.4798V18.6726C56.8732 17.371 55.0469 16.6486 53.1506 16.6546H53.0215C54.1273 16.6431 55.2168 16.9214 56.1817 17.4618C57.0401 17.937 57.7551 18.6339 58.2522 19.4798Z" fill="#F2F6FA"/>
<path d="M46.0797 23.9938C46.0507 22.6509 46.3573 21.3218 46.9717 20.1273C47.2177 19.6658 47.5157 19.2338 47.8597 18.8398C47.1478 19.562 46.5915 20.4226 46.2253 21.3682C45.8591 22.3138 45.6906 23.3246 45.7303 24.3379C45.7701 25.3512 46.0171 26.3456 46.4562 27.2597C46.8953 28.1738 47.5173 28.9881 48.2834 29.6524C47.7525 29.1358 47.3094 28.5358 46.9717 27.8765C46.362 26.6745 46.0558 25.3415 46.0797 23.9938Z" fill="#F2F6FA"/>
<path d="M56.1419 30.6452C55.1852 31.184 54.1039 31.4623 53.0059 31.4524H53.1512C55.0475 31.4584 56.8738 30.736 58.2527 29.4344V28.5586C57.7494 29.4312 57.0203 30.1519 56.1419 30.6452Z" fill="#F2F6FA"/>
<path d="M60.5734 24.0461C60.5747 23.0372 60.3694 22.0387 59.9703 21.112C59.5712 20.1853 58.9867 19.3502 58.2527 18.6581V19.4652C57.7595 18.6089 57.0442 17.9019 56.1822 17.4189C55.2173 16.8785 54.1278 16.6002 53.0219 16.6117C51.0772 16.6405 49.2223 17.4353 47.8599 18.8235C47.5158 19.2174 47.2179 19.6493 46.9719 20.1109C46.3575 21.3054 46.051 22.6345 46.08 23.9774C46.0559 25.3251 46.3622 26.6581 46.9719 27.8601C47.3097 28.5195 47.7527 29.1193 48.2837 29.636C49.5953 30.7776 51.2672 31.4205 53.0059 31.4522C54.1038 31.4621 55.1851 31.1837 56.1418 30.645C57.0201 30.1517 57.7493 29.4309 58.2527 28.5584V29.4382C58.9869 28.7453 59.5716 27.9096 59.9707 26.9821C60.3699 26.0549 60.575 25.0557 60.5734 24.0461ZM57.5988 26.8713C57.1963 27.6478 56.5821 28.2945 55.827 28.736C55.0806 29.1641 54.2335 29.3856 53.3731 29.3777C52.523 29.3843 51.6867 29.1627 50.9515 28.736C50.2009 28.2926 49.5909 27.6463 49.1918 26.8713C48.7381 25.9827 48.5133 24.995 48.5379 23.9976C48.5163 23.0161 48.7411 22.0448 49.1918 21.1725C49.5929 20.4061 50.2031 19.7694 50.9515 19.3361C51.6989 18.9178 52.5409 18.6982 53.3973 18.6982C54.2538 18.6982 55.0958 18.9178 55.8431 19.3361C56.5949 19.7745 57.2086 20.4149 57.615 21.1845C58.0665 22.0565 58.2914 23.0281 58.2688 24.0098C58.2886 25.0033 58.0583 25.9861 57.5988 26.8673V26.8713Z" fill="#F2F6FA"/>
<path d="M41.1235 18.5679V19.4276C40.5852 18.5678 39.8235 17.8703 38.9198 17.4096C38.0044 16.9179 36.9843 16.6535 35.9453 16.6387C34.7859 16.6648 33.6489 16.9624 32.6255 17.5078C31.6021 18.0532 30.7209 18.8309 30.0526 19.7787C29.9799 19.8997 29.9114 20.0208 29.8428 20.146C29.2372 21.336 28.9363 22.6575 28.967 23.9923C28.9429 25.34 29.2491 26.6729 29.8589 27.875C30.0407 28.2243 30.2513 28.5576 30.4885 28.8719C31.1624 29.6644 31.9953 30.3064 32.9333 30.7562C33.8712 31.2061 34.8933 31.4537 35.9331 31.4832C37.0166 31.4898 38.0828 31.2115 39.0247 30.676C39.9029 30.1758 40.6283 29.4461 41.1235 28.5652V29.558C41.8839 28.8623 42.4912 28.0157 42.9067 27.0725C43.322 26.1292 43.5367 25.1098 43.5367 24.0792C43.5367 23.0484 43.322 22.029 42.9067 21.0856C42.4912 20.1424 41.8839 19.296 41.1235 18.6002V18.5679ZM40.4696 26.866C40.0672 27.6425 39.4528 28.2891 38.6978 28.7306C37.9479 29.1608 37.0963 29.3824 36.2318 29.3724C35.3817 29.379 34.5454 29.1573 33.8102 28.7306C33.0597 28.2873 32.4496 27.6409 32.0504 26.866C31.5939 25.9782 31.3664 24.9904 31.3886 23.9923C31.367 23.0108 31.5917 22.0393 32.0424 21.1672C32.4445 20.3968 33.0577 19.757 33.8102 19.3226C34.5575 18.9044 35.3996 18.6848 36.256 18.6848C37.1124 18.6848 37.9545 18.9044 38.7019 19.3226C39.4536 19.7611 40.0674 20.4016 40.4737 21.1711C40.9251 22.0431 41.15 23.0147 41.1275 23.9964C41.1531 24.993 40.9269 25.98 40.4696 26.866Z" fill="#F2F6FA"/>
<path d="M41.1235 19.4281V18.5684C39.7566 17.3155 37.9691 16.6212 36.1148 16.6231H35.9453C36.9843 16.6379 38.0044 16.9023 38.9198 17.3939C39.8256 17.8591 40.5875 18.5623 41.1235 19.4281Z" fill="#F2F6FA"/>
<path d="M28.9672 23.9935C28.9383 22.6506 29.2449 21.3215 29.8593 20.127C29.9279 20.0019 29.9964 19.8809 30.0691 19.7598C29.1117 21.1067 28.6315 22.7348 28.7045 24.3858C28.7777 26.0368 29.4 27.616 30.4728 28.8731C30.2355 28.5589 30.0249 28.2254 29.8431 27.8762C29.239 26.6727 28.9383 25.3398 28.9672 23.9935Z" fill="#F2F6FA"/>
<path d="M39.0252 30.6441C38.0833 31.1795 37.017 31.4579 35.9336 31.4513H36.1153C37.9695 31.453 39.757 30.7588 41.1239 29.5059V28.5332C40.6288 29.4142 39.9034 30.1439 39.0252 30.6441Z" fill="#F2F6FA"/>
<path fill-rule="evenodd" clip-rule="evenodd" d="M19.4611 13.8418L15.3565 17.9505C15.101 18.2012 14.8748 18.4801 14.6825 18.782C14.4851 19.0826 14.32 19.4032 14.1901 19.7384C14.0611 20.0728 13.9651 20.4188 13.9035 20.7717C13.8382 21.1408 13.8058 21.5149 13.8067 21.8897V31.2332H16.0103V21.8897C16.0029 21.6522 16.0163 21.4145 16.0507 21.1793C16.0884 20.9588 16.1479 20.7425 16.2283 20.5336C16.3016 20.344 16.3949 20.1626 16.5067 19.9928C16.6251 19.8197 16.7603 19.6588 16.9103 19.5125L21.0231 15.4038L19.4611 13.8418Z" fill="#F2F6FA"/>
<path fill-rule="evenodd" clip-rule="evenodd" d="M25.1923 8.43408C25.0305 8.04648 24.7947 7.69416 24.498 7.39684L18.0404 0.939184C17.4387 0.337818 16.6228 0 15.7722 0C14.9215 0 14.1055 0.337818 13.5039 0.939184L12.7815 1.68989L3.30078 11.1666L4.86273 12.7285L14.3434 3.25183L15.0779 2.51324C15.2662 2.32757 15.5199 2.22322 15.7843 2.22264C15.9157 2.22434 16.0457 2.25034 16.1676 2.29933C16.2877 2.3499 16.3972 2.42244 16.4906 2.51324L22.9482 8.97088C23.039 9.06432 23.1115 9.17376 23.1622 9.29376C23.2099 9.41592 23.2346 9.546 23.2348 9.6772C23.2363 9.80808 23.2118 9.93792 23.1626 10.0593C23.1134 10.1805 23.0405 10.2908 22.9482 10.3835L22.2096 11.1181L22.1491 11.1786L20.5871 12.7406L22.1491 14.3026L24.5102 11.9454C24.8033 11.6447 25.0351 11.2896 25.1923 10.9002C25.3483 10.5153 25.4304 10.1046 25.4344 9.68936V9.64896C25.431 9.23232 25.3488 8.82016 25.1923 8.43408Z" fill="#F2F6FA"/>
<path fill-rule="evenodd" clip-rule="evenodd" d="M2.29247 16.1747C2.24121 16.0548 2.21511 15.9256 2.21578 15.7953V15.7105C2.22407 15.6238 2.24305 15.5384 2.27229 15.4563L0.657874 13.8418C0.245782 14.3776 0.0153202 15.0308 0 15.7064V15.7912C0.00207611 16.2067 0.0843 16.6178 0.242162 17.002C0.400022 17.3896 0.634805 17.7411 0.932328 18.0353L7.89045 25.0257V21.8816L2.51042 16.4976C2.41716 16.4054 2.34308 16.2956 2.29247 16.1747Z" fill="#F2F6FA"/>
<path fill-rule="evenodd" clip-rule="evenodd" d="M23.7198 12.7282L23.7803 12.7888L24.5189 13.5273C24.8164 13.8239 25.0523 14.1765 25.2131 14.5646C25.3618 14.9291 25.4437 15.3174 25.4553 15.7108V15.7955C25.4532 16.211 25.371 16.6221 25.2131 17.0064C25.0552 17.3939 24.8205 17.7454 24.523 18.0396L17.5527 25.026V21.8818L22.9368 16.4978C23.0301 16.4056 23.1041 16.2959 23.1548 16.175C23.2042 16.0545 23.2302 15.9258 23.2314 15.7955V15.7108C23.2241 15.6079 23.1994 15.507 23.1587 15.4122C23.1092 15.2916 23.0366 15.1819 22.9449 15.0893L22.2062 14.3507L20.5233 12.6677L13.8234 5.96783L15.3854 4.40588L22.0852 11.1058L22.1458 11.1663L23.7198 12.7282ZM0.0282526 9.64464V9.68912C0.0301938 10.5329 0.366969 11.3414 0.964608 11.9371L8.52408 19.5127C8.81272 19.8047 9.0392 20.1521 9.19008 20.5339C9.26856 20.7434 9.328 20.9595 9.3676 21.1797C9.40528 21.4146 9.42416 21.6521 9.42416 21.89V31.2334H11.6278V21.89C11.63 21.5154 11.599 21.1412 11.535 20.772C11.472 20.419 11.3746 20.073 11.2444 19.7388C10.9864 19.068 10.5903 18.4589 10.082 17.9508L4.92396 12.7888L4.86342 12.7282L3.30147 11.1663L3.24094 11.1058L2.50638 10.3711C2.32054 10.183 2.21632 9.92928 2.21632 9.66488C2.21632 9.4004 2.32054 9.14664 2.50638 8.95856L8.96408 2.50087C9.056 2.40838 9.16592 2.33561 9.28688 2.28696C9.40776 2.23645 9.53736 2.21045 9.66832 2.21045C9.79928 2.21045 9.92888 2.23645 10.0498 2.28696C10.1707 2.33561 10.2806 2.40838 10.3726 2.50087L11.1112 3.23947L11.1717 3.30001L12.7862 1.68559L12.7256 1.74614L12.6651 1.68559L11.9265 0.947C11.6298 0.649526 11.2773 0.413607 10.8893 0.252802C10.102 -0.0712464 9.21856 -0.0712464 8.43128 0.252802C8.0432 0.413607 7.69066 0.649526 7.39402 0.947L0.93636 7.40466C0.338718 8.0004 0.00194123 8.80896 0 9.6528L0.0282526 9.64464Z" fill="#F2F6FA"/>
<path fill-rule="evenodd" clip-rule="evenodd" d="M23.7206 12.7286L23.7812 12.789L24.5197 13.5277C24.8172 13.8243 25.0531 14.1768 25.2139 14.565C25.3625 14.9295 25.4445 15.3178 25.4561 15.7112V15.7959C25.454 16.2114 25.3718 16.6225 25.2139 17.0067C25.0561 17.3943 24.8213 17.7458 24.5237 18.04L17.5535 25.0264V21.8822L22.9376 16.4982C23.0309 16.406 23.1049 16.2962 23.1555 16.1754C23.2049 16.0549 23.231 15.9261 23.2322 15.7959V15.7112C23.2249 15.6082 23.2003 15.5074 23.1596 15.4126C23.11 15.292 23.0373 15.1823 22.9457 15.0896L22.2071 14.351L20.5241 12.668L13.8242 5.9682L15.3861 4.40625L22.086 11.106L22.1465 11.1666L23.7206 12.7286Z" fill="#F2F6FA"/>
</g>
</svg>
