<svg width="141" height="28" viewBox="0 0 141 28" fill="none" xmlns="http://www.w3.org/2000/svg">
<g clip-path="url(#clip0_7019_5563)">
<mask id="mask0_7019_5563" style="mask-type:luminance" maskUnits="userSpaceOnUse" x="0" y="0" width="141" height="28">
<path d="M140.875 0.839844H0V27.8743H140.875V0.839844Z" fill="white"/>
</mask>
<g mask="url(#mask0_7019_5563)">
<path d="M14.1289 24.7707C12.8237 25.9282 11.5393 26.5179 10.2756 26.5179H6.60868V15.2264H9.61266C11.8501 15.2264 13.3003 16.3402 13.9633 18.568H14.1082V11.7974H13.9633C13.321 13.6975 11.8708 14.6585 9.61266 14.6585H6.60868V4.30613H9.55045C11.0421 4.30613 12.3266 4.83031 13.3624 5.8568C14.3983 6.88332 15.2891 8.39029 16.0764 10.3778L16.2006 10.3123L15.9313 3.73828H0V3.89117C0.9737 4.24061 1.4709 5.79129 1.4709 8.54319V22.2809C1.4709 25.0764 0.9737 26.6271 0 26.9328V27.0858H16.8014L17.4644 20.4463L17.3401 20.3807C16.5114 22.1279 15.4341 23.5913 14.1289 24.7707Z" fill="#F2F6FA"/>
<path d="M34.6788 9.98438H29.5409V10.1591C30.0381 10.2902 30.4317 10.5305 30.7632 10.9017C31.0946 11.273 31.3226 11.7535 31.4468 12.3651C31.5712 12.9766 31.4883 13.6973 31.1983 14.5272L28.6708 21.8656L25.6255 13.5663C24.9003 11.6006 25.1489 10.4649 26.4126 10.1591V10.0062H18.043V10.1591C18.7473 10.2683 19.3896 11.0327 19.9697 12.4743L25.874 27.1073H27.5106L27.6971 26.4958L31.9441 14.0904C32.317 13.0639 32.752 12.1903 33.2701 11.4477C33.7881 10.7051 34.2645 10.2683 34.6788 10.1591V9.98438Z" fill="#F2F6FA"/>
<path d="M44.936 23.7224C43.3199 23.7224 41.9528 23.1545 40.8753 21.997C39.7981 20.8394 39.1974 19.2451 39.0937 17.1921H48.5614C48.6236 17.0611 48.6443 16.6461 48.6443 15.9472C48.6443 14.1563 48.0643 12.6711 46.9039 11.4917C45.7437 10.3123 44.2107 9.72266 42.284 9.72266C40.0466 9.72266 38.1823 10.5308 36.6905 12.1688C35.199 13.8068 34.4531 15.9691 34.4531 18.6336C34.4531 21.2108 35.199 23.3293 36.7112 24.9455C38.2235 26.5617 40.0881 27.3916 42.3255 27.3916C44.1486 27.3916 45.6194 26.8893 46.7176 25.8846C47.8155 24.88 48.5199 23.7224 48.8101 22.412L48.7272 22.3465C47.8155 23.2637 46.5518 23.7224 44.936 23.7224ZM39.073 16.4932C39.073 14.6586 39.3837 13.1516 40.026 11.9941C40.6476 10.8365 41.4141 10.2687 42.3049 10.2687C43.1129 10.2687 43.7343 10.6618 44.1486 11.448C44.5629 12.2344 44.7703 13.3482 44.7703 14.7896C44.7703 15.4885 44.7287 16.0783 44.625 16.5587H39.0937V16.4932H39.073Z" fill="#F2F6FA"/>
<path d="M57.7605 25.732C57.491 25.0769 57.3666 24.0286 57.3666 22.6089V15.9257C57.3666 13.0865 57.45 11.0334 57.6361 9.78855L57.5532 9.70117C55.8546 10.269 53.7415 10.5967 51.2138 10.6622L51.1516 10.7932C51.6491 11.0552 52.0011 11.5577 52.2499 12.3221C52.4981 13.0865 52.6226 14.2877 52.6226 15.9257V22.6089C52.6226 24.1596 52.5194 25.208 52.312 25.7976C52.1047 26.3873 51.7113 26.7804 51.1309 26.977V27.1081H59.1692V26.977C58.4856 26.7804 58.0092 26.3654 57.7605 25.732Z" fill="#F2F6FA"/>
<path d="M132.961 25.732C132.692 25.0768 132.568 24.0286 132.568 22.6089V15.9257C132.568 13.0865 132.651 11.0334 132.838 9.78855L132.755 9.70117C131.056 10.269 128.942 10.5966 126.415 10.6622L126.353 10.7932C126.85 11.0552 127.203 11.5576 127.451 12.3221C127.7 13.0865 127.824 14.2877 127.824 15.9257V22.6089C127.824 24.1596 127.721 25.208 127.513 25.7976C127.306 26.3873 126.912 26.7804 126.332 26.977V27.1081H134.37V26.977C133.686 26.7804 133.21 26.3654 132.961 25.732Z" fill="#F2F6FA"/>
<path d="M85.0837 25.7317C84.6483 25.0764 84.0895 23.7879 83.3432 21.8659L76.6104 3.73828H73.8965L66.7907 21.9533C66.2728 23.3292 65.6721 24.4431 65.0502 25.3386C64.408 26.234 63.8073 26.7582 63.248 26.9328V27.0858H69.815V26.9328C68.7794 26.7363 68.0335 26.1684 67.5986 25.2294C67.1426 24.2902 67.1845 23.0671 67.6816 21.5819L68.6343 19.1358H76.8588L77.9155 22.1279C78.8686 24.8581 78.5784 26.4742 77.0246 26.9328V27.0858H86.451V26.9328C85.9746 26.78 85.4982 26.365 85.0837 25.7317ZM68.883 18.4588L72.902 8.12821L76.6104 18.4588H68.883Z" fill="#F2F6FA"/>
<path d="M93.8045 7.84494C93.8045 5.61719 93.9699 4.08837 94.3225 3.25843C94.6742 2.4285 95.1922 2.01353 95.8756 2.01353C97.3885 2.01353 98.5067 3.84813 99.191 7.53919L99.3152 7.56102L100.785 3.1274C100.288 2.62506 99.5839 2.23193 98.6931 1.90432C97.7822 1.57672 96.8495 1.42383 95.8756 1.42383C93.7214 1.42383 92.0431 1.948 90.8417 2.97451C89.6404 4.02286 89.0392 5.63905 89.0392 7.84494V9.98534H87.9411V10.5313H89.0392V22.5873C89.0392 24.138 88.936 25.1863 88.7286 25.776C88.5212 26.3657 88.1485 26.7588 87.5684 26.9554V27.0864H95.5449V26.9554C94.9227 26.7807 94.4669 26.3657 94.1982 25.7104C93.9287 25.0552 93.8045 24.0069 93.8045 22.6092V10.5313H97.5749V9.98534H93.8045V7.84494Z" fill="#F2F6FA"/>
<path d="M107.064 24.8804C105.282 24.8804 104.392 23.5918 104.392 20.9928V10.5312H108.659V9.98525H104.392V6.40339L104.247 6.33789C103.645 6.94939 102.776 7.67011 101.636 8.47824C100.496 9.28631 99.5233 9.85423 98.7148 10.2036V10.5531H99.8751V21.4952C99.8751 23.4171 100.31 24.8804 101.16 25.8851C102.029 26.8897 103.294 27.3921 104.971 27.3921C106.152 27.3921 107.125 27.0427 107.914 26.3656C108.7 25.6885 109.197 24.8586 109.364 23.9195L109.28 23.8539C108.825 24.531 108.079 24.8804 107.064 24.8804Z" fill="#F2F6FA"/>
<path d="M120.136 23.7224C118.52 23.7224 117.152 23.1545 116.076 21.997C114.998 20.8394 114.397 19.2451 114.293 17.1921H123.761C123.824 17.0611 123.844 16.6461 123.844 15.9472C123.844 14.1563 123.264 12.6711 122.104 11.4917C120.943 10.3123 119.41 9.72266 117.484 9.72266C115.246 9.72266 113.382 10.5308 111.89 12.1688C110.399 13.8068 109.652 15.9691 109.652 18.6336C109.652 21.2108 110.399 23.3293 111.912 24.9455C113.424 26.5617 115.287 27.3916 117.525 27.3916C119.348 27.3916 120.819 26.8893 121.917 25.8846C123.015 24.88 123.72 23.7224 124.009 22.412L123.926 22.3465C122.994 23.2637 121.731 23.7224 120.136 23.7224ZM114.252 16.4932C114.252 14.6586 114.563 13.1516 115.205 11.9941C115.826 10.8365 116.593 10.2687 117.484 10.2687C118.291 10.2687 118.913 10.6618 119.328 11.448C119.742 12.2344 119.949 13.3482 119.949 14.7896C119.949 15.4885 119.907 16.0783 119.804 16.5587H114.272V16.4932H114.252Z" fill="#F2F6FA"/>
<path d="M65.6728 12.9118L63.2695 11.514L61.9436 8.98047L60.6385 11.514L58.2148 12.9118L60.6385 14.3096L61.9436 16.8431L63.2695 14.3096L65.6728 12.9118Z" fill="#F2F6FA"/>
<path d="M138.473 11.514L137.147 8.98047L135.842 11.514L133.418 12.9118L135.842 14.3095L137.147 16.8431L138.473 14.3095L140.876 12.9118L138.473 11.514Z" fill="#F2F6FA"/>
</g>
</g>
<defs>
<clipPath id="clip0_7019_5563">
<rect width="140.875" height="28" fill="white"/>
</clipPath>
</defs>
</svg>
