<svg width="161" height="29" viewBox="0 0 161 29" fill="none" xmlns="http://www.w3.org/2000/svg">
<mask id="mask0_7013_5667" style="mask-type:luminance" maskUnits="userSpaceOnUse" x="0" y="0" width="161" height="29">
<path d="M161 0.869141H0V28.8691H161V0.869141Z" fill="white"/>
</mask>
<g mask="url(#mask0_7013_5667)">
<path d="M16.1473 25.6546C14.6557 26.8535 13.1878 27.4643 11.7435 27.4643H7.55278V15.7695H10.9859C13.543 15.7695 15.2003 16.9231 15.958 19.2304H16.1236V12.218H15.958C15.224 14.186 13.5666 15.1813 10.9859 15.1813H7.55278V4.45922H10.9148C12.6195 4.45922 14.0875 5.00212 15.2713 6.06527C16.4552 7.12845 17.4732 8.68924 18.373 10.7477L18.515 10.6799L18.2072 3.87109H0V4.02944C1.1128 4.39136 1.68103 5.99742 1.68103 8.8476V23.0759C1.68103 25.9713 1.1128 27.5774 0 27.894V28.0524H19.2016L19.9593 21.1758L19.8172 21.1079C18.8702 22.9175 17.639 24.4331 16.1473 25.6546Z" fill="#F2F6FA"/>
<path d="M39.6335 10.3398H33.7616V10.5208C34.3298 10.6565 34.7797 10.9054 35.1585 11.2899C35.5373 11.6744 35.7978 12.1721 35.9398 12.8055C36.0819 13.4389 35.9872 14.1853 35.6558 15.0449L32.7672 22.6454L29.2868 14.0496C28.4581 12.0137 28.7422 10.8375 30.1864 10.5208V10.3624H20.6211V10.5208C21.4261 10.6339 22.1601 11.4256 22.8231 12.9186L29.5709 28.0743H31.4413L31.6544 27.4409L36.5081 14.5925C36.9343 13.5293 37.4314 12.6245 38.0235 11.8554C38.6155 11.0863 39.16 10.6339 39.6335 10.5208V10.3398Z" fill="#F2F6FA"/>
<path d="M51.3554 24.5681C49.5085 24.5681 47.946 23.98 46.7146 22.7811C45.4835 21.5822 44.797 19.9309 44.6785 17.8046H55.4987C55.5698 17.6689 55.5935 17.2391 55.5935 16.5153C55.5935 14.6604 54.9306 13.1221 53.6045 11.9006C52.2785 10.6791 50.5265 10.0684 48.3246 10.0684C45.7675 10.0684 43.6369 10.9054 41.932 12.6019C40.2274 14.2984 39.375 16.5379 39.375 19.2976C39.375 21.9668 40.2274 24.161 41.9556 25.8349C43.684 27.5088 45.815 28.3684 48.372 28.3684C50.4555 28.3684 52.1365 27.8481 53.3915 26.8076C54.6463 25.7671 55.4513 24.5681 55.783 23.2109L55.6882 23.1431C54.6463 24.0931 53.202 24.5681 51.3554 24.5681ZM44.6549 17.0808C44.6549 15.1806 45.01 13.6198 45.744 12.421C46.4544 11.222 47.3304 10.6339 48.3485 10.6339C49.2719 10.6339 49.982 11.0411 50.4555 11.8554C50.929 12.6698 51.166 13.8234 51.166 15.3163C51.166 16.0402 51.1185 16.651 51 17.1486H44.6785V17.0808H44.6549Z" fill="#F2F6FA"/>
<path d="M66.0113 26.6503C65.7033 25.9718 65.5612 24.886 65.5612 23.4156V16.4937C65.5612 13.5531 65.6565 11.4267 65.8692 10.1374L65.7744 10.0469C63.8332 10.635 61.4182 10.9744 58.5294 11.0422L58.4583 11.1779C59.0269 11.4493 59.4292 11.9697 59.7135 12.7614C59.9972 13.5531 60.1394 14.7972 60.1394 16.4937V23.4156C60.1394 25.0217 60.0215 26.1075 59.7845 26.7182C59.5476 27.329 59.098 27.7361 58.4346 27.9397V28.0755H67.6213V27.9397C66.84 27.7361 66.2956 27.3063 66.0113 26.6503Z" fill="#F2F6FA"/>
<path d="M151.955 26.6503C151.648 25.9717 151.506 24.886 151.506 23.4156V16.4937C151.506 13.5531 151.601 11.4267 151.814 10.1374L151.719 10.0469C149.778 10.635 147.362 10.9743 144.474 11.0422L144.403 11.1779C144.971 11.4493 145.374 11.9696 145.658 12.7614C145.942 13.5531 146.084 14.7972 146.084 16.4937V23.4156C146.084 25.0217 145.966 26.1075 145.729 26.7182C145.492 27.329 145.042 27.7361 144.379 27.9397V28.0755H153.565V27.9397C152.784 27.7361 152.24 27.3063 151.955 26.6503Z" fill="#F2F6FA"/>
<path d="M97.2392 26.65C96.7416 25.9713 96.103 24.6367 95.2501 22.6461L87.5555 3.87109H84.4539L76.3329 22.7366C75.7411 24.1617 75.0546 25.3154 74.3438 26.2428C73.6099 27.1702 72.9233 27.7131 72.2842 27.894V28.0524H79.7893V27.894C78.6057 27.6905 77.7533 27.1023 77.2563 26.1297C76.7351 25.157 76.783 23.8902 77.3511 22.352L78.4399 19.8185H87.8393L89.047 22.9175C90.1363 25.7452 89.8046 27.419 88.0288 27.894V28.0524H98.8018V27.894C98.2574 27.7357 97.713 27.3059 97.2392 26.65ZM78.7242 19.1173L83.3173 8.4178L87.5555 19.1173H78.7242Z" fill="#F2F6FA"/>
<path d="M107.206 8.1231C107.206 5.81578 107.395 4.23236 107.798 3.37278C108.2 2.51321 108.792 2.08342 109.573 2.08342C111.302 2.08342 112.58 3.98354 113.362 7.80643L113.504 7.82904L115.184 3.23707C114.616 2.71679 113.811 2.30962 112.793 1.97031C111.752 1.63101 110.686 1.47266 109.573 1.47266C107.111 1.47266 105.193 2.01555 103.82 3.07872C102.447 4.16451 101.76 5.83843 101.76 8.1231V10.3399H100.505V10.9054H101.76V23.3919C101.76 24.998 101.642 26.0838 101.405 26.6945C101.168 27.3053 100.742 27.7124 100.079 27.916V28.0517H109.195V27.916C108.484 27.7351 107.963 27.3053 107.656 26.6266C107.348 25.948 107.206 24.8622 107.206 23.4146V10.9054H111.515V10.3399H107.206V8.1231Z" fill="#F2F6FA"/>
<path d="M122.359 25.7672C120.322 25.7672 119.305 24.4326 119.305 21.7408V10.9056H124.182V10.3401H119.305V6.63034L119.139 6.5625C118.452 7.19584 117.458 7.9423 116.156 8.77929C114.853 9.61622 113.741 10.2044 112.817 10.5663V10.9282H114.143V22.2611C114.143 24.2517 114.64 25.7672 115.611 26.8078C116.605 27.8483 118.05 28.3686 119.967 28.3686C121.317 28.3686 122.429 28.0067 123.33 27.3055C124.229 26.6042 124.797 25.7446 124.987 24.772L124.892 24.7041C124.371 25.4053 123.519 25.7672 122.359 25.7672Z" fill="#F2F6FA"/>
<path d="M137.299 24.5681C135.452 24.5681 133.889 23.98 132.659 22.7811C131.427 21.5822 130.741 19.9309 130.622 17.8046H141.442C141.514 17.6689 141.537 17.2391 141.537 16.5153C141.537 14.6604 140.874 13.1221 139.548 11.9006C138.222 10.6791 136.47 10.0684 134.269 10.0684C131.711 10.0684 129.58 10.9054 127.875 12.6019C126.171 14.2984 125.318 16.5379 125.318 19.2976C125.318 21.9668 126.171 24.161 127.9 25.8349C129.628 27.5088 131.758 28.3684 134.315 28.3684C136.399 28.3684 138.08 27.8481 139.335 26.8076C140.59 25.7671 141.395 24.5681 141.726 23.2109L141.631 23.1431C140.566 24.0931 139.122 24.5681 137.299 24.5681ZM130.575 17.0808C130.575 15.1806 130.93 13.6198 131.664 12.421C132.374 11.222 133.25 10.6339 134.269 10.6339C135.191 10.6339 135.902 11.0411 136.376 11.8554C136.849 12.6698 137.086 13.8234 137.086 15.3163C137.086 16.0402 137.038 16.651 136.92 17.1486H130.598V17.0808H130.575Z" fill="#F2F6FA"/>
<path d="M75.0547 13.3705L72.308 11.9228L70.7927 9.29883L69.3012 11.9228L66.5312 13.3705L69.3012 14.8182L70.7927 17.4422L72.308 14.8182L75.0547 13.3705Z" fill="#F2F6FA"/>
<path d="M158.255 11.9228L156.74 9.29883L155.248 11.9228L152.478 13.3705L155.248 14.8181L156.74 17.4422L158.255 14.8181L161.002 13.3705L158.255 11.9228Z" fill="#F2F6FA"/>
</g>
</svg>
