<svg width="112" height="17" viewBox="0 0 112 17" fill="none" xmlns="http://www.w3.org/2000/svg">
<path d="M5.01034 5.15499C6.57608 5.15499 7.33657 5.79936 7.33657 6.88813C7.33657 7.95468 6.68791 8.59906 5.03271 8.59906C3.37751 8.59906 2.77358 7.93246 2.77358 6.88813C2.77358 5.8438 3.39988 5.15499 5.01034 5.15499ZM5.18928 15.1761C2.50517 15.1761 1.87888 14.8873 1.87888 14.0873C1.87888 13.5763 2.37097 13.0652 3.46698 13.0652H7.49315C8.36548 13.0652 8.65626 13.4652 8.65626 13.9318C8.65626 14.7762 8.05234 15.1761 5.18928 15.1761ZM5.23402 16.9537C9.21545 16.9759 10.5799 15.8872 10.5799 13.9318C10.5799 12.3098 9.64044 11.3321 7.40368 11.3321C6.24056 11.3321 4.8985 11.3988 3.64592 11.3988C3.01963 11.3988 2.72885 11.2432 2.72885 10.8433C2.72885 10.6655 2.84069 10.5322 2.97489 10.31L3.19857 9.95447C3.73539 10.11 4.33932 10.1767 5.01034 10.1767C7.8734 10.1767 9.41676 9.22121 9.41676 7.37697C9.41676 5.97712 8.43259 5.42163 7.13527 5.17721V5.15499C7.8734 5.19943 8.38785 5.19943 8.90231 5.19943H10.2667V3.17743H5.12218C2.2815 3.17743 0.603925 4.46618 0.603925 6.75482C0.603925 8.3102 1.45389 9.42119 3.01963 9.91003L2.21439 10.2655C1.36442 10.5544 0.894704 11.1099 0.894704 11.6432C0.894704 12.4209 1.47626 12.9097 2.50517 13.043C0.872337 13.243 0 13.9318 0 14.8206C0 16.1316 1.14075 16.9759 5.23402 16.9537Z" fill="white"/>
<path d="M13.7286 13.6207V8.33242C13.7286 6.5104 14.4668 5.86602 16.3456 5.86602H17.3746V3.17743H16.7706C15.1825 3.17743 14.2431 3.88846 13.7734 6.59928H13.7286V3.17743H11.3129V13.6207H13.7286Z" fill="white"/>
<path d="M22.9605 13.9096C26.2933 13.9096 28.3287 11.7987 28.3287 8.37686C28.3287 4.93279 26.1815 2.91079 22.9605 2.91079C19.7172 2.91079 17.5699 4.93279 17.5699 8.37686C17.5699 11.7987 19.583 13.9096 22.9605 13.9096ZM22.9605 5.08833C24.817 5.08833 25.9354 6.35486 25.9354 8.35464C25.9354 10.3766 24.8618 11.7098 22.9382 11.7098C21.0369 11.7098 19.9856 10.3766 19.9856 8.35464C19.9856 6.35486 21.0816 5.08833 22.9605 5.08833Z" fill="white"/>
<path d="M36.3785 13.6207H38.7942V3.17743H36.3785V9.35453C36.3785 10.8433 35.439 11.732 33.8957 11.732C32.2628 11.732 31.7036 10.6211 31.7036 9.35453V3.17743H29.2879V9.99891C29.2879 12.2431 30.2497 13.9096 32.7773 13.9096C34.5443 13.9096 35.8864 12.9986 36.3561 10.7544H36.3785V13.6207Z" fill="white"/>
<path d="M42.7803 7.44363C42.7803 5.9549 43.7197 5.06611 45.2631 5.06611C46.8959 5.06611 47.4551 6.1771 47.4551 7.44363V13.6207H49.8708V6.82148C49.8708 4.55506 48.909 2.91079 46.3815 2.91079C44.6145 2.91079 43.2724 3.8218 42.8027 6.04378H42.7803V3.17743H40.3646V13.6207H42.7803V7.44363Z" fill="white"/>
<path d="M55.9595 11.732C54.0807 11.732 53.2307 10.5322 53.2307 8.44352C53.2307 6.2882 54.1254 5.04389 55.9595 5.04389C57.6819 5.04389 58.7555 6.33264 58.7555 8.33242V8.51018C58.7555 10.5766 57.6819 11.732 55.9595 11.732ZM58.7555 13.6207H61.1712V0H58.7555V6.1771H58.7331C58.2634 4.02178 57.0779 2.88857 54.9754 2.91079C52.336 2.88857 50.8374 4.97723 50.8374 8.44352C50.8374 11.8209 52.2465 13.9096 54.9754 13.9096C57.0108 13.9096 58.241 12.7764 58.7108 10.6655H58.7555V13.6207Z" fill="white"/>
<path d="M70.3372 7.53251L72.6634 7.15477C72.2384 4.46618 70.7845 2.91079 67.6307 2.91079C64.4321 2.91079 62.2178 4.95501 62.2178 8.4213C62.2178 11.9765 64.3874 13.9096 67.6978 13.9096C70.7398 13.9096 72.2608 12.2431 72.6858 9.57673L70.3819 9.11011C70.0464 10.5988 69.4201 11.7098 67.6531 11.7098C65.8637 11.7098 64.6782 10.5322 64.6782 8.39908C64.6782 6.15488 65.886 5.08833 67.6083 5.08833C69.2412 5.08833 70.024 6.066 70.3372 7.53251Z" fill="white"/>
<path d="M78.6392 13.9096C81.972 13.9096 84.0075 11.7987 84.0075 8.37686C84.0075 4.93279 81.8602 2.91079 78.6392 2.91079C75.3959 2.91079 73.2487 4.93279 73.2487 8.37686C73.2487 11.7987 75.2617 13.9096 78.6392 13.9096ZM78.6392 5.08833C80.4958 5.08833 81.6141 6.35486 81.6141 8.35464C81.6141 10.3766 80.5405 11.7098 78.6169 11.7098C76.7156 11.7098 75.6644 10.3766 75.6644 8.35464C75.6644 6.35486 76.7604 5.08833 78.6392 5.08833Z" fill="white"/>
<path d="M90.7599 13.6207L94.8755 3.17743H92.348L90.8941 7.22143C90.402 8.62128 89.8875 10.11 89.4178 11.4432H89.3731C88.9257 10.11 88.3889 8.62128 87.8968 7.22143L86.4653 3.17743H83.8483L88.0087 13.6207H90.7599Z" fill="white"/>
<path d="M99.9781 4.93279C101.633 4.93279 102.483 5.77715 102.617 7.39919H97.1151C97.3835 5.71049 98.39 4.93279 99.9781 4.93279ZM100.045 13.8874C102.819 13.8874 104.25 12.5097 104.787 10.51L102.685 9.91003C102.371 10.9766 101.745 11.7987 100.068 11.7987C98.3453 11.7987 97.3164 10.9321 97.0927 9.17677H104.81C104.854 8.62128 104.854 8.1991 104.854 7.77693C104.854 4.91057 103.244 2.91079 100.045 2.91079C96.7795 2.91079 94.677 4.99945 94.677 8.5324C94.677 11.9765 96.8243 13.8874 100.045 13.8874Z" fill="white"/>
<path d="M108.354 13.6207V8.33242C108.354 6.5104 109.092 5.86602 110.971 5.86602H112V3.17743H111.396C109.808 3.17743 108.869 3.88846 108.399 6.59928H108.354V3.17743H105.938V13.6207H108.354Z" fill="white"/>
</svg>
