<svg width="64" height="32" viewBox="0 0 64 32" fill="none" xmlns="http://www.w3.org/2000/svg">
<path d="M16 32C24.8366 32 32 24.8366 32 16C32 7.16344 24.8366 0 16 0V32Z" fill="#E0E5EA"/>
<path d="M16 26.6673C21.891 26.6673 26.6667 21.8917 26.6667 16.0007C26.6667 10.1096 21.891 5.33398 16 5.33398V26.6673Z" fill="#EAEFF3"/>
<path d="M16 21.3327C18.9455 21.3327 21.3333 18.9449 21.3333 15.9994C21.3333 13.0538 18.9455 10.666 16 10.666V21.3327Z" fill="#F2F6FA"/>
<path d="M16 5.72205e-06C7.16345 4.94953e-06 3.12495e-06 7.16345 2.35244e-06 16C1.57992e-06 24.8366 7.16344 32 16 32L16 5.72205e-06Z" fill="#E0E5EA"/>
<path d="M16 5.33268C10.109 5.33268 5.33333 10.1083 5.33333 15.9993C5.33333 21.8904 10.109 26.666 16 26.666L16 5.33268Z" fill="#EAEFF3"/>
<path d="M16 10.6673C13.0545 10.6673 10.6667 13.0551 10.6667 16.0006C10.6667 18.9462 13.0545 21.334 16 21.334L16 10.6673Z" fill="#F2F6FA"/>
<path d="M63.0086 24.1779H59.535V20.6284C59.535 18.5316 57.8744 16.7674 55.769 16.7211C53.6044 16.6706 51.8252 18.4095 51.8252 20.5527V24.1779H48.3516V20.6537C48.3516 16.5653 51.6981 13.197 55.8114 13.2727C59.7934 13.3443 63.0086 16.5822 63.0086 20.5569V24.1779V24.1779Z" fill="#F2F6FA"/>
<path d="M40.6435 8.17773H37.1699V24.1775H40.6435V8.17773Z" fill="#F2F6FA"/>
<path d="M46.249 13.4629H42.7754V24.1786H46.249V13.4629Z" fill="#F2F6FA"/>
<path d="M44.5122 11.6303C45.4714 11.6303 46.249 10.8574 46.249 9.90403C46.249 8.95062 45.4714 8.17773 44.5122 8.17773C43.553 8.17773 42.7754 8.95062 42.7754 9.90403C42.7754 10.8574 43.553 11.6303 44.5122 11.6303Z" fill="#F2F6FA"/>
</svg>
