<svg width="80" height="41" viewBox="0 0 80 41" fill="none" xmlns="http://www.w3.org/2000/svg">
<path d="M20.3145 40.6294C31.5339 40.6294 40.6291 31.5342 40.6291 20.3147C40.6291 9.09519 31.5339 0 20.3145 0V40.6294Z" fill="#E0E5EA"/>
<path d="M20.3145 33.8577C27.7941 33.8577 33.8576 27.7943 33.8576 20.3146C33.8576 12.8349 27.7941 6.77148 20.3145 6.77148V33.8577Z" fill="#EAEFF3"/>
<path d="M20.3145 27.0861C24.0543 27.0861 27.086 24.0544 27.086 20.3145C27.086 16.5747 24.0543 13.543 20.3145 13.543V27.0861Z" fill="#F2F6FA"/>
<path d="M20.3145 -0.000461578C9.09497 -0.000462559 -0.000228032 9.09473 -0.000229013 20.3142C-0.000229994 31.5337 9.09496 40.6289 20.3145 40.6289L20.3145 -0.000461578Z" fill="#E0E5EA"/>
<path d="M20.3145 6.77117C12.8348 6.77117 6.77133 12.8346 6.77133 20.3143C6.77133 27.794 12.8348 33.8574 20.3145 33.8574L20.3145 6.77117Z" fill="#EAEFF3"/>
<path d="M20.3145 13.5428C16.5746 13.5428 13.5429 16.5745 13.5429 20.3144C13.5429 24.0542 16.5746 27.0859 20.3145 27.0859L20.3145 13.5428Z" fill="#F2F6FA"/>
<path d="M80.0002 30.6971H75.5898V26.1905C75.5898 23.5282 73.4815 21.2883 70.8084 21.2295C68.06 21.1654 65.801 23.3732 65.801 26.0943V30.6971H61.3906V26.2226C61.3906 21.0317 65.6396 16.755 70.8621 16.8512C75.9179 16.9421 80.0002 21.0531 80.0002 26.0996V30.6971V30.6971Z" fill="#F2F6FA"/>
<path d="M51.6047 10.3809H47.1943V30.6953H51.6047V10.3809Z" fill="#F2F6FA"/>
<path d="M58.719 17.0918H54.3086V30.6971H58.719V17.0918Z" fill="#F2F6FA"/>
<path d="M56.5138 14.7645C57.7317 14.7645 58.719 13.7832 58.719 12.5727C58.719 11.3622 57.7317 10.3809 56.5138 10.3809C55.2959 10.3809 54.3086 11.3622 54.3086 12.5727C54.3086 13.7832 55.2959 14.7645 56.5138 14.7645Z" fill="#F2F6FA"/>
</svg>
