<svg width="125" height="36" viewBox="0 0 125 36" fill="none" xmlns="http://www.w3.org/2000/svg">
<g clip-path="url(#clip0_7558_1103)">
<path d="M32.4281 21.6C30.4381 21.6 28.825 19.9882 28.825 18C28.825 16.0118 30.4381 14.4 32.4281 14.4C34.418 14.4 36.0312 16.0118 36.0312 18C36.0312 19.9882 34.418 21.6 32.4281 21.6Z" fill="#F2F6FA"/>
<path d="M18.0156 7.2C16.0257 7.2 14.4125 5.58822 14.4125 3.6C14.4125 1.61178 16.0257 2.94846e-07 18.0156 0C20.0055 -2.94846e-07 21.6187 1.61177 21.6187 3.6C21.6187 5.58822 20.0056 7.2 18.0156 7.2Z" fill="#F2F6FA"/>
<path d="M3.60312 21.6C1.61317 21.6 2.95102e-07 19.9882 0 18C-2.95102e-07 16.0118 1.61317 14.4 3.60312 14.4C5.59307 14.4 7.20624 16.0118 7.20624 18C7.20624 19.9882 5.59307 21.6 3.60312 21.6Z" fill="#F2F6FA"/>
<path d="M18.0156 36C16.0257 36 14.4125 34.3882 14.4125 32.4C14.4125 30.4118 16.0257 28.8 18.0156 28.8C20.0055 28.8 21.6187 30.4118 21.6187 32.4C21.6187 34.3882 20.0056 36 18.0156 36Z" fill="#F2F6FA"/>
<path d="M21.6187 7.2V14.4H28.825V7.2H21.6187Z" fill="#F2F6FA"/>
<path d="M7.20624 14.4H14.4125V7.2H7.20624V14.4Z" fill="#F2F6FA"/>
<path d="M14.4125 28.8V21.6H7.20624V28.8H14.4125Z" fill="#F2F6FA"/>
<path d="M28.825 21.6H21.6187L21.6187 28.8H28.825V21.6Z" fill="#F2F6FA"/>
</g>
<path d="M53.0055 12.0137C49.9644 12.0137 47.9811 14.4754 47.1878 16.2385C47.0556 16.5047 46.9564 16.7043 46.692 16.6377C46.2622 16.5379 46.4606 16.0722 46.5928 15.7728C46.9233 15.0742 47.1217 14.4421 47.1217 13.3776V12.2798H42.8906V29.8446H47.1217V22.6923C47.1217 18.6337 49.3694 15.8726 51.8155 15.8726C54.0302 15.8726 55.0549 16.9704 55.0549 20.9291V29.8446H59.2859V19.4654C59.2859 14.4754 56.7737 12.0137 53.0055 12.0137Z" fill="#F2F6FA"/>
<path d="M70.1212 12.0137C64.6672 12.0137 61.3947 16.0722 61.3947 21.0622C61.3947 26.0522 64.6672 30.1108 70.1212 30.1108C75.5753 30.1108 78.8478 26.0522 78.8478 21.0622C78.8478 16.0722 75.5753 12.0137 70.1212 12.0137ZM70.1212 26.2518C67.2455 26.2518 65.6258 23.9231 65.6258 21.0622C65.6258 18.2013 67.2455 15.8726 70.1212 15.8726C72.997 15.8726 74.6167 18.2013 74.6167 21.0622C74.6167 23.9231 72.997 26.2518 70.1212 26.2518Z" fill="#F2F6FA"/>
<path d="M85.2124 5.89258H80.9814V29.8446H85.2124V29.0795C85.2124 28.4142 85.0471 27.8819 84.7496 27.2831C84.5844 26.9504 84.4521 26.6178 84.8157 26.4847C85.1132 26.3849 85.2455 26.7176 85.3116 26.8174C86.3693 28.7468 88.1873 30.1108 90.8317 30.1108C95.3603 30.1108 98.4344 26.1188 98.4344 21.0622C98.4344 16.0057 95.3603 12.0137 90.8317 12.0137C88.1212 12.0137 86.3693 13.4109 85.3116 15.2738C85.2455 15.4069 85.0471 15.8393 84.7166 15.673C84.386 15.5067 84.6174 15.1075 84.7496 14.7748C85.0471 14.176 85.2124 13.6437 85.2124 12.9451V5.89258ZM89.8401 26.2518C87.0635 26.2518 85.2124 23.8566 85.2124 21.0622C85.2124 18.2678 87.0635 15.8726 89.8401 15.8726C92.8151 15.8726 94.2034 18.2678 94.2034 21.0622C94.2034 23.8566 92.8151 26.2518 89.8401 26.2518Z" fill="#F2F6FA"/>
<path d="M100.834 5.89258V29.8446H105.065V5.89258H100.834Z" fill="#F2F6FA"/>
<path d="M124.125 20.8293C124.125 14.4421 119.927 12.0137 115.894 12.0137C110.572 12.0137 107.2 15.5732 107.2 21.0622C107.2 26.2851 110.308 30.1108 115.96 30.1108C120.621 30.1108 123.067 27.3496 123.827 23.7235H119.53C119.034 25.2871 118.009 26.3849 115.993 26.3849C113.349 26.3849 111.63 24.7881 111.332 22.1267H124.025C124.092 21.6277 124.125 21.2951 124.125 20.8293ZM111.498 19.1993C111.927 17.1035 113.15 15.4734 116.026 15.4734C118.472 15.4734 119.728 17.0702 119.894 19.1993H111.498Z" fill="#F2F6FA"/>
<defs>
<clipPath id="clip0_7558_1103">
<rect width="36.0312" height="36" fill="white"/>
</clipPath>
</defs>
</svg>
