<svg width="112" height="26" viewBox="0 0 112 26" fill="none" xmlns="http://www.w3.org/2000/svg">
<path fill-rule="evenodd" clip-rule="evenodd" d="M47.3892 24.9112H49.4748C49.8992 24.9112 50.2578 24.711 50.4688 24.3934C50.5881 24.2136 50.8337 24.1104 51.0178 24.2204C52.3073 24.9911 53.8315 25.4309 55.4842 25.4309C60.3049 25.4309 64.0316 21.6895 64.0316 16.9089C64.0316 12.0936 60.3049 8.35223 55.4842 8.35223C53.889 8.35223 52.4135 8.76193 51.1533 9.48467C50.9424 9.6056 50.6714 9.4563 50.6714 9.21077V1.17784C50.6714 0.519634 50.1586 0 49.4748 0H47.3892C46.7396 0 46.2268 0.519634 46.2268 1.17784V23.6987C46.2268 24.3916 46.7396 24.9112 47.3892 24.9112ZM55.4842 21.0659C53.1593 21.0659 51.3815 19.2299 51.3815 16.9089C51.3815 14.5532 53.1593 12.7172 55.4842 12.7172C57.8091 12.7172 59.587 14.5532 59.587 16.9089C59.587 19.2299 57.8091 21.0659 55.4842 21.0659Z" fill="white"/>
<path fill-rule="evenodd" clip-rule="evenodd" d="M83.3614 16.9089C83.3614 21.6895 79.6348 25.4309 74.814 25.4309C69.9933 25.4309 66.2667 21.6895 66.2667 16.9089C66.2667 12.0936 69.9933 8.35223 74.814 8.35223C79.6348 8.35223 83.3614 12.0936 83.3614 16.9089ZM70.7113 16.9089C70.7113 19.2299 72.4892 21.0659 74.814 21.0659C77.1389 21.0659 78.9168 19.2299 78.9168 16.9089C78.9168 14.5532 77.1389 12.7172 74.814 12.7172C72.4892 12.7172 70.7113 14.5532 70.7113 16.9089Z" fill="white"/>
<path fill-rule="evenodd" clip-rule="evenodd" d="M35.6831 25.4309C40.5038 25.4309 44.2305 21.6895 44.2305 16.9089C44.2305 12.0936 40.5038 8.35223 35.6831 8.35223C30.8624 8.35223 27.1357 12.0936 27.1357 16.9089C27.1357 21.6895 30.8624 25.4309 35.6831 25.4309ZM35.6831 21.0659C33.3582 21.0659 31.5804 19.2299 31.5804 16.9089C31.5804 14.5532 33.3582 12.7172 35.6831 12.7172C38.008 12.7172 39.7858 14.5532 39.7858 16.9089C39.7858 19.2299 38.008 21.0659 35.6831 21.0659Z" fill="white"/>
<path d="M88.8033 24.9112H86.7178C86.0682 24.9112 85.5553 24.3916 85.5553 23.6987V1.17784C85.5553 0.519634 86.0682 0 86.7178 0H88.8033C89.4871 0 90 0.519634 90 1.17784V23.6987C90 24.3916 89.4871 24.9112 88.8033 24.9112Z" fill="white"/>
<ellipse cx="26.1019" cy="5.76411" rx="3.10192" ry="3.14301" fill="#E0E5EA"/>
</svg>
