<svg width="128" height="36" viewBox="0 0 128 36" fill="none" xmlns="http://www.w3.org/2000/svg">
<g clip-path="url(#clip0_7019_5658)">
<mask id="mask0_7019_5658" style="mask-type:luminance" maskUnits="userSpaceOnUse" x="0" y="0" width="128" height="36">
<path d="M127.895 0H0V35.0599H127.895V0Z" fill="white"/>
</mask>
<g mask="url(#mask0_7019_5658)">
<path fill-rule="evenodd" clip-rule="evenodd" d="M9.82318 32.0934C7.22446 31.4784 5.13897 30.2108 4.07812 28.6108V27.0527C5.92033 28.4589 8.15396 29.5815 10.2696 30.1838C9.98252 30.6981 9.81891 31.2907 9.81891 31.9215C9.81891 31.9792 9.82052 32.0365 9.82318 32.0934ZM22.7041 27.0527V28.6108C21.6434 30.2109 19.5579 31.4784 16.9589 32.0934C16.9618 32.0365 16.9633 31.9792 16.9633 31.9215C16.9633 31.2907 16.7997 30.6979 16.5127 30.1838C18.6282 29.5815 20.8618 28.4591 22.7041 27.0527Z" fill="#F2F6FA"/>
<path fill-rule="evenodd" clip-rule="evenodd" d="M11.9874 31.7353L11.308 32.4147L12.8881 33.9949L15.4768 31.4062L14.7973 30.7268L12.8881 32.6359L11.9874 31.7353ZM15.8881 30.3477C16.2171 30.8311 16.4095 31.4148 16.4095 32.0435C16.4095 33.7102 15.0587 35.061 13.3923 35.061C11.7257 35.061 10.375 33.7102 10.375 32.0435C10.375 31.4148 10.5674 30.8311 10.8962 30.3477C11.7703 30.5557 12.6149 30.669 13.3923 30.669C14.1695 30.6688 15.0143 30.5556 15.8881 30.3477Z" fill="#F2F6FA"/>
<path d="M17.728 13.1442C18.7842 13.1442 19.6405 14.0006 19.6405 15.0568C19.6405 16.1129 18.784 16.9695 17.728 16.9695C16.6718 16.9695 15.8153 16.1129 15.8153 15.0568C15.8153 14.0008 16.6718 13.1442 17.728 13.1442ZM9.05513 13.1442C10.1114 13.1442 10.9678 14.0006 10.9678 15.0568C10.9678 16.1129 10.1114 16.9695 9.05513 16.9695C7.99905 16.9695 7.14247 16.1129 7.14247 15.0568C7.14264 14.0008 7.99905 13.1442 9.05513 13.1442ZM13.3915 27.8032C7.66656 27.8032 3.03914 23.9308 5.81825 20.4335C7.11153 18.8061 9.7362 17.5459 10.835 17.0138C13.4192 15.7621 12.6717 12.548 10.6557 12.548C10.3685 12.548 9.37116 12.5455 8.64544 12.5455C6.76883 12.5455 5.30125 12.3294 5.30125 9.3294H6.25379C6.67303 9.3294 6.81936 9.31344 6.81936 9.74368C6.81936 10.1068 6.85014 10.489 7.16452 10.6731C7.32254 10.7654 7.5859 10.8128 7.96268 10.8157C8.33632 10.8187 9.80195 10.8256 10.8636 10.8256C12.0963 10.8256 12.9453 11.0656 13.392 12.0839C13.8386 11.0656 14.6876 10.8256 15.9204 10.8256C16.9822 10.8256 18.4476 10.8187 18.8213 10.8157C19.1982 10.8128 19.4614 10.7654 19.6194 10.6731C19.934 10.489 19.9646 10.107 19.9646 9.74368C19.9646 9.31344 20.1109 9.3294 20.5301 9.3294H21.4827C21.4827 12.3294 20.0152 12.5455 18.1383 12.5455C17.4126 12.5455 16.4152 12.548 16.1282 12.548C14.112 12.548 13.3645 15.762 15.9489 17.0138C17.0475 17.5459 19.6723 18.8061 20.9656 20.4335C23.744 23.9306 19.1164 27.8032 13.3915 27.8032ZM22.8479 3.35703C23.0322 4.79828 23.1179 5.36993 23.2233 6.54091C23.2614 6.96359 23.3346 7.22746 22.9079 7.1147C21.749 6.80838 21.1863 6.65925 20.0272 6.35293C19.5116 6.21664 19.1097 6.23508 19.4122 5.81337C20.1875 4.73309 20.9904 3.76211 22.0883 2.94866C22.6344 2.5439 22.7657 2.71492 22.8479 3.35703ZM3.78939 4.48553C3.83087 4.16325 3.87844 3.80162 3.93523 3.35703C4.01736 2.71492 4.14872 2.5439 4.69469 2.94849C5.79258 3.76195 6.5955 4.73293 7.37077 5.8132C7.67347 6.23491 7.27136 6.21647 6.75599 6.35277C5.59687 6.65908 5.0341 6.80838 3.87514 7.11454C3.44867 7.22728 3.52175 6.96359 3.55977 6.54074C3.58677 6.24215 3.61228 5.98257 3.63862 5.73765L3.78939 4.48553ZM17.1457 5.71872C14.6305 5.41142 12.1152 5.42672 9.60016 5.71872C8.72593 4.20472 5.24742 4.83234e-09 3.69013 4.83234e-09C3.02827 4.83234e-09 2.49151 0.536597 2.49151 1.19846L2.05203 4.48569L1.99145 4.93835L1.84298 6.0494L0.0374794 19.5514C-0.638865 24.6089 7.99378 30.0419 13.3915 30.0419C18.7894 30.0419 27.422 24.6091 26.7456 19.5514L24.2916 1.19846C24.2916 0.536597 23.755 4.83234e-09 23.093 4.83234e-09C21.5359 -0.000164596 18.0197 4.20472 17.1457 5.71872Z" fill="#F2F6FA"/>
<path d="M16.3444 19.9439C16.6222 20.3039 16.5811 20.8427 16.2529 21.1474C13.6663 23.5446 13.1227 23.5489 10.5316 21.1474C10.2034 20.8429 10.1622 20.3039 10.4401 19.9439C11.2775 19.0261 15.5411 19.0635 16.3444 19.9439Z" fill="#F2F6FA"/>
<path fill-rule="evenodd" clip-rule="evenodd" d="M9.58104 14.1546C9.76427 14.1698 9.94616 14.3485 9.98728 14.5539C10.0284 14.7593 9.91319 14.9137 9.72997 14.8984C9.54684 14.8832 9.36492 14.7045 9.32377 14.4991C9.28261 14.2937 9.39783 14.1394 9.58104 14.1546ZM18.2537 14.1546C18.437 14.1698 18.6188 14.3485 18.66 14.5539C18.7011 14.7593 18.5861 14.9137 18.4027 14.8984C18.2195 14.8832 18.0374 14.7045 17.9963 14.4991C17.9553 14.2937 18.0705 14.1394 18.2537 14.1546ZM17.7283 13.6191C18.5227 13.6191 19.1664 14.2631 19.1664 15.0574C19.1664 15.8518 18.5225 16.4955 17.7283 16.4955C16.9341 16.4955 16.29 15.8516 16.29 15.0574C16.29 14.2631 16.934 13.6191 17.7283 13.6191ZM9.05545 13.6191C9.84981 13.6191 10.4937 14.2631 10.4937 15.0574C10.4937 15.8518 9.84981 16.4955 9.05545 16.4955C8.26126 16.4955 7.61719 15.8516 7.61719 15.0574C7.61735 14.2631 8.26126 13.6191 9.05545 13.6191Z" fill="#F2F6FA"/>
<path d="M8.54353 24.352C8.45349 24.1951 8.50765 23.9949 8.66435 23.9049C8.82121 23.8148 9.02136 23.8688 9.1114 24.0257C9.24275 24.2532 9.45163 24.4318 9.68797 24.5587C9.96498 24.7072 10.2765 24.7828 10.5482 24.7828C11.0863 24.7828 11.3931 24.5694 11.8996 24.3801C13.3297 23.8456 13.4007 23.826 14.8311 24.3605C15.3378 24.5498 15.6984 24.7828 16.2365 24.7828C16.5083 24.7828 16.8197 24.7074 17.0968 24.5587C17.3332 24.4318 17.5421 24.2532 17.6733 24.0257C17.7633 23.8688 17.9637 23.8148 18.1205 23.9049C18.2773 23.9949 18.3314 24.1953 18.2412 24.352C18.0437 24.6942 17.7419 24.956 17.405 25.1368C17.0294 25.3382 16.6062 25.4406 16.2365 25.4406C15.5868 25.4406 14.9546 25.2042 14.393 24.9944C13.4098 24.6272 13.3747 24.6272 12.3916 24.9944C11.83 25.2042 11.1979 25.4406 10.5482 25.4406C10.1783 25.4406 9.75533 25.3382 9.3797 25.1368C9.04276 24.956 8.74105 24.694 8.54353 24.352Z" fill="#F2F6FA"/>
<path d="M35.543 25.2267V9.83373H42.0421C42.1945 9.83373 42.3978 9.83373 42.6515 9.85069C42.897 9.85902 43.1255 9.88441 43.3284 9.91814C44.2428 10.0621 44.9957 10.3667 45.5879 10.8238C46.1723 11.2891 46.6037 11.8729 46.883 12.5755C47.1623 13.2782 47.2976 14.0565 47.2976 14.9197C47.2976 15.7829 47.1623 16.5613 46.883 17.2635C46.5953 17.9658 46.1633 18.5496 45.5799 19.0154C44.9875 19.4808 44.2341 19.7769 43.3286 19.9211C43.1257 19.955 42.8972 19.9718 42.6434 19.9886C42.381 20.0057 42.1863 20.0057 42.0423 20.0057H38.4541V25.2269L35.543 25.2267ZM38.4541 17.2977H41.9153C42.0678 17.2977 42.2285 17.289 42.4059 17.272C42.5838 17.255 42.7448 17.2298 42.8968 17.1874C43.2863 17.0773 43.5907 16.8999 43.8023 16.6459C44.0224 16.3921 44.1661 16.1129 44.2507 15.7997C44.3355 15.4946 44.3694 15.1986 44.3694 14.9196C44.3694 14.6402 44.3355 14.344 44.2507 14.0393C44.1661 13.7262 44.0224 13.4467 43.8023 13.1931C43.5907 12.9389 43.2863 12.7613 42.8968 12.6514C42.7446 12.6088 42.5836 12.5838 42.4059 12.5669C42.2285 12.558 42.0678 12.5496 41.9153 12.5496H38.4541V17.2977ZM54.2451 25.5481C53.0607 25.5481 52.0195 25.2861 51.1224 24.7781C50.2169 24.2702 49.5145 23.568 49.007 22.6708C48.4992 21.7826 48.2367 20.7586 48.2367 19.5991C48.2367 18.3382 48.4905 17.2465 48.99 16.307C49.4893 15.3761 50.1745 14.6486 51.0464 14.1322C51.9266 13.6157 52.9335 13.3621 54.0758 13.3621C55.2862 13.3621 56.3184 13.6414 57.1649 14.2168C58.011 14.7835 58.6373 15.5877 59.0437 16.62C59.4496 17.6524 59.5936 18.8711 59.4753 20.2676H58.0703H56.5978H51.3682C51.4614 20.953 51.6813 21.52 52.0197 21.9432C52.4853 22.5358 53.1705 22.8317 54.0759 22.8317C54.6432 22.8317 55.134 22.7048 55.5402 22.4594C55.9465 22.2054 56.2509 21.8502 56.471 21.376L59.3739 22.2141C58.9421 23.2632 58.2566 24.0841 57.3174 24.6684C56.3862 25.2522 55.3539 25.5481 54.2451 25.5481ZM56.5299 18.1098C56.4453 17.4835 56.2844 16.9925 56.0393 16.6541C55.6669 16.1378 55.0488 15.8841 54.2028 15.8841C53.2127 15.8841 52.485 16.1804 52.0194 16.7809C51.7485 17.128 51.5626 17.568 51.4439 18.1097L56.5299 18.1098ZM61.5313 25.2267V13.6839H64.0956V16.502L63.8163 16.1379C63.9688 15.7403 64.1722 15.3763 64.4174 15.0462C64.671 14.7248 64.9759 14.4539 65.3395 14.2342C65.6189 14.0648 65.9153 13.929 66.2452 13.8363C66.5754 13.7346 66.9139 13.6753 67.2608 13.6501C67.6075 13.6246 67.9632 13.6416 68.3101 13.6837V16.3919C67.9883 16.2988 67.6163 16.2566 67.1932 16.2901C66.7699 16.3241 66.3888 16.4258 66.0421 16.5866C65.7038 16.7472 65.4158 16.9504 65.1792 17.2128C64.9424 17.4751 64.7644 17.7798 64.6458 18.1268C64.5192 18.4822 64.4597 18.8797 64.4597 19.3285V25.2267H61.5313ZM83.8894 25.2267V18.4061C83.8894 17.6441 83.7115 17.0434 83.3477 16.6202C82.9925 16.1973 82.4928 15.9857 81.8582 15.9857C81.4522 15.9857 81.0966 16.0788 80.8005 16.2736C80.5043 16.4597 80.2672 16.722 80.1067 17.0604C79.9373 17.399 79.8527 17.7882 79.8527 18.2366V25.2265H76.9415V18.4059C76.9415 17.644 76.7641 17.0432 76.4083 16.62C76.0443 16.1972 75.5454 15.9855 74.9104 15.9855C74.3099 15.9855 73.8185 16.1972 73.4549 16.6118C73.0911 17.0264 72.9049 17.5681 72.9049 18.2366V25.2265H69.9768V13.6837H72.5409V14.9447C72.8708 14.5301 73.2857 14.1915 73.7765 13.929C74.411 13.5741 75.1219 13.4044 75.9173 13.4044C76.8228 13.4044 77.5677 13.599 78.1428 13.98C78.6254 14.3014 79.0063 14.7078 79.2771 15.1982C79.6407 14.6569 80.1149 14.2251 80.6987 13.9121C81.3336 13.5739 82.0274 13.4044 82.7974 13.4044C84.1177 13.4044 85.1163 13.7936 85.7846 14.5721C86.4616 15.3508 86.8002 16.3751 86.8002 17.6356V25.2265L83.8894 25.2267ZM89.4491 12.0761V9.51172H92.3521V12.0761H89.4491ZM89.4491 25.2267V13.6839H92.3521V25.2267H89.4491ZM102.143 25.2267C101.339 25.3707 100.561 25.4382 99.7989 25.4215C99.0287 25.4044 98.3437 25.2691 97.7431 25.0151C97.1415 24.7611 96.6849 24.3555 96.3713 23.7881C96.0843 23.2633 95.9317 22.73 95.9232 22.1802C95.9062 21.6385 95.8976 21.0206 95.8976 20.3272V15.9264H93.9344V13.6837H95.8976V10.4768H98.8089V13.6837H102.143V15.9264H98.8089V20.1575C98.8089 20.6064 98.8174 21.0122 98.826 21.3679C98.8345 21.7318 98.9017 22.0195 99.0372 22.2311C99.2996 22.6371 99.7061 22.8574 100.273 22.8911C100.832 22.9337 101.458 22.8998 102.143 22.8065V25.2267ZM104.834 25.2267V22.3155H107.737V25.2267H104.834ZM111.071 12.0761V9.51172H113.982V12.0761H111.071ZM111.071 25.2267V13.6839H113.982V25.2267H111.071ZM122.038 25.5481C120.87 25.5481 119.855 25.2861 118.976 24.7611C118.103 24.2452 117.418 23.5257 116.935 22.6116C116.445 21.6892 116.2 20.6399 116.2 19.4553C116.2 18.2451 116.453 17.1874 116.943 16.2736C117.443 15.3595 118.137 14.6402 119.009 14.1324C119.889 13.6159 120.896 13.3623 122.038 13.3623C123.198 13.3623 124.222 13.6246 125.101 14.1407C125.981 14.657 126.667 15.3761 127.158 16.2901C127.649 17.2042 127.894 18.2619 127.894 19.4553C127.894 20.6486 127.649 21.7063 127.149 22.6204C126.659 23.5341 125.965 24.2535 125.084 24.7698C124.205 25.2863 123.189 25.5481 122.038 25.5481ZM122.038 22.8319C122.97 22.8319 123.663 22.5105 124.128 21.8842C124.586 21.2496 124.814 20.4455 124.814 19.4553C124.814 18.423 124.586 17.6104 124.121 16.9925C123.646 16.3834 122.953 16.0789 122.038 16.0789C121.404 16.0789 120.879 16.2142 120.473 16.5019C120.067 16.7896 119.77 17.1872 119.575 17.6867C119.381 18.1943 119.28 18.7868 119.28 19.4551C119.28 20.4875 119.516 21.3085 119.982 21.9177C120.448 22.5275 121.134 22.8319 122.038 22.8319Z" fill="#F2F6FA"/>
</g>
</g>
<defs>
<clipPath id="clip0_7019_5658">
<rect width="127.895" height="36" fill="white"/>
</clipPath>
</defs>
</svg>
