<svg width="135" height="38" viewBox="0 0 135 38" fill="none" xmlns="http://www.w3.org/2000/svg">
<g clip-path="url(#clip0_7013_5698)">
<mask id="mask0_7013_5698" style="mask-type:luminance" maskUnits="userSpaceOnUse" x="0" y="0" width="135" height="38">
<path d="M135 0H0V37.0077H135V0Z" fill="white"/>
</mask>
<g mask="url(#mask0_7013_5698)">
<path fill-rule="evenodd" clip-rule="evenodd" d="M10.3699 33.8754C7.62679 33.2262 5.42544 31.8882 4.30566 30.1993V28.5547C6.25021 30.039 8.60793 31.2239 10.8411 31.8597C10.5381 32.4026 10.3654 33.0281 10.3654 33.6939C10.3654 33.7549 10.3671 33.8153 10.3699 33.8754ZM23.9664 28.5547V30.1993C22.8468 31.8883 20.6454 33.2262 17.9021 33.8754C17.9051 33.8153 17.9067 33.7549 17.9067 33.6939C17.9067 33.0281 17.734 32.4024 17.4311 31.8597C19.6641 31.2239 22.0218 30.0392 23.9664 28.5547Z" fill="#F2F6FA"/>
<path fill-rule="evenodd" clip-rule="evenodd" d="M12.6532 33.4979L11.936 34.2151L13.6039 35.8831L16.3364 33.1506L15.6192 32.4334L13.6039 34.4486L12.6532 33.4979ZM16.7706 32.0332C17.1179 32.5435 17.321 33.1596 17.321 33.8233C17.321 35.5825 15.8951 37.0084 14.1361 37.0084C12.3769 37.0084 10.9512 35.5825 10.9512 33.8233C10.9512 33.1596 11.1543 32.5435 11.5014 32.0332C12.424 32.2528 13.3155 32.3724 14.1361 32.3724C14.9565 32.3722 15.8482 32.2527 16.7706 32.0332Z" fill="#F2F6FA"/>
<path d="M18.7129 13.8744C19.8278 13.8744 20.7316 14.7784 20.7316 15.8933C20.7316 17.0081 19.8276 17.9123 18.7129 17.9123C17.598 17.9123 16.6939 17.0081 16.6939 15.8933C16.6939 14.7786 17.598 13.8744 18.7129 13.8744ZM9.55819 13.8744C10.6731 13.8744 11.5771 14.7784 11.5771 15.8933C11.5771 17.0081 10.6731 17.9123 9.55819 17.9123C8.44344 17.9123 7.53927 17.0081 7.53927 15.8933C7.53945 14.7786 8.44344 13.8744 9.55819 13.8744ZM14.1355 29.3478C8.09248 29.3478 3.20798 25.2603 6.14149 21.5687C7.50661 19.8509 10.2771 18.5207 11.4369 17.959C14.1647 16.6378 13.3757 13.2451 11.2477 13.2451C10.9445 13.2451 9.89178 13.2425 9.12574 13.2425C7.14487 13.2425 5.59576 13.0144 5.59576 9.8477H6.60122C7.04375 9.8477 7.19821 9.83085 7.19821 10.285C7.19821 10.6683 7.2307 11.0717 7.56255 11.266C7.72935 11.3635 8.00734 11.4135 8.40505 11.4166C8.79945 11.4197 10.3465 11.427 11.4671 11.427C12.7683 11.427 13.6645 11.6804 14.136 12.7552C14.6074 11.6804 15.5036 11.427 16.8049 11.427C17.9256 11.427 19.4725 11.4197 19.8669 11.4166C20.2648 11.4135 20.5426 11.3635 20.7094 11.266C21.0414 11.0717 21.0737 10.6685 21.0737 10.285C21.0737 9.83085 21.2282 9.8477 21.6707 9.8477H22.6762C22.6762 13.0144 21.1271 13.2425 19.146 13.2425C18.38 13.2425 17.3272 13.2451 17.0242 13.2451C14.896 13.2451 14.107 16.6377 16.835 17.959C17.9946 18.5207 20.7652 19.8509 22.1303 21.5687C25.0631 25.2601 20.1784 29.3478 14.1355 29.3478ZM24.1172 3.54353C24.3118 5.06485 24.4022 5.66826 24.5135 6.90429C24.5537 7.35046 24.631 7.62898 24.1806 7.50996C22.9573 7.18662 22.3633 7.02921 21.1398 6.70587C20.5956 6.56201 20.1713 6.58147 20.4906 6.13633C21.309 4.99604 22.1565 3.97112 23.3154 3.11247C23.8919 2.68523 24.0305 2.86575 24.1172 3.54353ZM3.99991 4.73473C4.04369 4.39454 4.09391 4.01282 4.15385 3.54353C4.24055 2.86575 4.3792 2.68523 4.95551 3.1123C6.11439 3.97095 6.96192 4.99587 7.78026 6.13616C8.09977 6.58129 7.67532 6.56183 7.13132 6.7057C5.90781 7.02903 5.31377 7.18662 4.09043 7.50979C3.64026 7.6288 3.7174 7.35046 3.75753 6.90411C3.78603 6.58894 3.81296 6.31494 3.84076 6.05641L3.99991 4.73473ZM18.0982 6.03643C15.4433 5.71205 12.7883 5.7282 10.1335 6.03643C9.2107 4.43832 5.53894 5.1008e-09 3.89514 5.1008e-09C3.19651 5.1008e-09 2.62993 0.566408 2.62993 1.26504L2.16603 4.7349L2.10209 5.2127L1.94537 6.38548L0.0395616 20.6376C-0.674357 25.9761 8.43788 31.7109 14.1355 31.7109C19.8332 31.7109 28.9454 25.9763 28.2315 20.6376L25.6411 1.26504C25.6411 0.566408 25.0747 5.1008e-09 24.3759 5.1008e-09C22.7323 -0.00017374 19.0208 4.43832 18.0982 6.03643Z" fill="#F2F6FA"/>
<path d="M17.252 21.0517C17.5453 21.4317 17.5019 22.0004 17.1554 22.322C14.4251 24.8524 13.8514 24.8569 11.1163 22.322C10.7699 22.0006 10.7264 21.4317 11.0197 21.0517C11.9036 20.0829 16.4041 20.1224 17.252 21.0517Z" fill="#F2F6FA"/>
<path fill-rule="evenodd" clip-rule="evenodd" d="M10.113 14.9402C10.3064 14.9562 10.4984 15.1449 10.5418 15.3617C10.5852 15.5785 10.4636 15.7415 10.2702 15.7253C10.0769 15.7093 9.88487 15.5207 9.84143 15.3038C9.79799 15.087 9.91961 14.9242 10.113 14.9402ZM19.2675 14.9402C19.4609 14.9562 19.6529 15.1449 19.6963 15.3617C19.7397 15.5785 19.6183 15.7415 19.4247 15.7253C19.2314 15.7093 19.0392 15.5207 18.9958 15.3038C18.9525 15.087 19.0741 14.9242 19.2675 14.9402ZM18.7129 14.375C19.5514 14.375 20.2309 15.0547 20.2309 15.8932C20.2309 16.7317 19.5512 17.4112 18.7129 17.4112C17.8746 17.4112 17.1947 16.7315 17.1947 15.8932C17.1947 15.0547 17.8744 14.375 18.7129 14.375ZM9.55821 14.375C10.3967 14.375 11.0764 15.0547 11.0764 15.8932C11.0764 16.7317 10.3967 17.4112 9.55821 17.4112C8.71989 17.4112 8.04004 16.7315 8.04004 15.8932C8.04021 15.0547 8.71989 14.375 9.55821 14.375Z" fill="#F2F6FA"/>
<path d="M9.01762 25.7054C8.92258 25.5398 8.97976 25.3285 9.14516 25.2335C9.31074 25.1384 9.52201 25.1954 9.61705 25.361C9.7557 25.6011 9.97618 25.7896 10.2256 25.9236C10.518 26.0803 10.8468 26.1601 11.1336 26.1601C11.7016 26.1601 12.0255 25.9349 12.5601 25.7351C14.0697 25.1709 14.1446 25.1502 15.6545 25.7144C16.1893 25.9142 16.5699 26.1601 17.1379 26.1601C17.4248 26.1601 17.7535 26.0805 18.046 25.9236C18.2956 25.7896 18.5161 25.6011 18.6546 25.361C18.7496 25.1954 18.9611 25.1384 19.1266 25.2335C19.2921 25.3285 19.3492 25.54 19.254 25.7054C19.0455 26.0666 18.727 26.343 18.3714 26.5338C17.9749 26.7464 17.5282 26.8545 17.1379 26.8545C16.4521 26.8545 15.7848 26.605 15.192 26.3835C14.1542 25.9959 14.1172 25.9959 13.0794 26.3835C12.4866 26.605 11.8194 26.8545 11.1336 26.8545C10.7432 26.8545 10.2967 26.7464 9.90026 26.5338C9.5446 26.343 9.22612 26.0664 9.01762 25.7054Z" fill="#F2F6FA"/>
<path d="M37.5176 26.6271V10.379H44.3778C44.5387 10.379 44.7533 10.379 45.021 10.3969C45.2802 10.4057 45.5214 10.4325 45.7356 10.4681C46.7008 10.6201 47.4955 10.9416 48.1206 11.4241C48.7374 11.9152 49.1928 12.5315 49.4876 13.2731C49.7825 14.0148 49.9253 14.8364 49.9253 15.7475C49.9253 16.6587 49.7825 17.4803 49.4876 18.2215C49.1839 18.9628 48.728 19.5791 48.1121 20.0708C47.4868 20.562 46.6916 20.8746 45.7358 21.0268C45.5216 21.0626 45.2804 21.0803 45.0125 21.098C44.7355 21.1161 44.53 21.1161 44.378 21.1161H40.5905V26.6273L37.5176 26.6271ZM40.5905 18.2576H44.244C44.4049 18.2576 44.5745 18.2484 44.7618 18.2305C44.9496 18.2126 45.1195 18.186 45.28 18.1412C45.6911 18.025 46.0124 17.8377 46.2358 17.5696C46.4681 17.3017 46.6198 17.007 46.7091 16.6764C46.7986 16.3544 46.8344 16.0419 46.8344 15.7474C46.8344 15.4525 46.7986 15.1398 46.7091 14.8182C46.6198 14.4877 46.4681 14.1927 46.2358 13.925C46.0124 13.6567 45.6911 13.4692 45.28 13.3532C45.1193 13.3082 44.9494 13.2819 44.7618 13.264C44.5745 13.2546 44.4049 13.2458 44.244 13.2458H40.5905V18.2576ZM57.2587 26.9664C56.0085 26.9664 54.9095 26.6898 53.9626 26.1536C53.0068 25.6175 52.2653 24.8763 51.7296 23.9292C51.1936 22.9917 50.9165 21.9108 50.9165 20.6869C50.9165 19.3559 51.1844 18.2036 51.7117 17.2119C52.2387 16.2293 52.962 15.4614 53.8823 14.9163C54.8114 14.3711 55.8743 14.1034 57.08 14.1034C58.3577 14.1034 59.4472 14.3982 60.3408 15.0056C61.2339 15.6038 61.895 16.4526 62.3239 17.5423C62.7524 18.632 62.9044 19.9184 62.7795 21.3925H61.2964H59.7421H54.222C54.3204 22.116 54.5525 22.7145 54.9097 23.1612C55.4012 23.7867 56.1244 24.0991 57.0801 24.0991C57.679 24.0991 58.197 23.9651 58.6258 23.7061C59.0547 23.438 59.376 23.0631 59.6083 22.5625L62.6725 23.4472C62.2167 24.5545 61.4931 25.4211 60.5017 26.0378C59.5188 26.654 58.4291 26.9664 57.2587 26.9664ZM59.6705 19.1149C59.5812 18.4538 59.4113 17.9355 59.1526 17.5783C58.7595 17.0333 58.1071 16.7655 57.2141 16.7655C56.169 16.7655 55.4009 17.0783 54.9094 17.7121C54.6234 18.0785 54.4272 18.5429 54.3019 19.1147L59.6705 19.1149ZM64.9497 26.6271V14.4431H67.6565V17.4177L67.3617 17.0334C67.5226 16.6137 67.7373 16.2295 67.9962 15.8811C68.2639 15.5418 68.5857 15.2558 68.9695 15.0239C69.2644 14.8451 69.5773 14.7018 69.9255 14.6039C70.274 14.4966 70.6314 14.434 70.9975 14.4074C71.3635 14.3805 71.739 14.3984 72.1051 14.4429V17.3015C71.7654 17.2032 71.3728 17.1587 70.9262 17.1941C70.4794 17.2299 70.0771 17.3373 69.7111 17.507C69.354 17.6766 69.05 17.891 68.8003 18.168C68.5503 18.4449 68.3624 18.7665 68.2373 19.1328C68.1036 19.5079 68.0408 19.9275 68.0408 20.4013V26.6271H64.9497ZM88.5499 26.6271V19.4276C88.5499 18.6233 88.3622 17.9892 87.9781 17.5425C87.6032 17.0961 87.0758 16.8727 86.4059 16.8727C85.9773 16.8727 85.602 16.971 85.2894 17.1766C84.9768 17.3731 84.7265 17.65 84.5571 18.0071C84.3783 18.3646 84.289 18.7754 84.289 19.2487V26.6269H81.2161V19.4274C81.2161 18.6232 81.0288 17.989 80.6532 17.5423C80.269 17.096 79.7424 16.8725 79.0721 16.8725C78.4383 16.8725 77.9196 17.096 77.5358 17.5336C77.1517 17.9713 76.9552 18.5431 76.9552 19.2487V26.6269H73.8644V14.4429H76.571V15.7739C76.9192 15.3363 77.3572 14.9789 77.8752 14.7018C78.545 14.3272 79.2954 14.148 80.1349 14.148C81.0908 14.148 81.877 14.3534 82.4841 14.7556C82.9935 15.0949 83.3956 15.5238 83.6814 16.0415C84.0652 15.4701 84.5657 15.0143 85.182 14.6839C85.8522 14.327 86.5845 14.148 87.3973 14.148C88.7909 14.148 89.845 14.5589 90.5504 15.3806C91.265 16.2026 91.6224 17.2838 91.6224 18.6143V26.6269L88.5499 26.6271ZM94.4185 12.7459V10.0391H97.4828V12.7459H94.4185ZM94.4185 26.6271V14.4431H97.4828V26.6271H94.4185ZM107.817 26.6271C106.969 26.7791 106.147 26.8504 105.343 26.8328C104.53 26.8147 103.807 26.6719 103.173 26.4038C102.538 26.1357 102.056 25.7075 101.725 25.1086C101.422 24.5547 101.261 23.9917 101.252 23.4114C101.234 22.8396 101.225 22.1874 101.225 21.4554V16.8102H99.153V14.4429H101.225V11.0578H104.298V14.4429H107.817V16.8102H104.298V21.2763C104.298 21.7501 104.307 22.1785 104.316 22.554C104.325 22.9381 104.396 23.2418 104.539 23.4651C104.816 23.8937 105.245 24.1262 105.843 24.1618C106.433 24.2067 107.094 24.171 107.817 24.0725V26.6271ZM110.658 26.6271V23.5542H113.722V26.6271H110.658ZM117.241 12.7459V10.0391H120.314V12.7459H117.241ZM117.241 26.6271V14.4431H120.314V26.6271H117.241ZM128.818 26.9664C127.585 26.9664 126.513 26.6898 125.585 26.1357C124.664 25.5911 123.941 24.8316 123.431 23.8668C122.914 22.8931 122.655 21.7855 122.655 20.5351C122.655 19.2577 122.922 18.1412 123.44 17.1766C123.967 16.2118 124.7 15.4525 125.62 14.9165C126.549 14.3713 127.612 14.1036 128.818 14.1036C130.042 14.1036 131.123 14.3805 132.051 14.9252C132.98 15.4702 133.704 16.2293 134.222 17.1941C134.74 18.1589 134.999 19.2754 134.999 20.5351C134.999 21.7947 134.74 22.9112 134.213 23.876C133.695 24.8405 132.963 25.5999 132.033 26.1449C131.105 26.69 130.033 26.9664 128.818 26.9664ZM128.818 24.0993C129.801 24.0993 130.533 23.76 131.024 23.0989C131.507 22.4291 131.748 21.5803 131.748 20.5351C131.748 19.4455 131.507 18.5877 131.016 17.9355C130.515 17.2925 129.783 16.9711 128.818 16.9711C128.148 16.9711 127.594 17.1139 127.166 17.4176C126.737 17.7213 126.424 18.141 126.218 18.6682C126.013 19.204 125.906 19.8295 125.906 20.5349C125.906 21.6246 126.156 22.4913 126.647 23.1343C127.139 23.778 127.863 24.0993 128.818 24.0993Z" fill="#F2F6FA"/>
</g>
</g>
<defs>
<clipPath id="clip0_7013_5698">
<rect width="135" height="38" fill="white"/>
</clipPath>
</defs>
</svg>
