<svg width="106" height="36" viewBox="0 0 106 36" fill="none" xmlns="http://www.w3.org/2000/svg">
<g clip-path="url(#clip0_7194_5519)">
<path d="M48.8885 5.2832C46.1854 5.2832 43.6461 6.51188 42.4584 8.3549V5.77467H38.0352V33.4609H42.4584V22.2799C43.6461 24.1229 46.0625 25.3516 48.6018 25.3516C54.1308 25.3516 57.9807 21.2151 57.9807 15.3174C57.9807 9.29688 54.3356 5.2832 48.8885 5.2832ZM47.9465 21.3789C44.5881 21.3789 42.2946 18.9215 42.2946 15.3174C42.2946 11.7133 44.5881 9.25593 47.9465 9.25593C51.223 9.25593 53.5165 11.7543 53.5165 15.3174C53.5165 18.8806 51.223 21.3789 47.9465 21.3789Z" fill="#F2F6FA"/>
<path d="M69.8905 25.3516C76.1978 25.3516 79.9657 20.9284 79.9657 15.3174C79.9657 9.70644 76.1978 5.2832 69.8905 5.2832C63.5833 5.2832 59.8154 9.70644 59.8154 15.3174C59.8154 20.9284 63.5833 25.3516 69.8905 25.3516ZM69.8905 21.3789C66.2864 21.3789 64.2796 18.7987 64.2796 15.3174C64.2796 11.8362 66.2864 9.25593 69.8905 9.25593C73.4947 9.25593 75.5015 11.8362 75.5015 15.3174C75.5015 18.7987 73.4947 21.3789 69.8905 21.3789Z" fill="#F2F6FA"/>
<path d="M86.4232 24.8608V16.4239C86.4232 11.9848 89.6527 9.50238 93.2628 9.50238V5.77539C90.3819 5.77539 87.3608 6.62971 86.4232 9.46142V5.77539H81.959V24.8608H86.4232Z" fill="#F2F6FA"/>
<path d="M103.748 21.0923C101.987 21.0923 100.963 20.6827 100.963 17.3653V9.50177H105.345V5.77479H100.963V0H96.4992V5.77479L93.2637 5.77489V9.50188L96.4992 9.50177V18.3892C96.4992 24.8193 100.512 25.106 102.683 25.106C103.994 25.106 105.304 24.9831 106 24.8602V20.9285C105.55 21.0104 104.444 21.0923 103.748 21.0923Z" fill="#F2F6FA"/>
<path d="M14.9479 26.6705C14.6941 26.6794 14.4873 26.4727 14.4873 26.2187V1.38181C14.4873 1.1278 14.6941 0.921043 14.9479 0.929966C21.848 1.1725 27.3672 6.84191 27.3672 13.8002C27.3672 20.7586 21.8479 26.428 14.9479 26.6705Z" fill="#F2F6FA"/>
<path fill-rule="evenodd" clip-rule="evenodd" d="M0.45993 15.2363C0.205917 15.2363 0 15.4422 0 15.6963V23.975H11.4982V15.6963C11.4982 15.4422 11.2923 15.2363 11.0383 15.2363H0.45993ZM11.4982 23.9766H0V35.0149C0 35.2689 0.206594 35.4758 0.460408 35.4657C6.58042 35.224 11.4982 30.1853 11.4982 23.9766Z" fill="#F2F6FA"/>
<path d="M11.6735 11.847C11.6735 12.101 11.4676 12.3069 11.2136 12.3069H0.460838C0.206826 12.3069 -5.71364e-05 12.1002 0.0101261 11.8464C0.252733 5.79989 5.2522 1.13783 11.2132 0.908535C11.467 0.898772 11.6735 1.10561 11.6735 1.35962V11.847Z" fill="#F2F6FA"/>
</g>
<defs>
<clipPath id="clip0_7194_5519">
<rect width="106" height="36" fill="white"/>
</clipPath>
</defs>
</svg>
