<svg width="128" height="34" viewBox="0 0 128 34" fill="none" xmlns="http://www.w3.org/2000/svg">
<g clip-path="url(#clip0_7013_5710)">
<mask id="mask0_7013_5710" style="mask-type:luminance" maskUnits="userSpaceOnUse" x="0" y="0" width="128" height="34">
<path d="M128 0H0V33.7444H128V0Z" fill="white"/>
</mask>
<g mask="url(#mask0_7013_5710)">
<path d="M3.59791 26.5488C4.13005 26.5487 4.6556 26.6665 5.1367 26.8939C5.61781 27.1213 6.04249 27.4525 6.38015 27.8638C6.71781 28.2751 6.96005 28.7562 7.0894 29.2723C7.21876 29.7885 7.23202 30.3269 7.12822 30.8489C7.02442 31.3708 6.80616 31.8632 6.48915 32.2906C6.17214 32.718 5.76427 33.0697 5.29494 33.3205C4.82561 33.5713 4.3065 33.7149 3.775 33.7409C3.2435 33.7669 2.71285 33.6747 2.22128 33.4709C1.45245 33.1522 0.817882 32.5768 0.425644 31.8428C0.0334068 31.1088 -0.0922426 30.2614 0.070096 29.4452C0.232435 28.6289 0.672721 27.8941 1.31597 27.366C1.95922 26.8379 2.76565 26.5491 3.59791 26.5488Z" fill="#F2F6FA"/>
<path d="M72.1809 21.0448C72.1809 22.1989 71.8387 23.3272 71.1975 24.2868C70.5563 25.2464 69.6449 25.9944 68.5786 26.4361C67.5123 26.8777 66.339 26.9933 65.207 26.7681C64.075 26.543 63.0353 25.9872 62.2192 25.1711C61.403 24.355 60.8473 23.3152 60.6221 22.1832C60.3969 21.0513 60.5125 19.8779 60.9542 18.8116C61.3959 17.7453 62.1438 16.834 63.1034 16.1928C64.0631 15.5516 65.1913 15.2093 66.3455 15.2093C67.8926 15.211 69.3759 15.8263 70.4699 16.9203C71.5639 18.0143 72.1793 19.4976 72.1809 21.0448ZM77.7463 0.302735H73.5838C73.4718 0.302597 73.3609 0.324539 73.2574 0.367307C73.1539 0.410075 73.0598 0.47283 72.9805 0.551983C72.9013 0.631136 72.8384 0.725134 72.7955 0.828603C72.7526 0.932072 72.7305 1.04298 72.7305 1.15499V11.1855C71.18 10.0893 69.3928 9.37423 67.514 9.09838C65.6353 8.82253 63.718 8.99368 61.9178 9.59793C60.1176 10.2022 58.4853 11.2225 57.1534 12.576C55.8216 13.9295 54.8278 15.5781 54.2526 17.3878C53.6775 19.1975 53.5373 21.1174 53.8435 22.9914C54.1496 24.8655 54.8934 26.6409 56.0145 28.1735C57.1357 29.7062 58.6024 30.9528 60.2958 31.8121C61.9891 32.6714 63.8612 33.1193 65.7601 33.1193C68.2579 33.1279 70.6956 32.3535 72.7305 30.9051V31.6628C72.7305 31.7748 72.7526 31.8857 72.7955 31.9891C72.8384 32.0926 72.9013 32.1866 72.9805 32.2658C73.0598 32.3449 73.1539 32.4077 73.2574 32.4504C73.3609 32.4932 73.4718 32.5151 73.5838 32.515H78.0931C78.3193 32.515 78.5361 32.4253 78.6961 32.2655C78.8561 32.1057 78.9461 31.8889 78.9464 31.6628V1.50178C78.9461 1.18367 78.8196 0.878696 78.5946 0.653862C78.3695 0.429029 78.0644 0.302735 77.7463 0.302735Z" fill="#F2F6FA"/>
<path d="M97.5537 31.4119V10.0782C97.5537 9.933 97.5823 9.78924 97.6379 9.65511C97.6934 9.52098 97.7748 9.39911 97.8775 9.29646C97.9802 9.1938 98.102 9.11237 98.2361 9.05681C98.3703 9.00126 98.514 8.97266 98.6592 8.97266H102.689C102.833 8.97293 102.976 9.0015 103.109 9.05673C103.243 9.11194 103.365 9.1934 103.467 9.29633C103.57 9.39885 103.652 9.5207 103.708 9.65487C103.763 9.78904 103.792 9.93289 103.792 10.0782V31.4108C103.792 31.5551 103.763 31.6979 103.708 31.8312C103.653 31.9659 103.571 32.0881 103.467 32.1906C103.365 32.2938 103.243 32.3753 103.109 32.4302C102.976 32.4854 102.833 32.514 102.689 32.5142H98.6592C98.5149 32.514 98.3721 32.4855 98.2389 32.4302C98.0367 32.3466 97.8639 32.2049 97.7423 32.0231C97.6208 31.8413 97.5558 31.6275 97.5558 31.4087" fill="#F2F6FA"/>
<path d="M100.673 0.144531C101.627 0.14481 102.542 0.523991 103.217 1.19872C103.892 1.87345 104.271 2.7885 104.271 3.74271C104.272 4.39449 104.095 5.03418 103.761 5.59346C103.426 6.15274 102.946 6.61061 102.371 6.91816C101.796 7.22572 101.149 7.3714 100.498 7.33967C99.8471 7.30793 99.2169 7.09996 98.6749 6.73797C98.1329 6.37598 97.6994 5.87356 97.4207 5.28437C97.142 4.69519 97.0286 4.04136 97.0925 3.39273C97.1565 2.74409 97.3954 2.12501 97.7838 1.60159C98.1722 1.07818 98.6955 0.670086 99.2977 0.42091C99.7334 0.238344 100.201 0.144389 100.673 0.144531Z" fill="#F2F6FA"/>
<path d="M127.463 26.9925L124.816 24.6964C124.678 24.578 124.518 24.4886 124.345 24.4334C124.172 24.3781 123.99 24.3582 123.809 24.3748C123.631 24.3909 123.458 24.4433 123.301 24.5288C123.144 24.6143 123.006 24.731 122.896 24.8719C122.1 25.8835 121.007 26.6209 119.771 26.9813C118.535 27.3416 117.217 27.3067 116.002 26.8816C114.786 26.4564 113.734 25.6622 112.993 24.6099C112.251 23.5576 111.856 22.2999 111.864 21.0124C111.872 19.7249 112.282 18.4721 113.036 17.4289C113.791 16.3858 114.853 15.6044 116.073 15.1941C117.293 14.7838 118.611 14.765 119.843 15.1404C121.075 15.5158 122.158 16.2665 122.942 17.2877C123.055 17.4344 123.197 17.5566 123.358 17.6469C123.52 17.7372 123.698 17.7938 123.882 17.8132C124.062 17.8326 124.245 17.8146 124.418 17.7604C124.591 17.7062 124.751 17.6168 124.888 17.4979L127.537 15.2049C127.799 14.9787 127.963 14.6594 127.995 14.3143C128.026 13.9693 127.923 13.6255 127.706 13.3554C126.113 11.3561 123.939 9.90006 121.485 9.18809C119.03 8.47611 116.414 8.54323 113.999 9.38019C111.584 10.2172 109.488 11.7828 108 13.8611C106.512 15.9395 105.705 18.4283 105.691 20.9844C105.677 23.5404 106.456 26.0379 107.921 28.1325C109.386 30.2271 111.465 31.8156 113.871 32.6791C116.277 33.5425 118.891 33.6383 121.354 32.9534C123.817 32.2684 126.006 30.8363 127.621 28.8547C127.844 28.5854 127.952 28.2393 127.923 27.8908C127.893 27.5424 127.728 27.2195 127.463 26.9915" fill="#F2F6FA"/>
<path d="M93.6321 8.97266C90.5598 9.00915 87.6164 10.2132 85.3993 12.3405C83.1823 14.4678 81.8576 17.3589 81.6943 20.4271V31.6609C81.6943 31.8869 81.7841 32.1037 81.9439 32.2635C82.1037 32.4234 82.3205 32.5132 82.5465 32.5132H87.1346C87.3607 32.5132 87.5776 32.4234 87.7376 32.2636C87.8976 32.1038 87.9876 31.887 87.9879 31.6609V21.0471C87.9879 17.9502 90.4753 15.2337 93.3106 15.2337H94.2563C94.5745 15.2332 94.8794 15.1065 95.1043 14.8816C95.3293 14.6567 95.4559 14.3517 95.4564 14.0336V10.4649C95.4562 10.069 95.2987 9.68948 95.0187 9.40967C94.7387 9.12985 94.359 8.97266 93.9632 8.97266H93.6321Z" fill="#F2F6FA"/>
<path d="M14.4797 13.5022C12.7448 13.123 11.0477 12.5877 9.40921 11.9028C8.83972 11.7083 8.35628 11.3206 8.04281 10.8069C7.72934 10.2933 7.60562 9.68602 7.69315 9.09064C7.95586 7.89265 9.34721 6.61164 12.4641 6.61164L19.0604 6.60219C19.2867 6.60219 19.5038 6.51228 19.6638 6.35226C19.8238 6.19223 19.9137 5.97519 19.9137 5.74888V0.854981C19.9137 0.628574 19.8239 0.411424 19.6639 0.251231C19.5039 0.0910387 19.2868 0.000903483 19.0604 0.000624999H12.4641C10.1832 -0.0411629 7.92165 0.425508 5.84362 1.36676C4.17152 2.13872 2.73012 3.33415 1.66221 4.83462C0.844732 5.97705 0.319848 7.3025 0.133527 8.69487C-0.0527937 10.0873 0.105132 11.5041 0.593473 12.8212C2.12985 16.9385 6.15678 18.1166 11.7327 19.7454C13.2039 20.1742 14.7151 20.6176 16.3681 21.1599C17.0237 21.2958 17.6095 21.6608 18.0204 22.1894C18.4313 22.718 18.6406 23.3756 18.6107 24.0445C18.4005 25.3917 16.6676 26.8325 12.4641 26.8325H9.67824C9.45211 26.8325 9.23523 26.9222 9.07523 27.082C8.91523 27.2418 8.82521 27.4586 8.82493 27.6847V32.6238C8.82521 32.8499 8.91523 33.0667 9.07523 33.2265C9.23523 33.3863 9.45211 33.4761 9.67824 33.4761H12.4641C15.5045 33.5852 18.5206 32.8968 21.2126 31.4794C23.127 30.4233 24.6349 28.7593 25.4981 26.7505C26.1303 25.3047 26.3333 23.7076 26.0826 22.1496C25.832 20.5917 25.1384 19.1387 24.0846 17.9642C21.365 15.2382 17.8645 14.3576 14.4797 13.5022Z" fill="#F2F6FA"/>
<path d="M34.6359 17.9606C35.178 17.042 35.9503 16.2807 36.8765 15.7518C37.8028 15.223 38.851 14.9448 39.9176 14.9448C40.9842 14.9448 42.0323 15.223 42.9586 15.7518C43.8848 16.2807 44.6571 17.042 45.1992 17.9606H34.6359ZM48.4454 12.1913C46.9931 10.7986 45.2214 9.7833 43.2856 9.23435C41.3498 8.6854 39.3089 8.61956 37.3417 9.0426C35.3746 9.46564 33.5412 10.3647 32.0022 11.6609C30.4631 12.9571 29.2655 14.6109 28.5141 16.4775C27.7628 18.3441 27.4806 20.3665 27.6924 22.3674C27.9042 24.3684 28.6035 26.2869 29.729 27.9548C30.8545 29.6227 32.3719 30.9892 34.1481 31.9345C35.9244 32.8798 37.9054 33.375 39.9176 33.3768C41.7025 33.3711 43.4684 33.0094 45.1119 32.3129C46.7553 31.6164 48.2434 30.5991 49.4889 29.3205L50.008 28.7877C50.0889 28.7044 50.152 28.6054 50.1934 28.4968C50.2347 28.3883 50.2535 28.2724 50.2486 28.1564C50.2437 28.0403 50.2152 27.9265 50.1648 27.8218C50.1144 27.7171 50.0431 27.6239 49.9555 27.5477L49.5593 27.2051L46.5611 24.6105C46.3952 24.4669 46.1803 24.3928 45.9611 24.4036C45.7419 24.4144 45.5353 24.5092 45.3842 24.6683L45.0384 25.0329C44.3711 25.7165 43.5747 26.2609 42.6956 26.6346C41.8164 27.0084 40.8718 27.2041 39.9165 27.2103C38.6721 27.2101 37.4571 26.8315 36.4329 26.1247C35.4086 25.4178 34.6236 24.4162 34.1819 23.2528H50.8455C51.1842 23.2506 51.5097 23.1211 51.7574 22.89C52.005 22.6589 52.1567 22.3431 52.1822 22.0054C52.2096 21.6376 52.2211 21.2635 52.2148 20.8946C52.1987 19.2659 51.8569 17.6568 51.2095 16.1621C50.5622 14.6674 49.6223 13.3173 48.4454 12.1913Z" fill="#F2F6FA"/>
</g>
</g>
<defs>
<clipPath id="clip0_7013_5710">
<rect width="128" height="34" fill="white"/>
</clipPath>
</defs>
</svg>
