<svg width="112" height="28" viewBox="0 0 112 28" fill="none" xmlns="http://www.w3.org/2000/svg">
<g clip-path="url(#clip0_7019_5591)">
<mask id="mask0_7019_5591" style="mask-type:luminance" maskUnits="userSpaceOnUse" x="0" y="0" width="112" height="28">
<path d="M112 0H0V27.7895H112V0Z" fill="white"/>
</mask>
<g mask="url(#mask0_7019_5591)">
<path d="M3.14829 21.8633C3.61391 21.8632 4.07377 21.9602 4.49473 22.1475C4.9157 22.3348 5.2873 22.6075 5.58275 22.9462C5.8782 23.2849 6.09016 23.6811 6.20335 24.1062C6.31654 24.5313 6.32814 24.9747 6.23731 25.4045C6.14649 25.8343 5.95551 26.2398 5.67813 26.5918C5.40074 26.9438 5.04386 27.2334 4.63319 27.44C4.22253 27.6465 3.76831 27.7648 3.30325 27.7862C2.83818 27.8076 2.37386 27.7317 1.94374 27.5638C1.27101 27.3014 0.715769 26.8275 0.372561 26.223C0.029353 25.6186 -0.0805902 24.9207 0.0614561 24.2486C0.203503 23.5763 0.588753 22.9712 1.15159 22.5363C1.71444 22.1014 2.42006 21.8635 3.14829 21.8633Z" fill="#F2F6FA"/>
<path d="M63.1581 17.3317C63.1581 18.2821 62.8587 19.2113 62.2976 20.0016C61.7366 20.7918 60.9391 21.4078 60.0061 21.7716C59.0731 22.1353 58.0464 22.2305 57.0559 22.045C56.0654 21.8596 55.1557 21.4019 54.4416 20.7298C53.7274 20.0578 53.2412 19.2014 53.0441 18.2692C52.8471 17.3371 52.9482 16.3707 53.3347 15.4926C53.7212 14.6145 54.3756 13.864 55.2153 13.3359C56.055 12.8079 57.0422 12.526 58.0521 12.526C59.4058 12.5274 60.7037 13.0341 61.661 13.9351C62.6182 14.836 63.1567 16.0575 63.1581 17.3317ZM68.0278 0.250001H64.3856C64.2876 0.249887 64.1906 0.267957 64.1 0.303177C64.0095 0.338398 63.9271 0.390079 63.8577 0.455264C63.7884 0.520448 63.7334 0.597859 63.6959 0.683068C63.6583 0.768278 63.639 0.859614 63.639 0.951858V9.21228C62.2823 8.30953 60.7185 7.72064 59.0745 7.49347C57.4307 7.2663 55.753 7.40725 54.1779 7.90487C52.6027 8.4025 51.1744 9.24275 50.009 10.3574C48.8437 11.472 47.9741 12.8297 47.4708 14.3201C46.9676 15.8104 46.8449 17.3915 47.1129 18.9348C47.3807 20.4782 48.0315 21.9403 49.0125 23.2024C49.9935 24.4646 51.2769 25.4912 52.7586 26.1989C54.2403 26.9065 55.8783 27.2754 57.5399 27.2754C59.7255 27.2825 61.8584 26.6448 63.639 25.452V26.0759C63.639 26.1682 63.6583 26.2595 63.6959 26.3447C63.7334 26.4299 63.7884 26.5073 63.8577 26.5725C63.9271 26.6377 64.0095 26.6894 64.1 26.7246C64.1906 26.7598 64.2876 26.7778 64.3856 26.7777H68.3313C68.5292 26.7777 68.7189 26.7039 68.8589 26.5723C68.9989 26.4407 69.0776 26.2621 69.0779 26.0759V1.23745C69.0776 0.975476 68.9669 0.724321 68.7701 0.539164C68.5731 0.354007 68.3061 0.250001 68.0278 0.250001Z" fill="#F2F6FA"/>
<path d="M85.3594 25.868V8.2991C85.3594 8.17954 85.3844 8.06115 85.433 7.95069C85.4816 7.84023 85.5528 7.73987 85.6427 7.65533C85.7326 7.57079 85.8391 7.50373 85.9565 7.45797C86.0739 7.41223 86.1996 7.38867 86.3267 7.38867H89.8523C89.9783 7.38889 90.1035 7.41242 90.2198 7.45791C90.3371 7.50337 90.4438 7.57046 90.5331 7.65522C90.6232 7.73965 90.695 7.84 90.744 7.95049C90.7921 8.06098 90.8175 8.17945 90.8175 8.2991V25.8671C90.8175 25.986 90.7921 26.1036 90.744 26.2133C90.6958 26.3243 90.6241 26.4249 90.5331 26.5093C90.4438 26.5943 90.3371 26.6614 90.2198 26.7066C90.1035 26.7521 89.9783 26.7756 89.8523 26.7758H86.3267C86.2004 26.7756 86.0755 26.7522 85.9589 26.7066C85.782 26.6378 85.6308 26.5211 85.5244 26.3714C85.4181 26.2216 85.3612 26.0456 85.3612 25.8654" fill="#F2F6FA"/>
<path d="M88.0897 0.119141C88.9244 0.119371 89.7251 0.431637 90.3157 0.987295C90.9063 1.54295 91.2379 2.29653 91.2379 3.08235C91.2388 3.61911 91.0839 4.14591 90.7917 4.60649C90.4986 5.06708 90.0786 5.44415 89.5754 5.69742C89.0723 5.95071 88.5062 6.07068 87.9366 6.04455C87.3669 6.01841 86.8154 5.84714 86.3412 5.54903C85.8669 5.25092 85.4876 4.83716 85.2438 4.35195C84.9999 3.86674 84.9007 3.32829 84.9566 2.79413C85.0126 2.25995 85.2216 1.75012 85.5615 1.31907C85.9013 0.888026 86.3592 0.551951 86.8861 0.346747C87.2674 0.196399 87.6767 0.119024 88.0897 0.119141Z" fill="#F2F6FA"/>
<path d="M111.529 22.2291L109.213 20.3382C109.092 20.2407 108.952 20.1671 108.801 20.1216C108.65 20.0761 108.49 20.0597 108.332 20.0734C108.176 20.0866 108.025 20.1298 107.887 20.2002C107.75 20.2706 107.629 20.3667 107.533 20.4827C106.837 21.3158 105.88 21.9231 104.799 22.2199C103.717 22.5166 102.564 22.4879 101.501 22.1378C100.437 21.7876 99.5163 21.1336 98.8679 20.267C98.2187 19.4004 97.8731 18.3646 97.8801 17.3043C97.8871 16.244 98.2458 15.2123 98.9056 14.3532C99.5662 13.4942 100.495 12.8507 101.563 12.5128C102.63 12.1749 103.784 12.1594 104.862 12.4686C105.94 12.7777 106.887 13.3959 107.573 14.2369C107.672 14.3577 107.796 14.4584 107.937 14.5327C108.079 14.6071 108.235 14.6537 108.396 14.6697C108.553 14.6857 108.713 14.6708 108.865 14.6262C109.016 14.5816 109.156 14.5079 109.276 14.41L111.594 12.5217C111.823 12.3354 111.967 12.0724 111.995 11.7882C112.022 11.5041 111.932 11.221 111.742 10.9986C110.348 9.35207 108.446 8.15299 106.298 7.56666C104.15 6.98032 101.861 7.0356 99.7482 7.72486C97.6351 8.41415 95.8011 9.70347 94.4991 11.415C93.1971 13.1266 92.4909 15.1762 92.4787 17.2813C92.4664 19.3862 93.148 21.443 94.4299 23.1679C95.7118 24.8929 97.5309 26.2011 99.6362 26.9122C101.741 27.6232 104.029 27.7021 106.184 27.1381C108.339 26.574 110.254 25.3946 111.667 23.7627C111.863 23.5409 111.957 23.2559 111.932 22.9689C111.905 22.682 111.761 22.416 111.529 22.2283" fill="#F2F6FA"/>
<path d="M81.928 7.39062C79.2397 7.42068 76.6643 8.41226 74.7243 10.1642C72.7844 11.9161 71.6253 14.297 71.4824 16.8237V26.0751C71.4824 26.2612 71.561 26.4397 71.7008 26.5713C71.8406 26.703 72.0303 26.777 72.2281 26.777H76.2427C76.4405 26.777 76.6303 26.703 76.7703 26.5714C76.9103 26.4398 76.9891 26.2613 76.9893 26.0751V17.3343C76.9893 14.7839 79.1658 12.5468 81.6467 12.5468H82.4742C82.7526 12.5464 83.0194 12.442 83.2162 12.2568C83.413 12.0716 83.5238 11.8204 83.5243 11.5585V8.61954C83.5241 8.29351 83.3863 7.98095 83.1413 7.75052C82.8963 7.52008 82.564 7.39062 82.2177 7.39062H81.928Z" fill="#F2F6FA"/>
<path d="M12.6701 11.1191C11.152 10.8068 9.66707 10.366 8.23342 9.80195C7.73512 9.64178 7.31211 9.32249 7.03782 8.89945C6.76354 8.47648 6.65528 7.97638 6.73187 7.48606C6.96174 6.49948 8.17917 5.44453 10.9064 5.44453L16.6782 5.43675C16.8762 5.43675 17.0662 5.36271 17.2062 5.23093C17.3462 5.09914 17.4248 4.9204 17.4248 4.73403V0.703758C17.4248 0.517305 17.3462 0.338475 17.2062 0.206552C17.0662 0.0746284 16.8763 0.000399376 16.6782 0.000170036H10.9064C8.91063 -0.0342435 6.93181 0.350074 5.11353 1.12522C3.65044 1.76095 2.38922 2.74542 1.4548 3.98111C0.739507 4.92193 0.280233 6.01348 0.117202 7.16014C-0.0458282 8.30683 0.0923567 9.47361 0.519655 10.5583C1.86398 13.949 5.38755 14.9192 10.2664 16.2606C11.5537 16.6137 12.876 16.9788 14.3224 17.4254C14.8961 17.5374 15.4086 17.838 15.7682 18.2733C16.1277 18.7086 16.3109 19.2501 16.2847 19.801C16.1008 20.9105 14.5845 22.097 10.9064 22.097H8.46882C8.27096 22.097 8.08119 22.1709 7.94119 22.3025C7.80119 22.4341 7.72242 22.6126 7.72218 22.7988V26.8663C7.72242 27.0525 7.80119 27.231 7.94119 27.3626C8.08119 27.4942 8.27096 27.5682 8.46882 27.5682H10.9064C13.5668 27.658 16.2059 27.0911 18.5614 25.9239C20.2365 25.0541 21.5559 23.6838 22.3112 22.0295C22.8643 20.8388 23.042 19.5236 22.8226 18.2405C22.6033 16.9575 21.9964 15.7609 21.0744 14.7937C18.6947 12.5488 15.6318 11.8236 12.6701 11.1191Z" fill="#F2F6FA"/>
<path d="M30.3063 14.7914C30.7806 14.0349 31.4564 13.408 32.2668 12.9724C33.0773 12.5369 33.9945 12.3078 34.9278 12.3078C35.861 12.3078 36.7781 12.5369 37.5886 12.9724C38.3991 13.408 39.0748 14.0349 39.5492 14.7914H30.3063ZM42.3896 10.0402C41.1188 8.89329 39.5686 8.05718 37.8748 7.6051C36.1809 7.15302 34.3951 7.0988 32.6738 7.44719C30.9526 7.79558 29.3484 8.53596 28.0018 9.60342C26.6551 10.6709 25.6072 12.0328 24.9497 13.57C24.2923 15.1072 24.0454 16.7727 24.2307 18.4205C24.416 20.0684 25.0279 21.6484 26.0127 23.0219C26.9975 24.3955 28.3253 25.5208 29.8794 26.2993C31.4337 27.0778 33.1671 27.4856 34.9278 27.4871C36.4895 27.4824 38.0347 27.1845 39.4728 26.6109C40.9107 26.0374 42.2128 25.1996 43.3026 24.1466L43.7569 23.7078C43.8276 23.6392 43.8829 23.5577 43.9191 23.4683C43.9552 23.3789 43.9717 23.2835 43.9674 23.1879C43.9631 23.0923 43.9382 22.9986 43.8941 22.9124C43.85 22.8262 43.7876 22.7494 43.7109 22.6867L43.3642 22.4045L40.7408 20.2678C40.5957 20.1495 40.4076 20.0885 40.2158 20.0974C40.024 20.1063 39.8432 20.1844 39.711 20.3154L39.4085 20.6157C38.8246 21.1786 38.1277 21.6269 37.3585 21.9347C36.5892 22.2425 35.7627 22.4037 34.9268 22.4088C33.8379 22.4086 32.7748 22.0969 31.8786 21.5148C30.9824 20.9326 30.2955 20.1078 29.909 19.1497H44.4897C44.786 19.1479 45.0708 19.0412 45.2876 18.8509C45.5042 18.6606 45.637 18.4005 45.6593 18.1224C45.6833 17.8195 45.6933 17.5114 45.6878 17.2076C45.6737 15.8664 45.3746 14.5412 44.8082 13.3103C44.2418 12.0794 43.4194 10.9675 42.3896 10.0402Z" fill="#F2F6FA"/>
</g>
</g>
<defs>
<clipPath id="clip0_7019_5591">
<rect width="112" height="28" fill="white"/>
</clipPath>
</defs>
</svg>
