<svg width="144" height="48" viewBox="0 0 144 48" fill="none" xmlns="http://www.w3.org/2000/svg">
<g clip-path="url(#clip0_7019_5622)">
<path d="M19.2024 22.771C18.9666 23.0273 18.7523 23.3905 18.5594 23.7537C18.1736 24.5013 17.8951 25.3344 17.7022 26.1889C17.3164 27.8978 17.295 29.7136 17.6165 31.4439C17.7236 31.978 17.8522 32.4907 18.0237 33.0033C18.3451 32.4266 18.6451 31.8285 18.9023 31.2303C19.2667 30.3972 19.5453 29.5427 19.781 28.6455C20.0167 27.7697 20.1882 26.8725 20.2525 25.9966C20.2953 25.5481 20.3168 25.1208 20.2953 24.6722C20.2953 24.245 20.2525 23.8177 20.1667 23.4333C20.1239 23.241 20.081 23.0487 20.0167 22.8992C19.9524 22.7283 19.8881 22.6001 19.8238 22.4933C19.8024 22.4719 19.781 22.4506 19.781 22.4292L19.7595 22.4079L19.7382 22.3865C19.7167 22.3651 19.7167 22.3651 19.6952 22.3438C19.6739 22.3438 19.5881 22.3865 19.5024 22.4506C19.4381 22.5146 19.3095 22.6428 19.2024 22.771Z" fill="#F2F6FA"/>
<path d="M32.5321 17.2186C32.5107 17.9449 32.4893 18.6712 32.4464 19.3975C32.3821 20.3802 32.275 21.3842 32.1464 22.3668C31.8892 24.3321 31.5035 26.2974 30.9462 28.2199C30.6676 29.1812 30.3462 30.1425 29.9819 31.0611C29.8104 31.531 29.5961 32.001 29.3818 32.4495C29.1675 32.9195 28.9531 33.3681 28.696 33.8167C28.2031 34.714 27.6459 35.5897 26.9815 36.4015C26.6601 36.8074 26.2957 37.2132 25.8886 37.5764C25.4814 37.9609 25.0527 38.3027 24.5599 38.6231C24.0669 38.9222 23.5311 39.1999 22.9097 39.3708C22.3096 39.5417 21.6238 39.6058 20.9809 39.4989L20.7451 39.4563C20.6594 39.4349 20.5737 39.4135 20.5094 39.3921C20.3379 39.3494 20.1879 39.2854 20.0379 39.2426C19.7379 39.1145 19.4378 38.9649 19.1807 38.794C18.6449 38.4522 18.2163 38.025 17.8519 37.5978C17.7662 37.491 17.6805 37.3841 17.5948 37.256L17.4662 37.0637L17.4447 37.0851C16.6947 37.8114 15.8375 38.4522 14.8945 38.9649C14.7659 39.029 14.6587 39.0931 14.5301 39.1358C14.4016 39.1999 14.2944 39.2426 14.1659 39.3067C13.9087 39.4135 13.6729 39.4989 13.4157 39.5844C13.1586 39.6698 12.88 39.7339 12.6013 39.7981C12.3228 39.8621 12.0227 39.8835 11.7013 39.8835C11.3798 39.8835 11.0369 39.8407 10.694 39.7126C10.3511 39.6058 10.0083 39.4135 9.75106 39.1571C9.47248 38.9222 9.2582 38.6231 9.10813 38.3454C8.95813 38.0677 8.82954 37.7687 8.76525 37.491C8.5938 36.9355 8.5295 36.4015 8.50808 35.8674C8.46521 35.3548 8.48665 34.8421 8.50808 34.3294C8.55094 33.3254 8.65809 32.3428 8.78667 31.4029C8.91526 30.4416 9.04385 29.5016 9.17243 28.5617L9.21527 28.2199C9.23673 28.0918 9.23673 28.0063 9.23673 27.8995L9.2582 27.7286V27.5791C9.2582 27.4723 9.2582 27.3654 9.2582 27.2586C9.2582 26.8527 9.1939 26.4469 9.08667 26.1479C9.02242 26.0196 8.95813 25.9128 8.89383 25.8487C8.82954 25.7847 8.80811 25.7633 8.72238 25.7633C8.63666 25.7633 8.50808 25.7633 8.35806 25.8061C8.27233 25.8487 8.20804 25.8701 8.12232 25.9128C8.07945 25.9342 8.0366 25.9556 7.99373 25.977L7.86515 26.0624C7.54368 26.276 7.20079 26.5537 6.90076 26.8741C6.60072 27.1945 6.30069 27.5363 6.00066 27.8995C5.44345 28.6258 4.90768 29.4162 4.39334 30.2066C4.28618 30.3561 4.0933 30.3988 3.94329 30.3134C3.8147 30.2279 3.77184 30.0784 3.8147 29.9502C3.96472 29.4802 4.11474 29.0103 4.32904 28.5617C4.52192 28.1131 4.73623 27.6645 4.9934 27.2159C5.25057 26.7887 5.52918 26.3614 5.85064 25.9556C6.17211 25.5497 6.53643 25.1652 7.00791 24.8234L7.17936 24.6952C7.24365 24.6525 7.30794 24.6098 7.37223 24.5884C7.50082 24.503 7.65084 24.4389 7.77943 24.3748C8.07945 24.2466 8.42236 24.1612 8.82954 24.2039C8.9367 24.2252 9.02242 24.2252 9.12959 24.2466C9.23673 24.268 9.32241 24.3107 9.42964 24.3321C9.51531 24.3748 9.62245 24.4175 9.70822 24.4816C9.7939 24.5457 9.87966 24.6098 9.94396 24.6739C10.244 24.9302 10.4368 25.2506 10.5654 25.5497C10.8226 26.1479 10.8869 26.7032 10.9083 27.2586C10.9083 27.3868 10.9083 27.5363 10.9083 27.6645V27.8567L10.8869 28.049C10.8869 28.1772 10.8655 28.3267 10.8655 28.4336L10.8226 28.7967C10.7369 29.7794 10.6083 30.7193 10.5011 31.6592C10.394 32.5991 10.3083 33.539 10.2868 34.4576C10.2654 34.9061 10.2868 35.3548 10.3083 35.8034C10.3511 36.2306 10.4154 36.6579 10.5226 36.9997C10.5869 37.1706 10.6512 37.3415 10.7155 37.4696C10.8012 37.5978 10.8869 37.7045 10.9726 37.7687C11.0584 37.8328 11.1441 37.8968 11.2727 37.9182C11.3798 37.9609 11.5299 37.9823 11.6798 37.9823C12.3228 37.9823 13.2229 37.6405 13.9515 37.256C14.7016 36.8501 15.3874 36.3161 16.0089 35.6966C16.1589 35.547 16.2875 35.4188 16.4161 35.2693C16.3518 35.1412 16.2875 34.9916 16.2446 34.8635C15.8375 33.9021 15.5374 32.8982 15.366 31.8728C15.1731 30.8474 15.1088 29.8007 15.1302 28.7754C15.1517 27.75 15.2803 26.7032 15.5159 25.6992C15.7517 24.6952 16.0947 23.6913 16.5875 22.7299C16.8447 22.2599 17.1448 21.7686 17.552 21.3201C17.7662 21.085 17.9805 20.8715 18.2806 20.6792C18.5806 20.4869 18.9235 20.2947 19.395 20.2093C19.6307 20.1665 19.8879 20.1665 20.1237 20.2093C20.3808 20.252 20.5952 20.3374 20.8094 20.4656C20.9166 20.5297 21.0023 20.5937 21.088 20.6578C21.1738 20.722 21.2595 20.786 21.3238 20.8715L21.4309 20.9783C21.4737 21.021 21.4952 21.0424 21.5167 21.085C21.581 21.1492 21.6238 21.2347 21.6881 21.2987C21.881 21.5977 22.031 21.8969 22.1167 22.1959C22.2239 22.495 22.2882 22.7726 22.3524 23.0503C22.4596 23.6058 22.5025 24.1398 22.5025 24.6739C22.5025 25.2079 22.481 25.7206 22.4167 26.2333C22.3096 27.2586 22.1167 28.2413 21.8381 29.2239C21.581 30.2066 21.2381 31.1465 20.8308 32.0864C20.4236 33.005 19.9522 33.9021 19.395 34.7566C19.2878 34.9275 19.1807 35.077 19.0736 35.2479L19.1807 35.4188L19.3521 35.6752L19.5236 35.9101L19.7165 36.1452C19.9736 36.4442 20.2308 36.6792 20.5309 36.8501C20.6808 36.9355 20.8094 36.9997 20.9594 37.0637C21.0237 37.0851 21.1095 37.1064 21.1738 37.1278C21.2166 37.1278 21.2381 37.1492 21.2809 37.1492L21.3881 37.1706C21.538 37.1918 21.6881 37.1918 21.8381 37.1706C21.9882 37.1706 22.1381 37.1278 22.3096 37.0851C22.6311 36.9783 22.9525 36.8288 23.274 36.6151C23.9169 36.1879 24.5169 35.5897 25.0313 34.9061C25.2885 34.5643 25.5457 34.2013 25.7814 33.8381C26.0172 33.4535 26.2314 33.0691 26.4457 32.6846C27.2601 31.0824 27.8602 29.3521 28.3103 27.5791C29.1889 24.0117 29.4246 20.2733 29.1889 16.5777C29.1889 16.5564 29.1889 16.535 29.1889 16.5136C29.1675 16.2146 29.0817 15.1252 28.8889 14.057C25.9529 12.1131 22.4382 11.0023 18.6449 11.0023C8.3152 10.9382 0 19.248 0 29.4802C0 39.7126 8.3152 48.001 18.5806 48.001C28.846 48.001 37.1612 39.7126 37.1612 29.4802C37.1827 24.7807 35.4253 20.4869 32.5321 17.2186Z" fill="#F2F6FA"/>
<path d="M35.7689 3.71651L31.8042 3.99421L30.5183 0.149081C30.454 -0.0218132 30.1969 -0.000451352 30.1754 0.191805L29.554 4.82732L26.275 7.19848C26.1464 7.30528 26.2107 7.49755 26.3607 7.5189L29.7682 7.79661L31.1827 11.2145C31.247 11.3854 31.4827 11.364 31.5256 11.1718L32.3399 7.07031L35.9189 4.05829C36.0261 3.90876 35.9403 3.69514 35.7689 3.71651Z" fill="#F2F6FA"/>
<path d="M59.7489 25.1211H62.9636L59.2131 35.6738H56.6629L54.4984 28.838L52.3981 35.6951H49.8478L45.9902 25.1425H49.2049L51.198 31.5937L53.2125 25.1425H55.7199L57.7344 31.5937L59.7489 25.1211Z" fill="#F2F6FA"/>
<path d="M63.3281 30.4193C63.3281 27.0655 66.007 24.8652 69.0287 24.8652C72.0505 24.8652 74.7294 27.0869 74.7294 30.4193C74.7294 33.7518 72.0505 35.9521 69.0287 35.9521C65.9856 35.9521 63.3281 33.7518 63.3281 30.4193ZM71.6862 30.4193C71.6862 28.7744 70.4861 27.6209 69.0073 27.6209C67.5286 27.6209 66.3285 28.7744 66.3285 30.4193C66.3285 32.0429 67.5286 33.1964 69.0073 33.1964C70.4861 33.1964 71.6862 32.0429 71.6862 30.4193Z" fill="#F2F6FA"/>
<path d="M84.4582 25.2069L83.7724 28.0267C83.1295 27.6849 82.6152 27.6421 82.2508 27.6421C80.7292 27.6421 79.6791 29.0735 79.6791 32.064V35.6742H76.7217V25.1215H79.6791V27.3858C80.2792 25.6128 81.4793 24.8438 82.7866 24.8438C83.3438 24.8651 83.9867 24.9506 84.4582 25.2069Z" fill="#F2F6FA"/>
<path d="M93.5663 19.3965H96.545V35.6956H93.5663V34.3925C92.8164 35.4819 91.3374 35.9732 90.1589 35.9732C87.4372 35.9732 84.9727 33.7943 84.9727 30.4192C84.9727 27.044 87.4372 24.8865 90.1589 24.8865C91.3809 24.8865 92.8164 25.3565 93.5663 26.4459V19.3965ZM93.4812 30.3978C93.4812 28.7743 92.1091 27.6208 90.7379 27.6208C89.2374 27.6208 87.9944 28.8384 87.9944 30.3978C87.9944 31.9359 89.2374 33.1962 90.7379 33.1962C92.1734 33.1962 93.4812 31.9999 93.4812 30.3978Z" fill="#F2F6FA"/>
<path d="M105.311 25.1224V27.4295H103.061V35.6752H100.082V27.4295H98.1533V25.1224H100.082V21.2773H103.061V25.1224H105.311Z" fill="#F2F6FA"/>
<path d="M114.098 25.1211H117.077V35.6738H114.098V33.9649C113.648 35.3534 111.955 35.9515 110.926 35.9515C108.161 35.9515 106.704 34.093 106.726 30.9314V25.1211H109.705V30.7819C109.705 32.4268 110.712 33.1959 111.72 33.1959C112.791 33.1959 114.098 32.5977 114.098 30.7179V25.1211Z" fill="#F2F6FA"/>
<path d="M130.064 29.9067V35.6957H127.085V30.0562C127.085 28.4113 126.078 27.6636 125.07 27.6636C123.998 27.6636 122.692 28.2191 122.692 30.1416V35.6743H119.713V25.1216H122.692V26.916C123.142 25.4847 124.834 24.8652 125.863 24.8652C128.628 24.8652 130.085 26.7451 130.064 29.9067Z" fill="#F2F6FA"/>
<path d="M143.029 31.3809H135.058C135.379 32.6198 136.365 33.3461 137.779 33.3461C138.872 33.3461 139.922 32.8548 140.565 32.1072L142.28 33.8588C141.272 35.1833 139.451 35.995 137.586 35.995C134.329 35.995 131.929 33.7093 131.929 30.4623C131.929 27.0444 134.543 24.9082 137.565 24.9082C140.609 24.9082 143.073 27.0658 143.073 30.2914C143.094 30.5264 143.073 30.8895 143.029 31.3809ZM140.115 29.4583C140.03 28.2193 139.001 27.4289 137.672 27.4289C136.451 27.4289 135.4 28.0484 135.079 29.4583H140.115Z" fill="#F2F6FA"/>
</g>
<defs>
<clipPath id="clip0_7019_5622">
<rect width="143.094" height="48" fill="white"/>
</clipPath>
</defs>
</svg>
