<svg width="158" height="53" viewBox="0 0 158 53" fill="none" xmlns="http://www.w3.org/2000/svg">
<g clip-path="url(#clip0_7014_5529)">
<path d="M21.2024 25.1437C20.9421 25.4267 20.7054 25.8277 20.4925 26.2287C20.0665 27.0542 19.7589 27.9741 19.5459 28.9176C19.12 30.8045 19.0963 32.8094 19.4513 34.72C19.5696 35.3097 19.7116 35.8758 19.9009 36.4418C20.2558 35.805 20.5871 35.1446 20.8711 34.4841C21.2734 33.5642 21.581 32.6207 21.8413 31.6301C22.1016 30.663 22.2909 29.6724 22.3619 28.7053C22.4092 28.21 22.4329 27.7382 22.4092 27.2429C22.4092 26.7712 22.3619 26.2994 22.2672 25.8749C22.2199 25.6626 22.1726 25.4503 22.1016 25.2852C22.0306 25.0965 21.9596 24.955 21.8886 24.837C21.8649 24.8134 21.8413 24.7899 21.8413 24.7663L21.8176 24.7427L21.794 24.7191C21.7703 24.6955 21.7703 24.6955 21.7466 24.6719C21.723 24.6719 21.6283 24.7191 21.5337 24.7899C21.4627 24.8606 21.3207 25.0021 21.2024 25.1437Z" fill="#F2F6FA"/>
<path d="M35.9209 19.0107C35.8973 19.8127 35.8736 20.6146 35.8263 21.4166C35.7553 22.5016 35.637 23.6102 35.495 24.6952C35.211 26.8652 34.7851 29.0352 34.1698 31.158C33.8622 32.2194 33.5073 33.2808 33.105 34.2951C32.9157 34.814 32.6791 35.3329 32.4424 35.8282C32.2058 36.3471 31.9691 36.8425 31.6852 37.3378C31.1409 38.3285 30.5257 39.2955 29.7921 40.1918C29.4372 40.64 29.0349 41.0881 28.5853 41.4891C28.1357 41.9137 27.6624 42.2911 27.1182 42.6449C26.5739 42.9751 25.9823 43.2817 25.2961 43.4704C24.6335 43.6591 23.8763 43.7299 23.1664 43.6119L22.9061 43.5648C22.8114 43.5412 22.7168 43.5176 22.6458 43.494C22.4565 43.4468 22.2908 43.3761 22.1252 43.3289C21.7939 43.1874 21.4626 43.0223 21.1787 42.8336C20.5871 42.4562 20.1138 41.9844 19.7115 41.5127C19.6169 41.3948 19.5222 41.2768 19.4276 41.1353L19.2856 40.923L19.2619 40.9466C18.4337 41.7486 17.4872 42.4562 16.446 43.0223C16.304 43.093 16.1857 43.1638 16.0437 43.211C15.9018 43.2817 15.7834 43.3289 15.6415 43.3997C15.3575 43.5176 15.0972 43.6119 14.8132 43.7063C14.5293 43.8006 14.2217 43.8714 13.914 43.9422C13.6064 44.0129 13.2751 44.0365 12.9202 44.0365C12.5652 44.0365 12.1866 43.9893 11.808 43.8478C11.4294 43.7299 11.0508 43.5176 10.7668 43.2345C10.4592 42.9751 10.2226 42.6449 10.0569 42.3382C9.89127 42.0316 9.74929 41.7014 9.6783 41.3948C9.48899 40.7815 9.418 40.1918 9.39434 39.6021C9.34701 39.0361 9.37068 38.47 9.39434 37.9039C9.44167 36.7953 9.55998 35.7103 9.70196 34.6725C9.84394 33.6111 9.98592 32.5732 10.1279 31.5354L10.1752 31.158C10.1989 31.0165 10.1989 30.9221 10.1989 30.8042L10.2226 30.6155V30.4504C10.2226 30.3325 10.2226 30.2145 10.2226 30.0966C10.2226 29.6484 10.1516 29.2003 10.0332 28.8701C9.96226 28.7285 9.89127 28.6106 9.82028 28.5398C9.74929 28.4691 9.72563 28.4455 9.63097 28.4455C9.53632 28.4455 9.39434 28.4455 9.2287 28.4927C9.13404 28.5398 9.06305 28.5634 8.9684 28.6106C8.92107 28.6342 8.87375 28.6578 8.82642 28.6814L8.68444 28.7757C8.32949 29.0116 7.95088 29.3182 7.61959 29.672C7.2883 30.0258 6.95702 30.4032 6.62573 30.8042C6.01048 31.6062 5.4189 32.4789 4.85098 33.3516C4.73266 33.5167 4.51969 33.5639 4.35405 33.4695C4.21207 33.3752 4.16474 33.2101 4.21207 33.0685C4.37771 32.5496 4.54336 32.0307 4.77999 31.5354C4.99296 31.0401 5.22959 30.5447 5.51355 30.0494C5.79751 29.5777 6.10514 29.1059 6.46009 28.6578C6.81504 28.2096 7.21731 27.7851 7.73791 27.4077L7.92721 27.2661C7.9982 27.219 8.06919 27.1718 8.14018 27.1482C8.28216 27.0539 8.44781 26.9831 8.58979 26.9123C8.92107 26.7708 9.29969 26.6765 9.74929 26.7236C9.86761 26.7472 9.96226 26.7472 10.0806 26.7708C10.1989 26.7944 10.2935 26.8416 10.4119 26.8652C10.5065 26.9123 10.6248 26.9595 10.7195 27.0303C10.8141 27.101 10.9088 27.1718 10.9798 27.2426C11.3111 27.5256 11.524 27.8794 11.666 28.2096C11.95 28.8701 12.021 29.4833 12.0446 30.0966C12.0446 30.2381 12.0446 30.4032 12.0446 30.5447V30.757L12.021 30.9693C12.021 31.1108 11.9973 31.2759 11.9973 31.3939L11.95 31.7949C11.8553 32.8799 11.7133 33.9177 11.595 34.9555C11.4767 35.9933 11.3821 37.0312 11.3584 38.0454C11.3347 38.5407 11.3584 39.0361 11.3821 39.5314C11.4294 40.0031 11.5004 40.4749 11.6187 40.8523C11.6897 41.041 11.7607 41.2297 11.8317 41.3712C11.9263 41.5127 12.021 41.6306 12.1156 41.7014C12.2103 41.7722 12.3049 41.8429 12.4469 41.8665C12.5652 41.9137 12.7309 41.9373 12.8965 41.9373C13.6064 41.9373 14.6003 41.5599 15.4048 41.1353C16.233 40.6872 16.9903 40.0975 17.6765 39.4135C17.8421 39.2483 17.9841 39.1068 18.1261 38.9417C18.0551 38.8002 17.9841 38.6351 17.9368 38.4936C17.4872 37.4321 17.1559 36.3236 16.9666 35.1914C16.7536 34.0592 16.6826 32.9034 16.7063 31.7713C16.73 30.6391 16.872 29.4833 17.1322 28.3747C17.3925 27.2661 17.7712 26.1576 18.3154 25.0961C18.5994 24.5772 18.9307 24.0347 19.3803 23.5394C19.6169 23.2799 19.8535 23.0441 20.1848 22.8318C20.5161 22.6195 20.8947 22.4072 21.4153 22.3129C21.6756 22.2657 21.9596 22.2657 22.2199 22.3129C22.5038 22.3601 22.7405 22.4544 22.9771 22.5959C23.0954 22.6667 23.1901 22.7374 23.2847 22.8082C23.3794 22.879 23.474 22.9497 23.545 23.0441L23.6633 23.162C23.7106 23.2092 23.7343 23.2328 23.758 23.2799C23.829 23.3507 23.8763 23.4451 23.9473 23.5158C24.1603 23.846 24.3259 24.1763 24.4205 24.5065C24.5389 24.8367 24.6099 25.1433 24.6808 25.4499C24.7992 26.0632 24.8465 26.6529 24.8465 27.2426C24.8465 27.8322 24.8228 28.3983 24.7518 28.9644C24.6335 30.0966 24.4205 31.1816 24.1129 32.2666C23.829 33.3516 23.4504 34.3894 23.0007 35.4272C22.5511 36.4415 22.0306 37.4321 21.4153 38.3756C21.297 38.5643 21.1787 38.7294 21.0604 38.9181L21.1787 39.1068L21.368 39.3899L21.5573 39.6493L21.7703 39.9088C22.0542 40.239 22.3382 40.4985 22.6695 40.6872C22.8351 40.7815 22.9771 40.8523 23.1427 40.923C23.2137 40.9466 23.3084 40.9702 23.3794 40.9938C23.4267 40.9938 23.4504 41.0174 23.4977 41.0174L23.616 41.041C23.7816 41.0645 23.9473 41.0645 24.1129 41.041C24.2786 41.041 24.4442 40.9938 24.6335 40.9466C24.9885 40.8287 25.3434 40.6636 25.6984 40.4277C26.4083 39.956 27.0708 39.2955 27.6388 38.5407C27.9227 38.1633 28.2067 37.7624 28.467 37.3614C28.7273 36.9368 28.9639 36.5123 29.2005 36.0877C30.0997 34.3187 30.7623 32.4081 31.2593 30.4504C32.2294 26.5114 32.4897 22.3836 32.2294 18.3031C32.2294 18.2795 32.2294 18.2559 32.2294 18.2323C32.2058 17.9021 32.1111 16.6992 31.8982 15.5198C28.6563 13.3734 24.7755 12.1469 20.5871 12.1469C9.18137 12.0761 0 21.2515 0 32.5496C0 43.8478 9.18137 52.9996 20.5161 52.9996C31.8508 52.9996 41.0322 43.8478 41.0322 32.5496C41.0559 27.3605 39.1155 22.6195 35.9209 19.0107Z" fill="#F2F6FA"/>
<path d="M39.4945 4.10409L35.1168 4.41072L33.697 0.165058C33.626 -0.0236378 33.3421 -5.07832e-05 33.3184 0.212232L32.6322 5.33061L29.0117 7.94877C28.8697 8.0667 28.9407 8.27899 29.1063 8.30257L32.8688 8.60921L34.4306 12.3831C34.5016 12.5718 34.7619 12.5482 34.8092 12.336L35.7084 7.80725L39.6602 4.48148C39.7785 4.31637 39.6838 4.0805 39.4945 4.10409Z" fill="#F2F6FA"/>
<path d="M65.9731 27.7383H69.5226L65.3815 39.3903H62.5657L60.1756 31.8424L57.8567 39.4138H55.0406L50.7812 27.7619H54.3307L56.5314 34.8851L58.7558 27.7619H61.5244L63.7487 34.8851L65.9731 27.7383Z" fill="#F2F6FA"/>
<path d="M69.9248 33.5877C69.9248 29.8846 72.8827 27.4551 76.2192 27.4551C79.5558 27.4551 82.5137 29.9082 82.5137 33.5877C82.5137 37.2673 79.5558 39.6968 76.2192 39.6968C72.8591 39.6968 69.9248 37.2673 69.9248 33.5877ZM79.1535 33.5877C79.1535 31.7715 77.8284 30.4978 76.1956 30.4978C74.5628 30.4978 73.2377 31.7715 73.2377 33.5877C73.2377 35.3804 74.5628 36.6541 76.1956 36.6541C77.8284 36.6541 79.1535 35.3804 79.1535 33.5877Z" fill="#F2F6FA"/>
<path d="M93.2563 27.8326L92.4991 30.9461C91.7892 30.5687 91.2213 30.5215 90.819 30.5215C89.1389 30.5215 87.9794 32.1019 87.9794 35.404V39.3902H84.7139V27.7383H87.9794V30.2385C88.642 28.2808 89.9671 27.4316 91.4106 27.4316C92.0258 27.4552 92.7357 27.5496 93.2563 27.8326Z" fill="#F2F6FA"/>
<path d="M103.313 21.418H106.602V39.4149H103.313V37.9761C102.485 39.179 100.852 39.7215 99.5507 39.7215C96.5455 39.7215 93.8242 37.3156 93.8242 33.5889C93.8242 29.8621 96.5455 27.4799 99.5507 27.4799C100.9 27.4799 102.485 27.9988 103.313 29.2017V21.418ZM103.219 33.5653C103.219 31.7727 101.704 30.499 100.19 30.499C98.5332 30.499 97.1607 31.8434 97.1607 33.5653C97.1607 35.2636 98.5332 36.6552 100.19 36.6552C101.775 36.6552 103.219 35.3343 103.219 33.5653Z" fill="#F2F6FA"/>
<path d="M116.281 27.7378V30.2852H113.797V39.3898H110.508V30.2852H108.378V27.7378H110.508V23.4922H113.797V27.7378H116.281Z" fill="#F2F6FA"/>
<path d="M125.983 27.7383H129.272V39.3903H125.983V37.5033C125.486 39.0365 123.617 39.6969 122.481 39.6969C119.428 39.6969 117.819 37.6448 117.843 34.1539V27.7383H121.132V33.9888C121.132 35.805 122.244 36.6542 123.357 36.6542C124.54 36.6542 125.983 35.9937 125.983 33.9181V27.7383Z" fill="#F2F6FA"/>
<path d="M143.612 33.0217V39.4137H140.323V33.1868C140.323 31.3706 139.211 30.545 138.098 30.545C136.915 30.545 135.472 31.1583 135.472 33.2811V39.3901H132.183V27.7382H135.472V29.7195C135.969 28.1391 137.838 27.4551 138.974 27.4551C142.027 27.4551 143.636 29.5308 143.612 33.0217Z" fill="#F2F6FA"/>
<path d="M157.928 34.6489H149.126C149.481 36.0169 150.569 36.8189 152.131 36.8189C153.338 36.8189 154.497 36.2764 155.207 35.4509L157.1 37.385C155.988 38.8474 153.977 39.7437 151.918 39.7437C148.321 39.7437 145.671 37.2199 145.671 33.6347C145.671 29.8607 148.558 27.502 151.894 27.502C155.255 27.502 157.976 29.8843 157.976 33.446C157.999 33.7054 157.976 34.1064 157.928 34.6489ZM154.71 32.5261C154.616 31.158 153.48 30.2853 152.013 30.2853C150.664 30.2853 149.504 30.9693 149.149 32.5261H154.71Z" fill="#F2F6FA"/>
</g>
<defs>
<clipPath id="clip0_7014_5529">
<rect width="158" height="53" fill="white"/>
</clipPath>
</defs>
</svg>
