<svg width="159" height="40" viewBox="0 0 159 40" fill="none" xmlns="http://www.w3.org/2000/svg">
<path d="M23.4622 9.18518H14.9229V32H17.3348V24.797H23.4622C29.2636 24.797 32.7837 21.8637 32.7837 17.0074C32.7837 12.1185 29.2636 9.18518 23.4622 9.18518ZM23.397 22.6785H17.3348V11.2711H23.397C27.9599 11.2711 30.3718 13.357 30.3718 17.0074C30.3718 20.5926 27.9599 22.6785 23.397 22.6785ZM53.8988 32H56.441L46.0114 9.18518H43.6321L33.2025 32H35.7121L38.4499 25.9052H51.161L53.8988 32ZM39.3299 23.9496L44.8055 11.6948L50.281 23.9496H39.3299ZM76.9026 9.18518V27.6978L62.2033 9.18518H60.2152V32H62.627V13.4874L77.2937 32H79.2818V9.18518H76.9026ZM103.123 32H105.991L95.4307 19.517L105.306 9.18518H102.536L89.1403 22.9719V9.18518H86.7285V32H89.1403V26.003L93.8011 21.277L103.123 32ZM112.312 29.9141V21.44H124.11V19.3867H112.312V11.2711H125.544V9.18518H109.9V32H126.033V29.9141H112.312ZM149.922 32L144.348 24.1778C147.673 23.1022 149.563 20.5926 149.563 17.0074C149.563 12.1185 146.043 9.18518 140.242 9.18518H131.702V32H134.114V24.7644H140.242C140.894 24.7644 141.48 24.7319 142.067 24.6667L147.282 32H149.922ZM140.177 22.7111H134.114V11.2711H140.177C144.739 11.2711 147.151 13.357 147.151 17.0074C147.151 20.5926 144.739 22.7111 140.177 22.7111ZM154.995 32.163C155.94 32.163 156.755 31.3807 156.755 30.3704C156.755 29.36 155.94 28.6104 154.995 28.6104C154.05 28.6104 153.268 29.36 153.268 30.3704C153.268 31.3807 154.05 32.163 154.995 32.163Z" fill="#F8FAFC"/>
<path d="M11 31.5656H3.07819V28.3403C3.07819 27.4953 3.24794 26.7559 3.58745 26.1222C3.91941 25.4809 4.3834 24.983 4.97942 24.6284C5.57545 24.2738 6.262 24.0965 7.03909 24.0965C7.81619 24.0965 8.50274 24.2738 9.09877 24.6284C9.69479 24.983 10.1626 25.4809 10.5021 26.1222C10.834 26.7559 11 27.4953 11 28.3403V31.5656ZM10.2757 30.7282V28.3856C10.2757 27.6839 10.1399 27.0766 9.86831 26.5635C9.58916 26.043 9.20816 25.6393 8.72531 25.3526C8.23491 25.0659 7.67284 24.9226 7.03909 24.9226C6.3978 24.9226 5.83573 25.0659 5.35288 25.3526C4.87003 25.6393 4.4928 26.043 4.22119 26.5635C3.94204 27.0766 3.80247 27.6839 3.80247 28.3856V30.7282H10.2757ZM6.62037 21.469V17.2818H7.33333V21.469H6.62037ZM10.2757 21.3785V16.6141H11V22.2159H3.07819V16.7838H3.80247V21.3785H10.2757ZM11 12.504L3.07819 16.0122V15.1069L10.536 11.825V12.3229L3.07819 9.01841L3.07819 8.16965L11 11.6779V12.504Z" fill="#F8FAFC"/>
</svg>
