<svg width="193" height="55" viewBox="0 0 193 55" fill="none" xmlns="http://www.w3.org/2000/svg">
<g clip-path="url(#clip0_6458_5513)">
<path d="M35.4622 9.18518H26.9229V32H29.3348V24.797H35.4622C41.2636 24.797 44.7837 21.8637 44.7837 17.0074C44.7837 12.1185 41.2636 9.18518 35.4622 9.18518ZM35.397 22.6785H29.3348V11.2711H35.397C39.9599 11.2711 42.3718 13.357 42.3718 17.0074C42.3718 20.5926 39.9599 22.6785 35.397 22.6785ZM65.8988 32H68.441L58.0114 9.18518H55.6321L45.2025 32H47.7121L50.4499 25.9052H63.161L65.8988 32ZM51.3299 23.9496L56.8055 11.6948L62.281 23.9496H51.3299ZM88.9026 9.18518V27.6978L74.2033 9.18518H72.2152V32H74.627V13.4874L89.2937 32H91.2818V9.18518H88.9026ZM115.123 32H117.991L107.431 19.517L117.306 9.18518H114.536L101.14 22.9719V9.18518H98.7285V32H101.14V26.003L105.801 21.277L115.123 32ZM124.312 29.9141V21.44H136.11V19.3867H124.312V11.2711H137.544V9.18518H121.9V32H138.033V29.9141H124.312ZM161.922 32L156.348 24.1778C159.673 23.1022 161.563 20.5926 161.563 17.0074C161.563 12.1185 158.043 9.18518 152.242 9.18518H143.702V32H146.114V24.7644H152.242C152.894 24.7644 153.48 24.7319 154.067 24.6667L159.282 32H161.922ZM152.177 22.7111H146.114V11.2711H152.177C156.739 11.2711 159.151 13.357 159.151 17.0074C159.151 20.5926 156.739 22.7111 152.177 22.7111ZM166.995 32.163C167.94 32.163 168.755 31.3807 168.755 30.3704C168.755 29.36 167.94 28.6104 166.995 28.6104C166.05 28.6104 165.268 29.36 165.268 30.3704C165.268 31.3807 166.05 32.163 166.995 32.163Z" fill="#F8FAFC"/>
<path d="M80.5714 51.3086H85.2158C88.8662 51.3086 91.3269 48.9619 91.3269 45.6049C91.3269 42.2479 88.8662 39.9012 85.2158 39.9012H80.5714V51.3086ZM81.7773 50.2656V40.9441H85.1507C88.1818 40.9441 90.1373 42.8671 90.1373 45.6049C90.1373 48.3427 88.1818 50.2656 85.1507 50.2656H81.7773ZM95.2409 50.2656V46.0286H101.14V45.0019H95.2409V40.9441H101.857V39.9012H94.0349V51.3086H102.102V50.2656H95.2409ZM113.039 39.9012L108.639 49.8093L104.272 39.9012H102.968L108.02 51.3086H109.21L114.262 39.9012H113.039Z" fill="#F8FAFC"/>
<line x1="0.419922" y1="45.1546" x2="65.6051" y2="45.1546" stroke="#F8FAFC" stroke-width="0.679012"/>
<line x1="127.396" y1="45.1546" x2="192.581" y2="45.1546" stroke="#F8FAFC" stroke-width="0.679012"/>
</g>
<defs>
<clipPath id="clip0_6458_5513">
<rect width="192.16" height="55" fill="white" transform="translate(0.419922)"/>
</clipPath>
</defs>
</svg>
