<svg width="32" height="32" viewBox="0 0 32 32" fill="none" xmlns="http://www.w3.org/2000/svg">
<g clip-path="url(#clip0_7017_5521)">
<path d="M15.666 16.0003C15.666 14.5858 16.2279 13.2293 17.2281 12.2291C18.2283 11.2289 19.5849 10.667 20.9993 10.667C22.4138 10.667 23.7704 11.2289 24.7706 12.2291C25.7708 13.2293 26.3327 14.5858 26.3327 16.0003C26.3327 17.4148 25.7708 18.7714 24.7706 19.7716C23.7704 20.7718 22.4138 21.3337 20.9993 21.3337C19.5849 21.3337 18.2283 20.7718 17.2281 19.7716C16.2279 18.7714 15.666 17.4148 15.666 16.0003V16.0003Z" fill="#1ABCFE"/>
<path d="M5 26.6663C5 25.2519 5.5619 23.8953 6.5621 22.8951C7.56229 21.8949 8.91885 21.333 10.3333 21.333H15.6667V26.6663C15.6667 28.0808 15.1048 29.4374 14.1046 30.4376C13.1044 31.4378 11.7478 31.9997 10.3333 31.9997C8.91885 31.9997 7.56229 31.4378 6.5621 30.4376C5.5619 29.4374 5 28.0808 5 26.6663H5Z" fill="#0ACF83"/>
<path d="M15.666 0V10.6667H20.9993C22.4138 10.6667 23.7704 10.1048 24.7706 9.10457C25.7708 8.10438 26.3327 6.74782 26.3327 5.33333C26.3327 3.91885 25.7708 2.56229 24.7706 1.5621C23.7704 0.561903 22.4138 0 20.9993 0L15.666 0Z" fill="#FF7262"/>
<path d="M5 5.33333C5 6.74782 5.5619 8.10438 6.5621 9.10457C7.56229 10.1048 8.91885 10.6667 10.3333 10.6667H15.6667V0H10.3333C8.91885 0 7.56229 0.561903 6.5621 1.5621C5.5619 2.56229 5 3.91885 5 5.33333H5Z" fill="#F24E1E"/>
<path d="M5 16.0003C5 17.4148 5.5619 18.7714 6.5621 19.7716C7.56229 20.7718 8.91885 21.3337 10.3333 21.3337H15.6667V10.667H10.3333C8.91885 10.667 7.56229 11.2289 6.5621 12.2291C5.5619 13.2293 5 14.5858 5 16.0003H5Z" fill="#A259FF"/>
</g>
<defs>
<clipPath id="clip0_7017_5521">
<rect width="21.3333" height="32" fill="white" transform="translate(5)"/>
</clipPath>
</defs>
</svg>
