<svg width="32" height="32" viewBox="0 0 32 32" fill="none" xmlns="http://www.w3.org/2000/svg">
<g clip-path="url(#clip0_7016_5567)">
<path d="M7.06294 29.429L5 6.29004H27.6688L25.6036 29.4254L16.3205 31.999L7.06294 29.429Z" fill="black"/>
<path d="M16.334 30.0315L23.8352 27.9519L25.6 8.18164H16.334V30.0315Z" fill="black"/>
<path d="M16.3349 16.7635H12.5796L12.3202 13.8575H16.3349V11.0195H9.21875L9.28668 11.7809L9.98418 19.6014H16.3349V16.7635ZM16.3349 24.1339L16.3225 24.1372L13.1618 23.2838L12.9598 21.0204H10.111L10.5086 25.4763L16.3218 27.0901L16.3349 27.0865V24.1339Z" fill="#EBEBEB"/>
<path d="M7.10938 0.000976562H8.55156V1.42585H9.87082V0.000976562H11.3131V4.31584H9.87088V2.87097H8.55162V4.31584H7.1095V0.000976562H7.10938ZM13.2096 1.43185H11.94V0.000976562H15.9222V1.43185H14.652V4.31584H13.2097L13.2096 1.43185ZM16.5541 0.000976562H18.0578L18.9829 1.51709L19.907 0.000976562H21.4114V4.31584H19.9752V2.17716L18.9829 3.71133H18.9582L17.9652 2.17716V4.31584H16.5542V0.000976562H16.5541ZM22.1292 0.000976562H23.5718V2.8896H25.5999V4.31584H22.1292V0.000976562Z" fill="black"/>
<path d="M16.3242 16.7635V19.6014H19.8187L19.4893 23.2819L16.3242 24.1362V27.0887L22.142 25.4763L22.1847 24.9969L22.8516 17.5256L22.9208 16.7635H22.1561H16.3242ZM16.3242 11.0195V13.8575H23.179L23.236 13.2196L23.3653 11.7809L23.4331 11.0195H16.3242Z" fill="white"/>
</g>
<defs>
<clipPath id="clip0_7016_5567">
<rect width="22.6688" height="32" fill="white" transform="translate(5)"/>
</clipPath>
</defs>
</svg>
