<svg width="32" height="32" viewBox="0 0 32 32" fill="none" xmlns="http://www.w3.org/2000/svg">
<g clip-path="url(#clip0_7016_5560)">
<rect width="32" height="32" fill="white"/>
<g clip-path="url(#clip1_7016_5560)">
<path d="M0 0H32V32H0V0Z" fill="#F0DB4F"/>
<path d="M29.3805 24.3679C29.1463 22.9079 28.1942 21.682 25.3744 20.5383C24.3949 20.0881 23.3029 19.7657 22.9775 19.0235C22.8619 18.5915 22.8467 18.3482 22.9197 18.0866C23.1295 17.2379 24.1425 16.9733 24.9455 17.2166C25.4626 17.39 25.9524 17.7885 26.2474 18.4242C27.6284 17.53 27.6254 17.536 28.5896 16.9216C28.2368 16.3741 28.0482 16.1216 27.817 15.8874C26.9866 14.9596 25.855 14.482 24.0451 14.5185C23.7318 14.5581 23.4155 14.6006 23.1022 14.6402C22.1988 14.8684 21.3379 15.3429 20.833 15.9786C19.3181 17.6973 19.7501 20.7056 21.5934 21.9436C23.4094 23.3064 26.0771 23.6166 26.4178 24.8912C26.7493 26.4516 25.271 26.9565 23.8018 26.7771C22.7189 26.552 22.1166 26.0014 21.4657 25.0007C20.2672 25.6942 20.2672 25.6942 19.0353 26.403C19.3273 27.0417 19.6345 27.3307 20.1243 27.8843C22.4421 30.2357 28.2429 30.1201 29.2832 26.5611C29.3257 26.4394 29.6056 25.6242 29.3805 24.3679ZM17.3957 14.7071H14.4026C14.4026 17.2927 14.3904 19.86 14.3904 22.4455C14.3904 24.0911 14.4756 25.5999 14.2079 26.0622C13.7699 26.9717 12.6353 26.8592 12.1182 26.6827C11.5919 26.4242 11.3243 26.0561 11.014 25.536C10.9288 25.387 10.8649 25.2714 10.8436 25.2622C10.0315 25.7581 9.22232 26.2569 8.41016 26.7527C8.81475 27.5832 9.41092 28.3041 10.1744 28.7725C11.3151 29.4569 12.8482 29.6668 14.4513 29.2987C15.4946 28.9945 16.3949 28.3649 16.8664 27.4067C17.5478 26.1505 17.4018 24.6295 17.3957 22.9474C17.4109 20.2037 17.3957 17.46 17.3957 14.7071Z" fill="#323330"/>
</g>
</g>
<defs>
<clipPath id="clip0_7016_5560">
<rect width="32" height="32" fill="white"/>
</clipPath>
<clipPath id="clip1_7016_5560">
<rect width="32" height="32" fill="white"/>
</clipPath>
</defs>
</svg>
