<svg width="32" height="32" viewBox="0 0 32 32" fill="none" xmlns="http://www.w3.org/2000/svg">
<g clip-path="url(#clip0_7016_5561)">
<g clip-path="url(#clip1_7016_5561)">
<path d="M14.9536 0.0252049C14.8849 0.0314543 14.6661 0.0533271 14.4693 0.0689506C9.92911 0.478286 5.6764 2.92805 2.98291 6.6933C1.48306 8.78685 0.523779 11.1616 0.161314 13.677C0.0332016 14.555 0.0175781 14.8144 0.0175781 16.0049C0.0175781 17.1954 0.0332016 17.4548 0.161314 18.3328C1.02998 24.3353 5.30144 29.3786 11.0946 31.2472C12.132 31.5815 13.2257 31.8096 14.4693 31.9471C14.9536 32.0002 17.0472 32.0002 17.5315 31.9471C19.6782 31.7096 21.4967 31.1784 23.2903 30.2629C23.5653 30.1223 23.6184 30.0848 23.5809 30.0535C23.5559 30.0348 22.3841 28.4631 20.978 26.5632L18.422 23.1105L15.2192 18.3703C13.4569 15.7643 12.007 13.6333 11.9945 13.6333C11.982 13.6301 11.9695 15.7362 11.9633 18.3078C11.9539 22.8105 11.9508 22.9917 11.8945 23.098C11.8133 23.2511 11.7508 23.3136 11.6196 23.3823C11.5196 23.4323 11.4321 23.4417 10.9603 23.4417H10.4197L10.276 23.3511C10.1822 23.2917 10.1135 23.2136 10.0666 23.1229L10.001 22.9823L10.0072 16.7173L10.0166 10.4492L10.1135 10.3273C10.1635 10.2617 10.2697 10.1773 10.3447 10.1367C10.4728 10.0742 10.5228 10.068 11.0634 10.068C11.7008 10.068 11.8071 10.093 11.9727 10.2742C12.0195 10.3242 13.7537 12.9364 15.8285 16.083C17.9033 19.2296 20.7406 23.526 22.1342 25.6352L24.6652 29.4692L24.7933 29.3848C25.9275 28.6474 27.1274 27.5975 28.0773 26.5039C30.099 24.1822 31.402 21.3512 31.8395 18.3328C31.9676 17.4548 31.9832 17.1954 31.9832 16.0049C31.9832 14.8144 31.9676 14.555 31.8395 13.677C30.9708 7.67446 26.6993 2.6312 20.9062 0.762633C19.8844 0.431415 18.797 0.203313 17.5784 0.0658259C17.2784 0.034579 15.213 0.000207333 14.9536 0.0252049ZM21.4967 9.69301C21.6467 9.768 21.7686 9.91174 21.8123 10.0617C21.8373 10.143 21.8436 11.8803 21.8373 15.7955L21.8279 21.4137L20.8374 19.8951L19.8438 18.3765V14.2926C19.8438 11.6522 19.8563 10.168 19.875 10.0961C19.925 9.92111 20.0344 9.78363 20.1844 9.70238C20.3125 9.63677 20.3593 9.63052 20.8499 9.63052C21.3124 9.63052 21.3936 9.63677 21.4967 9.69301Z" fill="black"/>
<path d="M24.5078 29.5373C24.3984 29.606 24.3641 29.6529 24.4609 29.5998C24.5297 29.5592 24.6422 29.4748 24.6234 29.4717C24.614 29.4717 24.5609 29.5029 24.5078 29.5373ZM24.2922 29.6779C24.2359 29.7217 24.2359 29.7248 24.3047 29.6904C24.3422 29.6717 24.3734 29.6498 24.3734 29.6435C24.3734 29.6185 24.3578 29.6248 24.2922 29.6779ZM24.136 29.7716C24.0797 29.8154 24.0797 29.8185 24.1485 29.7841C24.1859 29.7654 24.2172 29.7435 24.2172 29.7373C24.2172 29.7123 24.2016 29.7185 24.136 29.7716ZM23.9797 29.8654C23.9235 29.9091 23.9235 29.9123 23.9922 29.8779C24.0297 29.8591 24.061 29.8373 24.061 29.831C24.061 29.806 24.0453 29.8123 23.9797 29.8654ZM23.7422 29.9904C23.6235 30.0529 23.6298 30.0779 23.7485 30.0185C23.8016 29.9904 23.8422 29.9623 23.8422 29.956C23.8422 29.9341 23.8391 29.9373 23.7422 29.9904Z" fill="black"/>
</g>
</g>
<defs>
<clipPath id="clip0_7016_5561">
<rect width="32" height="32" fill="white"/>
</clipPath>
<clipPath id="clip1_7016_5561">
<rect width="32" height="32" fill="white"/>
</clipPath>
</defs>
</svg>
