<svg width="32" height="32" viewBox="0 0 32 32" fill="none" xmlns="http://www.w3.org/2000/svg">
<path d="M30.0832 15.5075C30.0832 13.6471 27.7534 11.884 24.1815 10.7907C25.0058 7.15009 24.6394 4.25361 23.0252 3.32628C22.6531 3.10876 22.2181 3.00572 21.743 3.00572V4.28223C22.0063 4.28223 22.2181 4.33375 22.3955 4.43106C23.174 4.87756 23.5118 6.57766 23.2484 8.76433C23.1855 9.30241 23.0824 9.86911 22.9565 10.4473C21.8345 10.1725 20.6096 9.96069 19.3216 9.82331C18.5488 8.76433 17.7474 7.80265 16.9403 6.96118C18.8064 5.22674 20.558 4.27651 21.7487 4.27651V3C20.1745 3 18.1138 4.12195 16.0302 6.0682C13.9465 4.1334 11.8858 3.0229 10.3116 3.0229V4.29941C11.4965 4.29941 13.2539 5.24391 15.12 6.96691C14.3186 7.80837 13.5172 8.76433 12.7559 9.82331C11.4622 9.96069 10.2372 10.1725 9.11525 10.453C8.98359 9.88056 8.88628 9.3253 8.81759 8.79295C8.54855 6.60628 8.88056 4.90618 9.65333 4.45396C9.82506 4.35092 10.0483 4.30513 10.3116 4.30513V3.02862C9.83078 3.02862 9.39574 3.13166 9.01794 3.34918C7.40942 4.27651 7.04879 7.16726 7.87881 10.7964C4.31832 11.8955 2 13.6528 2 15.5075C2 17.3679 4.32977 19.131 7.90171 20.2243C7.07742 23.8649 7.44377 26.7614 9.05801 27.6887C9.43009 27.9062 9.86513 28.0093 10.346 28.0093C11.9201 28.0093 13.9809 26.8873 16.0645 24.9411C18.1481 26.8759 20.2089 27.9864 21.783 27.9864C22.2639 27.9864 22.6989 27.8833 23.0767 27.6658C24.6852 26.7385 25.0459 23.8477 24.2158 20.2186C27.7649 19.1252 30.0832 17.3622 30.0832 15.5075ZM22.6302 11.6894C22.4184 12.4278 22.1551 13.1892 21.8574 13.9505C21.6227 13.4926 21.3766 13.0346 21.1076 12.5767C20.8443 12.1187 20.5638 11.6722 20.2833 11.2372C21.0961 11.3574 21.8803 11.5062 22.6302 11.6894ZM20.0085 17.7858C19.562 18.5585 19.1041 19.2912 18.629 19.9724C17.7761 20.0468 16.9117 20.0869 16.0416 20.0869C15.1772 20.0869 14.3129 20.0468 13.4657 19.9781C12.9906 19.297 12.5269 18.57 12.0804 17.8029C11.6454 17.053 11.2504 16.2917 10.8898 15.5247C11.2447 14.7576 11.6454 13.9906 12.0747 13.2407C12.5212 12.4679 12.9791 11.7352 13.4542 11.054C14.3072 10.9796 15.1715 10.9395 16.0416 10.9395C16.906 10.9395 17.7703 10.9796 18.6175 11.0483C19.0926 11.7295 19.5563 12.4565 20.0028 13.2235C20.4378 13.9734 20.8328 14.7347 21.1934 15.5018C20.8328 16.2688 20.4378 17.0359 20.0085 17.7858ZM21.8574 17.0416C22.1666 17.8086 22.4299 18.5757 22.6474 19.3199C21.8975 19.503 21.1076 19.6576 20.289 19.7778C20.5695 19.337 20.85 18.8848 21.1133 18.4211C21.3766 17.9632 21.6227 17.4995 21.8574 17.0416ZM16.0531 23.1494C15.5207 22.5999 14.9883 21.9874 14.4617 21.3176C14.9769 21.3405 15.5035 21.3577 16.0359 21.3577C16.574 21.3577 17.1063 21.3462 17.6272 21.3176C17.112 21.9874 16.5797 22.5999 16.0531 23.1494ZM11.7942 19.7778C10.9814 19.6576 10.1971 19.5088 9.44726 19.3256C9.65905 18.5871 9.92237 17.8258 10.22 17.0645C10.4547 17.5224 10.7009 17.9804 10.9699 18.4383C11.2389 18.8963 11.5137 19.3428 11.7942 19.7778ZM16.0244 7.86562C16.5568 8.41515 17.0891 9.02764 17.6158 9.69738C17.1006 9.67448 16.574 9.65731 16.0416 9.65731C15.5035 9.65731 14.9712 9.66876 14.4503 9.69738C14.9654 9.02764 15.4978 8.41515 16.0244 7.86562ZM11.7885 11.2372C11.508 11.678 11.2275 12.1302 10.9642 12.5939C10.7009 13.0518 10.4547 13.5097 10.22 13.9677C9.91092 13.2006 9.64761 12.4336 9.43009 11.6894C10.18 11.512 10.9699 11.3574 11.7885 11.2372ZM6.60803 18.404C4.58164 17.5396 3.27078 16.4062 3.27078 15.5075C3.27078 14.6088 4.58164 13.4697 6.60803 12.611C7.10031 12.3992 7.63839 12.2103 8.19365 12.0329C8.51993 13.1548 8.94925 14.3226 9.4816 15.5189C8.95497 16.7096 8.53138 17.8716 8.21082 18.9878C7.64412 18.8104 7.10604 18.6158 6.60803 18.404ZM9.68768 26.5839C8.90918 26.1374 8.57145 24.4373 8.83476 22.2507C8.89773 21.7126 9.00077 21.1459 9.1267 20.5677C10.2487 20.8425 11.4736 21.0543 12.7616 21.1917C13.5344 22.2507 14.3358 23.2123 15.1429 24.0538C13.2768 25.7883 11.5252 26.7385 10.3345 26.7385C10.0769 26.7328 9.8594 26.6812 9.68768 26.5839ZM23.2656 22.2221C23.5347 24.4087 23.2026 26.1088 22.4299 26.561C22.2581 26.6641 22.0349 26.7099 21.7716 26.7099C20.5867 26.7099 18.8293 25.7654 16.9632 24.0424C17.7646 23.2009 18.566 22.2449 19.3273 21.186C20.621 21.0486 21.846 20.8368 22.968 20.5563C23.0996 21.1344 23.2026 21.6897 23.2656 22.2221ZM25.4695 18.404C24.9772 18.6158 24.4391 18.8047 23.8838 18.9821C23.5575 17.8602 23.1282 16.6924 22.5959 15.496C23.1225 14.3054 23.5461 13.1434 23.8667 12.0272C24.4334 12.2046 24.9714 12.3992 25.4752 12.611C27.5016 13.4754 28.8124 14.6088 28.8124 15.5075C28.8067 16.4062 27.4958 17.5453 25.4695 18.404Z" fill="#61DAFB"/>
<path d="M16.0359 18.1236C17.4807 18.1236 18.6519 16.9524 18.6519 15.5076C18.6519 14.0628 17.4807 12.8916 16.0359 12.8916C14.5911 12.8916 13.4199 14.0628 13.4199 15.5076C13.4199 16.9524 14.5911 18.1236 16.0359 18.1236Z" fill="#61DAFB"/>
</svg>
