<svg width="32" height="32" viewBox="0 0 32 32" fill="none" xmlns="http://www.w3.org/2000/svg">
<g clip-path="url(#clip0_7016_5565)">
<path d="M27.5369 17.7881C26.4182 17.7944 25.4494 18.0631 24.6369 18.4632C24.3369 17.8694 24.0369 17.3506 23.987 16.9632C23.9307 16.5132 23.862 16.2381 23.9307 15.7007C23.9994 15.1631 24.3119 14.4006 24.3119 14.3381C24.3056 14.2818 24.2431 14.0068 23.5994 14.0006C22.9557 13.9943 22.3994 14.1256 22.3369 14.2943C22.2744 14.4631 22.1494 14.8506 22.0682 15.2506C21.9557 15.8381 20.7807 17.9193 20.1119 19.0131C19.8932 18.5881 19.7057 18.2131 19.6681 17.913C19.6119 17.4631 19.5431 17.188 19.6119 16.6506C19.6807 16.113 19.9932 15.3506 19.9932 15.2881C19.9869 15.2318 19.9244 14.9568 19.2807 14.9506C18.6369 14.9443 18.0807 15.0756 18.0182 15.2443C17.9557 15.4131 17.887 15.8131 17.7495 16.2006C17.6182 16.5881 16.0557 20.0631 15.6494 20.9693C15.4432 21.4318 15.262 21.8006 15.1307 22.0506C14.9994 22.3006 15.1244 22.0693 15.1119 22.0943C14.9994 22.3068 14.9369 22.4256 14.9369 22.4256V22.4319C14.8494 22.5882 14.7557 22.7381 14.7119 22.7381C14.6806 22.7381 14.6181 22.3193 14.7244 21.7444C14.9556 20.5381 15.5181 18.6569 15.5119 18.5882C15.5119 18.5569 15.6181 18.2256 15.1494 18.0569C14.6931 17.8882 14.5307 18.1694 14.4931 18.1694C14.4556 18.1694 14.4244 18.2694 14.4244 18.2694C14.4244 18.2694 14.9306 16.1507 13.4556 16.1507C12.5306 16.1507 11.2556 17.157 10.6244 18.0757C10.2244 18.2945 9.37435 18.7569 8.47435 19.2507C8.1306 19.4382 7.77435 19.6382 7.43685 19.8195L7.36817 19.7443C5.58067 17.8381 2.27442 16.4881 2.41192 13.9256C2.46192 12.9943 2.78692 10.5381 8.76198 7.56309C13.6557 5.12559 17.5745 5.79434 18.2557 7.28184C19.2244 9.40684 16.1619 13.3568 11.0745 13.9256C9.13698 14.1443 8.11817 13.3943 7.86198 13.1131C7.59323 12.8193 7.55573 12.8068 7.45573 12.8631C7.29323 12.9506 7.39323 13.2131 7.45573 13.3693C7.60573 13.7631 8.23073 14.4631 9.29323 14.8131C10.2244 15.1193 12.4995 15.2881 15.2495 14.2256C18.3307 13.0318 20.737 9.71934 20.0307 6.95059C19.312 4.13184 14.637 3.20684 10.2182 4.77559C7.58692 5.71309 4.73692 7.17559 2.68692 9.09434C0.249417 11.3693 -0.138083 13.3568 0.0244165 14.1818C0.593229 17.1256 4.64942 19.0443 6.27442 20.4631C6.19317 20.5068 6.11817 20.5505 6.04942 20.5881C5.23692 20.988 2.14317 22.6068 1.36817 24.3193C0.493167 26.2568 1.50567 27.6506 2.18067 27.8381C4.26817 28.4193 6.40567 27.3756 7.56192 25.6568C8.71185 23.9381 8.57442 21.7068 8.04317 20.6881L8.02435 20.6506L8.66185 20.2756C9.07442 20.0318 9.48067 19.8068 9.83685 19.613C9.63692 20.1568 9.4931 20.8005 9.41817 21.738C9.33067 22.8381 9.78067 24.263 10.3744 24.8255C10.6369 25.0692 10.9494 25.0755 11.1432 25.0755C11.8307 25.0755 12.1432 24.5067 12.4869 23.8255C12.9119 22.9943 13.2869 22.0318 13.2869 22.0318C13.2869 22.0318 12.8182 24.638 14.0994 24.638C14.5682 24.638 15.0369 24.0318 15.2494 23.7193V23.7255C15.2494 23.7255 15.2619 23.7068 15.2869 23.663C15.3131 23.6243 15.3382 23.5847 15.3619 23.5443V23.5318C15.5494 23.2068 15.9682 22.4631 16.5932 21.2318C17.3994 19.6443 18.1744 17.6568 18.1744 17.6568C18.1744 17.6568 18.2494 18.1443 18.4807 18.9443C18.6181 19.4194 18.9181 19.9381 19.1494 20.4443C18.9619 20.7068 18.8494 20.8569 18.8494 20.8569L18.8556 20.8632C18.7057 21.0632 18.5369 21.2757 18.3619 21.4882C17.7244 22.2507 16.9619 23.1195 16.8619 23.3695C16.7432 23.6632 16.7682 23.8819 16.9994 24.057C17.1682 24.182 17.4682 24.2069 17.7869 24.182C18.3619 24.1444 18.7619 24.0007 18.9619 23.9132C19.2744 23.8007 19.6307 23.6319 19.9744 23.3819C20.5994 22.9195 20.9807 22.2632 20.9432 21.3882C20.9244 20.907 20.7682 20.432 20.5744 19.982C20.6307 19.9007 20.687 19.8194 20.7432 19.732C21.7307 18.2882 22.4932 16.7007 22.4932 16.7007C22.4932 16.7007 22.5682 17.1882 22.7994 17.9882C22.9181 18.3945 23.1557 18.8383 23.3682 19.2758C22.4432 20.032 21.8619 20.907 21.6619 21.482C21.2932 22.5445 21.5807 23.0258 22.1244 23.1383C22.3681 23.1883 22.7182 23.0758 22.9806 22.9633C23.3056 22.857 23.6994 22.6757 24.0619 22.407C24.6869 21.9445 25.2869 21.3008 25.2557 20.432C25.2369 20.032 25.1307 19.6383 24.9869 19.2633C25.7744 18.9383 26.7931 18.7508 28.0869 18.907C30.8682 19.232 31.4182 20.9695 31.312 21.6945C31.2057 22.4196 30.6245 22.8195 30.4307 22.9445C30.2369 23.0633 30.1744 23.1071 30.1932 23.1945C30.2182 23.3258 30.3057 23.3195 30.4744 23.2946C30.7057 23.257 31.9369 22.7008 31.9869 21.3634C32.0619 19.6444 30.4307 17.7694 27.5369 17.7881ZM6.08692 25.0193C5.16817 26.0256 3.87442 26.4068 3.32442 26.0818C2.73067 25.7381 2.96185 24.2568 4.09317 23.1881C4.78067 22.5381 5.67442 21.9381 6.26192 21.5693C6.39317 21.4881 6.59317 21.3694 6.83067 21.2256C6.86817 21.2007 6.89317 21.1881 6.89317 21.1881C6.93692 21.1631 6.98692 21.1318 7.03692 21.1006C7.45567 22.6256 7.05567 23.9631 6.08692 25.0193ZM12.8057 20.4506C12.4869 21.2318 11.8119 23.2381 11.4057 23.1256C11.0556 23.0318 10.8432 21.5131 11.3369 20.0131C11.5869 19.2568 12.1181 18.3568 12.4306 18.0068C12.9369 17.4443 13.4869 17.2568 13.6244 17.488C13.7869 17.7881 13.0057 19.9631 12.8057 20.4506ZM18.3494 23.1006C18.2119 23.1694 18.0869 23.2193 18.0307 23.1819C17.9869 23.1569 18.0869 23.0632 18.0869 23.0632C18.0869 23.0632 18.7806 22.3194 19.0556 21.9757C19.2119 21.7757 19.3994 21.5445 19.5994 21.2819V21.3569C19.5994 22.2568 18.7369 22.8568 18.3494 23.1006ZM22.6244 22.1256C22.5244 22.0506 22.5369 21.8193 22.8744 21.0943C23.0057 20.8068 23.3056 20.3256 23.8244 19.8693C23.8869 20.0568 23.9244 20.238 23.9181 20.4068C23.9119 21.5318 23.1119 21.9506 22.6244 22.1256Z" fill="#CF649A"/>
</g>
<defs>
<clipPath id="clip0_7016_5565">
<rect width="32" height="24" fill="white" transform="translate(0 4)"/>
</clipPath>
</defs>
</svg>
