<svg width="32" height="32" viewBox="0 0 32 32" fill="none" xmlns="http://www.w3.org/2000/svg">
<g clip-path="url(#clip0_7016_5564)">
<path d="M16 6.40039C11.7334 6.40039 9.06662 8.53377 8 12.8004C9.6 10.667 11.4666 9.86702 13.6 10.4004C14.8171 10.7046 15.6871 11.5878 16.6501 12.5651C18.2189 14.1575 20.0344 16.0004 24 16.0004C28.2666 16.0004 30.9334 13.867 32 9.60039C30.4 11.7338 28.5334 12.5338 26.4 12.0004C25.1829 11.6961 24.3129 10.813 23.3499 9.83564C21.7811 8.24327 19.9656 6.40039 16 6.40039ZM8 16.0004C3.73338 16.0004 1.06662 18.1338 0 22.4004C1.6 20.267 3.46662 19.467 5.6 20.0004C6.81712 20.3046 7.68712 21.1878 8.65012 22.1651C10.2189 23.7575 12.0344 25.6004 16 25.6004C20.2666 25.6004 22.9334 23.467 24 19.2004C22.4 21.3338 20.5334 22.1338 18.4 21.6004C17.1829 21.2961 16.3129 20.413 15.3499 19.4356C13.7811 17.8433 11.9656 16.0004 8 16.0004Z" fill="url(#paint0_linear_7016_5564)"/>
</g>
<defs>
<linearGradient id="paint0_linear_7016_5564" x1="-227.574" y1="950.119" x2="-132.818" y2="2013.4" gradientUnits="userSpaceOnUse">
<stop stop-color="#2298BD"/>
<stop offset="1" stop-color="#0ED7B5"/>
</linearGradient>
<clipPath id="clip0_7016_5564">
<rect width="32" height="19.2512" fill="white" transform="translate(0 6.37402)"/>
</clipPath>
</defs>
</svg>
