<svg width="32" height="32" viewBox="0 0 32 32" fill="none" xmlns="http://www.w3.org/2000/svg">
<g clip-path="url(#clip0_7016_5563)">
<g clip-path="url(#clip1_7016_5563)">
<path d="M0 16V0H32V32H0" fill="#007ACC"/>
<path d="M7.01562 16.0564V17.3604H11.1756V29.2004H14.1276V17.3604H18.2876V16.0804C18.2876 15.3604 18.2876 14.7764 18.2556 14.7604C18.2556 14.7364 15.7196 14.7284 12.6396 14.7284L7.03963 14.7524V16.0644L7.01562 16.0564ZM25.7116 14.7204C26.5276 14.9124 27.1516 15.2804 27.7116 15.8644C28.0076 16.1844 28.4476 16.7444 28.4796 16.8884C28.4796 16.9364 27.0956 17.8724 26.2556 18.3924C26.2236 18.4164 26.0956 18.2804 25.9676 18.0724C25.5516 17.4804 25.1276 17.2244 24.4636 17.1764C23.5036 17.1124 22.8636 17.6164 22.8636 18.4564C22.8636 18.7124 22.9116 18.8564 23.0076 19.0644C23.2236 19.5044 23.6236 19.7684 24.8636 20.3124C27.1516 21.2964 28.1436 21.9444 28.7436 22.8724C29.4236 23.9124 29.5756 25.5444 29.1196 26.7684C28.6076 28.1044 27.3596 29.0084 25.5756 29.3044C25.0156 29.4004 23.7356 29.3844 23.1356 29.2804C21.8556 29.0404 20.6316 28.4004 19.8796 27.5764C19.5836 27.2564 19.0156 26.4004 19.0476 26.3444L19.3516 26.1524L20.5516 25.4564L21.4556 24.9284L21.6636 25.2084C21.9276 25.6244 22.5196 26.1844 22.8636 26.3764C23.9036 26.9124 25.2956 26.8404 25.9836 26.2164C26.2796 25.9444 26.4076 25.6564 26.4076 25.2564C26.4076 24.8884 26.3516 24.7204 26.1676 24.4404C25.9116 24.0884 25.3996 23.8004 23.9596 23.1604C22.3036 22.4564 21.5996 22.0084 20.9436 21.3204C20.5676 20.9044 20.2236 20.2564 20.0636 19.7204C19.9436 19.2564 19.9036 18.1204 20.0156 17.6644C20.3596 16.0644 21.5676 14.9444 23.2956 14.6244C23.8556 14.5124 25.1756 14.5604 25.7276 14.7044L25.7116 14.7204Z" fill="white"/>
</g>
</g>
<defs>
<clipPath id="clip0_7016_5563">
<rect width="32" height="32" fill="white"/>
</clipPath>
<clipPath id="clip1_7016_5563">
<rect width="32" height="32" fill="white"/>
</clipPath>
</defs>
</svg>
