<svg width="32" height="32" viewBox="0 0 32 32" fill="none" xmlns="http://www.w3.org/2000/svg">
<g clip-path="url(#clip0_7017_5522)">
<g clip-path="url(#clip1_7017_5522)">
<path d="M16 32C24.8366 32 32 24.8366 32 16C32 7.16344 24.8366 0 16 0C7.16344 0 0 7.16344 0 16C0 24.8366 7.16344 32 16 32Z" fill="#4353FF"/>
<path d="M20.6995 14.1002L19.2495 18.6702C19.2495 18.3202 18.2495 10.7402 18.2495 10.7402C15.9495 10.7402 14.7295 12.3702 14.0895 14.1002L12.3195 18.6802C12.3195 18.3502 12.0695 14.1402 12.0695 14.1402C11.9841 13.2289 11.5674 12.3804 10.8984 11.7557C10.2294 11.1309 9.35453 10.7732 8.43945 10.7502L10.3195 22.2302C12.7195 22.2302 14.0195 20.6002 14.6895 18.8702L16.1895 14.9702C16.1895 15.1302 17.1895 22.2302 17.1895 22.2302C18.1708 22.229 19.1263 21.9152 19.9174 21.3345C20.7086 20.7537 21.2942 19.9362 21.5895 19.0002L24.9895 10.7402C22.5895 10.7402 21.3295 12.3702 20.6895 14.1002H20.6995Z" fill="white"/>
</g>
</g>
<defs>
<clipPath id="clip0_7017_5522">
<rect width="32" height="32" fill="white"/>
</clipPath>
<clipPath id="clip1_7017_5522">
<rect width="32" height="32" fill="white"/>
</clipPath>
</defs>
</svg>
